<svg width="76" height="76" viewBox="0 0 76 76" fill="none" xmlns="http://www.w3.org/2000/svg">
<path d="M64.2456 25.65C64.2452 24.6437 64.03 23.7546 63.5948 22.9915C63.1673 22.241 62.5271 21.6121 61.6683 21.1148C54.5798 17.0275 47.4844 12.9527 40.3981 8.86125C38.4877 7.75833 36.6354 7.79854 34.7392 8.91729C31.9177 10.5812 17.7917 18.6744 13.5823 21.1125C11.8488 22.116 11.0052 23.6519 11.0048 25.6481C11.0021 33.8679 11.0048 42.0875 11.0021 50.3075C11.0025 51.2917 11.2085 52.1635 11.6246 52.9152C12.0523 53.6883 12.7015 54.3346 13.58 54.8431C17.7896 57.2812 31.9175 65.3737 34.7383 67.0381C36.6354 68.1575 38.4877 68.1975 40.3988 67.0942C47.4852 63.0025 54.581 58.9279 61.6706 54.8406C62.5492 54.3323 63.1983 53.6856 63.626 52.9131C64.0415 52.1615 64.2479 51.2896 64.2483 50.3052C64.2483 50.3052 64.2483 33.87 64.2456 25.65" fill="#5C8DBC"/>
<path d="M37.7067 37.8977L11.6246 52.9152C12.0523 53.6883 12.7015 54.3346 13.58 54.8431C17.7896 57.2813 31.9175 65.3738 34.7383 67.0381C36.6354 68.1575 38.4877 68.1975 40.3987 67.0942C47.4852 63.0025 54.581 58.9279 61.6706 54.8406C62.5492 54.3323 63.1983 53.6856 63.626 52.9131L37.7067 37.8977" fill="#1A4674"/>
<path d="M29.9815 42.346C31.4992 44.9956 34.3523 46.7827 37.6252 46.7827C40.9183 46.7827 43.7877 44.9729 45.2977 42.295L37.7067 37.8977L29.9815 42.346" fill="#1A4674"/>
<path d="M64.2456 25.65C64.2452 24.6437 64.03 23.7546 63.5948 22.9915L37.7067 37.8977L63.626 52.9131C64.0415 52.1615 64.2479 51.2896 64.2483 50.3052C64.2483 50.3052 64.2483 33.87 64.2456 25.65" fill="#1B598E"/>
<path d="M62.8204 38.971H60.795V40.9969H58.7692V38.971H56.744V36.9458H58.7692V34.9204H60.795V36.9458H62.8204V38.971Z" fill="white"/>
<path d="M55.4298 38.971H53.4046V40.9969H51.3792V38.971H49.3538V36.9458H51.3792V34.9204H53.4046V36.9458H55.4298V38.971Z" fill="white"/>
<path d="M45.2977 42.295C43.7877 44.9729 40.9183 46.7827 37.6252 46.7827C34.3523 46.7827 31.4992 44.9956 29.9815 42.346C29.219 41.0165 28.8186 39.5103 28.8202 37.9777C28.8202 33.115 32.7625 29.1729 37.6252 29.1729C40.8771 29.1729 43.7152 30.9377 45.2404 33.5602L52.9365 29.1285C49.8775 23.8481 44.1665 20.2956 37.6252 20.2956C27.8594 20.2956 19.9429 28.2123 19.9429 37.9777C19.9429 41.1815 20.7952 44.1858 22.2848 46.7773C25.336 52.0856 31.0633 55.66 37.6252 55.66C44.1992 55.66 49.9354 52.0713 52.9823 46.7473L45.2977 42.295Z" fill="white"/>
</svg>
