<svg width="68" height="68" viewBox="0 0 68 68" fill="none" xmlns="http://www.w3.org/2000/svg">
<path d="M34.25 38.9984C36.8388 38.9984 38.9375 36.8997 38.9375 34.3109C38.9375 31.722 36.8388 29.6234 34.25 29.6234C31.6612 29.6234 29.5625 31.722 29.5625 34.3109C29.5625 36.8997 31.6612 38.9984 34.25 38.9984Z" fill="#00D8FF"/>
<path d="M34.25 45.0584C28.6159 45.1947 22.9959 44.4352 17.6 42.8084C15.1074 42.0182 12.7826 40.7735 10.7431 39.1371C9.96487 38.5781 9.31676 37.8573 8.84327 37.0243C8.36977 36.1912 8.08211 35.2656 8 34.3109C8 31.2115 11.405 28.174 17.1087 26.1865C22.6489 24.4254 28.4374 23.5719 34.25 23.659C39.9851 23.5789 45.696 24.417 51.1662 26.1415C53.5668 26.9068 55.8127 28.0914 57.8 29.6403C58.565 30.1732 59.2033 30.8679 59.6699 31.675C60.1365 32.4821 60.4199 33.382 60.5 34.3109C60.5 37.5321 56.6938 40.7965 50.5625 42.8253C45.2711 44.3991 39.7697 45.1522 34.25 45.0584V45.0584ZM34.25 25.9015C28.689 25.8272 23.1515 26.6386 17.8456 28.3053C12.5956 30.1371 10.2425 32.6421 10.2425 34.3053C10.2425 36.0453 12.7719 38.7809 18.3256 40.6803C23.4876 42.2287 28.8624 42.9495 34.25 42.8159C39.5308 42.9103 44.7949 42.1958 49.8594 40.6971C55.625 38.7865 58.25 36.0471 58.25 34.3109C58.1554 33.7151 57.9383 33.1453 57.6123 32.6377C57.2864 32.13 56.8587 31.6955 56.3563 31.3615C54.5783 29.9874 52.5719 28.9376 50.4294 28.2603C45.1963 26.6173 39.7343 25.821 34.25 25.9015V25.9015Z" fill="#00D8FF"/>
<path d="M23.6 57.6903C22.7253 57.7103 21.8609 57.4981 21.095 57.0753C18.41 55.5265 17.48 51.0603 18.6069 45.1259C19.8493 39.4467 22.0021 34.0058 24.9819 29.014C27.777 24.0061 31.3553 19.4776 35.5812 15.6003C37.4434 13.9028 39.5916 12.5488 41.9263 11.6009C42.7707 11.2051 43.6918 11 44.6244 11C45.5569 11 46.4781 11.2051 47.3225 11.6009C50.1144 13.2096 51.0388 18.1371 49.7356 24.4615C48.4548 29.8326 46.3579 34.9755 43.5181 39.7109C40.8214 44.6597 37.3557 49.1487 33.2506 53.0103C31.3208 54.7742 29.0813 56.1658 26.645 57.1146C25.6697 57.4766 24.6402 57.6712 23.6 57.6903V57.6903ZM26.9244 30.1278C24.0821 34.9077 22.0187 40.1097 20.8119 45.5384C19.775 51.004 20.7706 54.2909 22.2181 55.1271C23.7181 55.9953 27.3594 55.1721 31.7806 51.3096C35.6994 47.6102 39.0073 43.3131 41.5813 38.5784C44.3018 34.0512 46.3132 29.1343 47.5456 23.9984C48.7719 18.0453 47.7125 14.4003 46.2088 13.534C45.6451 13.3181 45.0429 13.2214 44.44 13.2501C43.8371 13.2788 43.2468 13.4323 42.7063 13.7009C40.6282 14.5584 38.7176 15.7758 37.0625 17.2971C33.025 21.0111 29.6069 25.3464 26.9375 30.139L26.9244 30.1278Z" fill="#00D8FF"/>
<path d="M44.8944 57.7146C42.3538 57.7146 39.1269 56.1771 35.7669 53.2878C31.4669 49.3752 27.8281 44.7929 24.9913 39.7184C22.0489 34.7953 19.9131 29.4332 18.665 23.8353C18.1237 21.3724 18.0234 18.8331 18.3688 16.3353C18.4486 15.4087 18.7308 14.5108 19.1953 13.7051C19.6599 12.8994 20.2956 12.2055 21.0575 11.6721C23.8456 10.0578 28.5763 11.7171 33.4044 16.0034C37.418 19.795 40.8264 24.1797 43.5106 29.0046C46.4512 33.8128 48.6093 39.0575 49.9044 44.5428C50.469 47.096 50.5561 49.7316 50.1613 52.3165C50.0673 53.2698 49.7684 54.1915 49.2848 55.0183C48.8013 55.8452 48.1447 56.5578 47.36 57.1071C46.6066 57.5247 45.7556 57.7344 44.8944 57.7146V57.7146ZM26.9319 38.5896C29.6533 43.4392 33.1293 47.8247 37.2294 51.5815C41.4463 55.2096 44.7913 55.9896 46.2294 55.144C47.7294 54.2721 48.8356 50.7134 47.6956 44.9553C46.4467 39.7183 44.3767 34.712 41.5625 30.1221C39.0009 25.5042 35.7476 21.3056 31.9156 17.6721C27.3706 13.6371 23.6844 12.7353 22.1825 13.6053C21.7144 13.9857 21.3303 14.459 21.0543 14.9954C20.7784 15.5317 20.6167 16.1195 20.5794 16.7215C20.2813 18.9492 20.3784 21.212 20.8663 23.4059C22.0668 28.7593 24.1151 33.8864 26.9338 38.5934L26.9319 38.5896Z" fill="#00D8FF"/>
</svg>
