<svg width="76" height="76" viewBox="0 0 76 76" fill="none" xmlns="http://www.w3.org/2000/svg">
<path d="M69.7616 32.6514C68.4104 31.7066 65.3141 31.3523 62.8934 31.8247C62.6122 29.4627 61.3173 27.3962 59.0654 25.5656L57.7707 24.6208L56.8698 25.979C55.744 27.7505 55.1811 30.2306 55.3498 32.5926C55.4061 33.4191 55.6876 34.8953 56.532 36.1944C55.744 36.6668 54.1114 37.2573 51.9722 37.2573H11.2706L11.1581 37.7297C10.7639 40.0915 10.7639 47.4725 15.3802 53.1411C18.8705 57.4515 24.0497 59.6364 30.8614 59.6364C45.6106 59.6364 56.532 52.4913 61.655 39.56C63.6816 39.6191 68.0164 39.56 70.212 35.1313C70.2683 35.0132 70.3808 34.777 70.7748 33.8915L71 33.4191L69.7616 32.6514ZM43.8092 16H37.617V21.9048H43.8092V16ZM43.8092 23.0858H37.617V28.9905H43.8092V23.0855V23.0858ZM36.4908 23.0858H30.2986V28.9905H36.4908V23.0855V23.0858ZM29.1725 23.0858H22.98V28.9905H29.1725V23.0855V23.0858ZM21.8541 30.1715H15.6617V36.0763H21.8539V30.1713L21.8541 30.1715ZM29.1725 30.1715H22.98V36.0763H29.1725V30.1713V30.1715ZM36.4908 30.1715H30.2986V36.0763H36.4908V30.1713V30.1715ZM43.8094 30.1715H37.6168V36.0763H43.8094V30.1713V30.1715ZM51.1278 30.1715H44.9351V36.0763H51.1278V30.1713V30.1715Z" fill="#2396ED"/>
</svg>
