<svg width="68" height="68" viewBox="0 0 68 68" fill="none" xmlns="http://www.w3.org/2000/svg">
<path d="M30.3 36.2997L38.4 31.6L46.3997 36.2997L38.4 40.9L30.3 36.4V36.2997ZM6 22.4003L38.4 4L62.5003 17.6997L54.5006 31.6L38.4009 22.4003L14.1009 36.2003L6 22.4003Z" fill="#F6BD3A"/>
<path d="M30.3 54.7V45.5003L38.2997 40.9L46.3997 36.2997V45.4994L38.4 50.0997V59.2994L30.3 64V54.7ZM30.3 36.2997L22.2 31.6994L14.1 36.1994V26.9997L38.4 13.1997V31.6L30.3 36.2997ZM54.4003 26.9997V22.3994L62.5003 17.6997L62.6006 26.8994L54.5006 31.5991L54.4003 26.9997Z" fill="#EB8C23"/>
<path d="M22.2 59.0997V31.7003L30.1997 27.2003L30.3 36.3006L38.4 40.8006V50.1006L30.3 45.8003V64L22.2 59.0997ZM10.0003 33.8003L6 31.4003V22.4003L14.1 27.0006V36.2003L10.0003 33.8003ZM38.4 22.4003V13.1997L54.4003 22.3994L54.5006 31.5991L38.4009 22.3994L38.4 22.4003Z" fill="#E35A2B"/>
</svg>
