<svg width="76" height="76" viewBox="0 0 76 76" fill="none" xmlns="http://www.w3.org/2000/svg">
<path d="M38 42.9982C40.9587 42.9982 43.3571 40.5997 43.3571 37.641C43.3571 34.6823 40.9587 32.2839 38 32.2839C35.0413 32.2839 32.6429 34.6823 32.6429 37.641C32.6429 40.5997 35.0413 42.9982 38 42.9982Z" fill="#00D8FF"/>
<path d="M38 49.9239C31.561 50.0796 25.1381 49.2117 18.9714 47.3524C16.1228 46.4494 13.4659 45.0269 11.135 43.1567C10.2456 42.5178 9.50487 41.6941 8.96373 40.742C8.4226 39.79 8.09383 38.7321 8 37.641C8 34.0989 11.8914 30.6274 18.41 28.356C24.7416 26.3433 31.357 25.3679 38 25.4674C44.5544 25.3759 51.0812 26.3337 57.3329 28.3046C60.0763 29.1792 62.6431 30.533 64.9143 32.3032C65.7885 32.9122 66.5181 33.7061 67.0514 34.6286C67.5846 35.551 67.9085 36.5795 68 37.641C68 41.3224 63.65 45.0531 56.6429 47.3717C50.5956 49.1704 44.3082 50.0311 38 49.9239V49.9239ZM38 28.0303C31.6445 27.9453 25.3161 28.8727 19.2521 30.7774C13.2521 32.871 10.5629 35.7339 10.5629 37.6346C10.5629 39.6231 13.4536 42.7496 19.8007 44.9203C25.7002 46.69 31.8427 47.5138 38 47.361C44.0352 47.4689 50.0513 46.6523 55.8393 44.9396C62.4286 42.756 65.4286 39.6253 65.4286 37.641C65.3205 36.9601 65.0723 36.3089 64.6998 35.7288C64.3273 35.1486 63.8385 34.652 63.2643 34.2703C61.2323 32.6999 58.9394 31.5001 56.4907 30.726C50.5101 28.8483 44.2678 27.9383 38 28.0303V28.0303Z" fill="#00D8FF"/>
<path d="M25.8286 64.3603C24.8289 64.3832 23.8411 64.1407 22.9657 63.6574C19.8971 61.8874 18.8343 56.7832 20.1221 50.001C21.5421 43.5105 24.0024 37.2924 27.4079 31.5874C30.6023 25.8641 34.6918 20.6887 39.5214 16.2574C41.6496 14.3175 44.1047 12.77 46.7729 11.6867C47.7379 11.2344 48.7907 11 49.8564 11C50.9222 11 51.9749 11.2344 52.94 11.6867C56.1307 13.5253 57.1871 19.1567 55.6979 26.3846C54.2341 32.5229 51.8376 38.4005 48.5921 43.8124C45.5101 49.4682 41.5494 54.5985 36.8579 59.0117C34.6524 61.0277 32.0929 62.618 29.3086 63.7024C28.1939 64.1161 27.0173 64.3386 25.8286 64.3603V64.3603ZM29.6279 32.8603C26.3795 38.3231 24.0214 44.2682 22.6421 50.4724C21.4571 56.7189 22.595 60.4753 24.2493 61.431C25.9636 62.4232 30.125 61.4824 35.1779 57.0682C39.6565 52.8402 43.4369 47.9293 46.3786 42.5182C49.4877 37.3443 51.7865 31.7249 53.195 25.8553C54.5964 19.0517 53.3857 14.886 51.6671 13.896C51.023 13.6492 50.3347 13.5387 49.6457 13.5716C48.9567 13.6044 48.282 13.7798 47.6643 14.0867C45.2893 15.0667 43.1059 16.4581 41.2143 18.1967C36.6 22.4413 32.6936 27.3959 29.6429 32.8731L29.6279 32.8603Z" fill="#00D8FF"/>
<path d="M50.165 64.3882C47.2614 64.3882 43.5736 62.631 39.7336 59.3289C34.8194 54.8573 30.6607 49.6204 27.4186 43.821C24.0559 38.1946 21.615 32.0665 20.1886 25.6689C19.57 22.8542 19.4553 19.9521 19.85 17.0974C19.9413 16.0385 20.2637 15.0124 20.7947 14.0916C21.3256 13.1708 22.0521 12.3777 22.9229 11.7682C26.1093 9.92316 31.5157 11.8196 37.0336 16.7182C41.6206 21.0514 45.5158 26.0625 48.5836 31.5767C51.9442 37.0718 54.4107 43.0657 55.8907 49.3346C56.536 52.2525 56.6355 55.2647 56.1843 58.2189C56.0769 59.3083 55.7353 60.3617 55.1827 61.3067C54.6301 62.2517 53.8797 63.066 52.9829 63.6939C52.1218 64.1711 51.1492 64.4108 50.165 64.3882V64.3882ZM29.6364 42.531C32.7466 48.0734 36.7192 53.0854 41.405 57.3789C46.2243 61.5253 50.0472 62.4167 51.6907 61.4503C53.405 60.4539 54.6693 56.3867 53.3664 49.806C51.939 43.8209 49.5733 38.0994 46.3572 32.8539C43.4296 27.5763 39.7116 22.7779 35.3322 18.6253C30.1379 14.0139 25.925 12.9832 24.2086 13.9774C23.6736 14.4122 23.2346 14.9531 22.9192 15.5661C22.6039 16.1791 22.4191 16.8508 22.3764 17.5389C22.0357 20.0848 22.1467 22.6708 22.7043 25.1782C24.0764 31.2963 26.4173 37.1559 29.6386 42.5353L29.6364 42.531Z" fill="#00D8FF"/>
</svg>
