<svg width="76" height="76" fill="none" xmlns="http://www.w3.org/2000/svg">
  <path d="M60.38 41.225a12.591 12.591 0 00-5.51 1.278c-.567-1.122-1.134-2.122-1.234-2.856-.11-.855-.244-1.377-.11-2.4.133-1.022.733-2.477.721-2.589-.01-.11-.133-.633-1.355-.644-1.222-.011-2.278.233-2.4.555a13.421 13.421 0 00-.511 1.811c-.211 1.112-2.445 5.078-3.722 7.156-.412-.81-.767-1.522-.845-2.089-.111-.855-.244-1.378-.111-2.4.134-1.022.733-2.477.722-2.589-.011-.11-.133-.633-1.355-.644-1.223-.011-2.278.233-2.4.556-.123.322-.256 1.077-.511 1.81-.256.734-3.223 7.356-4 9.067a51.306 51.306 0 01-.99 2.056s-.01.033-.044.089c-.108.212-.22.423-.333.633v.011c-.167.3-.345.578-.433.578-.067 0-.19-.8.022-1.889.444-2.3 1.5-5.878 1.489-6 0-.067.2-.689-.69-1.011-.866-.322-1.177.211-1.255.211-.078 0-.133.189-.133.189s.967-4.022-1.845-4.022c-1.755 0-4.177 1.922-5.377 3.655a1483.86 1483.86 0 00-4.09 2.234c-.654.366-1.332.733-1.966 1.077-.044-.044-.089-.1-.133-.144-3.4-3.633-9.689-6.2-9.422-11.078.1-1.777.71-6.444 12.077-12.11 9.356-4.612 16.8-3.334 18.09-.5C44.57 25.27 38.735 32.78 29.07 33.87c-3.69.41-5.623-1.012-6.111-1.545-.511-.556-.59-.589-.778-.478-.311.167-.111.667 0 .956.289.755 1.477 2.089 3.489 2.744 1.777.578 6.1.9 11.333-1.122 5.855-2.267 10.433-8.566 9.089-13.844-1.345-5.356-10.233-7.122-18.645-4.134-5 1.778-10.422 4.578-14.322 8.223-4.633 4.333-5.367 8.1-5.067 9.677 1.078 5.6 8.8 9.245 11.89 11.945-.156.089-.3.167-.423.233-1.544.767-7.433 3.845-8.9 7.1-1.666 3.689.267 6.334 1.545 6.689 3.966 1.1 8.044-.878 10.233-4.145 2.189-3.266 1.922-7.51.911-9.455-.011-.022-.022-.044-.044-.067.4-.233.81-.477 1.21-.71.736-.435 1.48-.854 2.234-1.256-.378 1.033-.655 2.266-.789 4.044-.166 2.09.689 4.8 1.811 5.867.5.467 1.09.478 1.467.478 1.311 0 1.9-1.09 2.556-2.378.8-1.578 1.522-3.411 1.522-3.411s-.9 4.955 1.544 4.955c.89 0 1.79-1.155 2.19-1.744v.01s.021-.033.066-.11l.144-.234v-.022a96.115 96.115 0 002.345-4.378c1.533-3.022 3.01-6.8 3.01-6.8s.134.923.59 2.456c.267.9.822 1.889 1.266 2.844-.355.5-.577.778-.577.778l.01.011c-.288.378-.6.79-.944 1.19-1.211 1.444-2.655 3.1-2.855 3.577-.234.567-.178.978.267 1.311.322.245.9.278 1.488.245 1.09-.078 1.856-.345 2.233-.511a7.491 7.491 0 001.923-1.012c1.189-.878 1.91-2.133 1.844-3.788-.033-.911-.333-1.823-.7-2.678.111-.156.211-.311.322-.467 1.878-2.745 3.334-5.756 3.334-5.756s.133.922.589 2.456c.222.778.678 1.622 1.077 2.444-1.766 1.434-2.855 3.1-3.244 4.19-.7 2.022-.156 2.933.878 3.144.466.1 1.133-.123 1.622-.334a7.387 7.387 0 002.056-1.055c1.189-.878 2.333-2.1 2.266-3.755-.033-.756-.233-1.5-.51-2.223 1.5-.622 3.432-.966 5.899-.678 5.29.622 6.333 3.922 6.133 5.312-.2 1.388-1.31 2.144-1.677 2.377-.367.234-.49.311-.456.478.044.244.222.233.534.189.433-.078 2.777-1.122 2.877-3.678.167-3.267-2.944-6.833-8.444-6.8zm-40.8 13.756c-1.755 1.91-4.2 2.633-5.255 2.022-1.133-.656-.689-3.478 1.467-5.5 1.31-1.233 3-2.378 4.122-3.078.256-.155.633-.378 1.09-.655.077-.045.121-.067.121-.067l.267-.167c.789 2.889.033 5.434-1.811 7.445zm12.779-8.69c-.612 1.49-1.89 5.3-2.667 5.09-.667-.178-1.078-3.067-.133-5.922.477-1.434 1.488-3.145 2.077-3.812.956-1.066 2.012-1.422 2.267-.988.322.566-1.167 4.7-1.544 5.633zm10.544 5.045c-.256.134-.5.223-.611.156-.078-.045.111-.222.111-.222s1.322-1.423 1.844-2.067c.3-.378.656-.822 1.034-1.322v.144c0 1.7-1.645 2.845-2.378 3.311zm8.133-1.855c-.189-.134-.155-.578.478-1.967.244-.545.822-1.456 1.811-2.333.111.355.19.7.178 1.022-.011 2.144-1.544 2.944-2.467 3.278z" fill="#CD6799"/>
</svg>
