<svg width="76" height="76" viewBox="0 0 76 76" fill="none" xmlns="http://www.w3.org/2000/svg">
<path fill-rule="evenodd" clip-rule="evenodd" d="M58.7387 36.9181C58.7387 48.8056 49.3169 58.4431 37.6956 58.4431C26.0744 58.4431 16.6544 48.8056 16.6544 36.9181C16.6544 25.0306 26.0744 15.3931 37.6956 15.3931C49.3169 15.3931 58.7387 25.0306 58.7387 36.9181Z" fill="#D33833"/>
<path d="M17.5094 42.2487C17.5094 42.2487 15.9869 19.8031 36.6681 19.1619L35.2244 16.7562L24.0006 20.5062L20.8131 24.1944L18.0081 29.5662L16.405 35.8193L16.8869 39.9875" fill="#EF3D3A"/>
<path d="M23.2825 22.2369C19.5888 26.015 17.305 31.2312 17.305 37.0006C17.305 42.77 19.5925 47.9881 23.2825 51.7625C26.9725 55.5369 32.0669 57.8694 37.6956 57.8694C43.3244 57.8694 48.415 55.5387 52.1087 51.7625C55.8025 47.9862 58.0862 42.7681 58.0862 37.0006C58.0862 31.2331 55.7987 26.0131 52.1087 22.2369C48.4187 18.4606 43.3244 16.13 37.6956 16.13C32.0669 16.13 26.9762 18.4606 23.2825 22.2369V22.2369ZM22.3487 52.6775C18.4244 48.665 16 43.1187 16 37.0025C16 30.8862 18.4262 25.34 22.3487 21.3275C26.2712 17.315 31.7012 14.825 37.6956 14.8269C43.69 14.8287 49.12 17.315 53.0425 21.3275C56.965 25.34 59.3931 30.8862 59.3931 37.0025C59.3931 43.1187 56.9669 48.665 53.0425 52.6775C49.1181 56.69 43.69 59.1781 37.6956 59.1781C31.7012 59.1781 26.2712 56.69 22.3487 52.6775" fill="#231F20"/>
<path fill-rule="evenodd" clip-rule="evenodd" d="M46.5531 37.0381L43.3656 37.52L39.0344 38.0019L36.2294 38.0825L33.5031 38.0019L31.4181 37.3606L29.575 35.3544L28.1312 31.2669L27.8125 30.3856L25.8887 29.7444L24.7637 27.9012L23.9481 25.2556L24.8294 22.9306L26.9144 22.2087L28.5981 23.0112L29.4006 24.7737L30.3625 24.6125L30.6812 24.2112L30.3625 22.3681L30.2819 20.0431L30.7637 16.8556L30.745 15.0237L32.2075 12.6875L34.7725 10.8444L39.2575 8.89999L44.2262 9.62187L48.5575 12.7475L50.5637 15.935L51.8462 18.26L52.165 24.0312L51.2031 29L49.4406 33.4062L47.7569 35.7312" fill="#F0D6B7"/>
<path fill-rule="evenodd" clip-rule="evenodd" d="M43.8269 50.9056L32.3631 51.3875V53.3112L33.325 60.0425L32.8431 60.605L24.8294 57.8806L24.2669 56.9187L23.4644 47.8625L21.6213 42.4119L21.22 41.1294L27.6325 36.7231L29.6388 35.9206L31.4013 38.0844L32.9238 39.4475L34.6863 40.01L35.4869 40.25L36.4488 44.4181L37.1706 45.2994L39.0138 44.6581L37.7313 47.1425L44.7063 50.4294L43.825 50.9112" fill="#335061"/>
<path fill-rule="evenodd" clip-rule="evenodd" d="M24.8294 22.9306L26.9144 22.2087L28.5981 23.0112L29.4006 24.7737L30.3625 24.6125L30.6025 23.6506L30.1206 21.8075L30.6025 17.3975L30.2013 14.9919L31.645 13.3081L34.7706 10.8237L33.8894 9.62375L29.4794 11.7875L27.6363 13.2312L26.5938 15.4756L24.9906 17.6394L24.5088 20.2044L24.8275 22.9306" fill="#6D6B6D"/>
<path fill-rule="evenodd" clip-rule="evenodd" d="M28.1144 15.3931C28.1144 15.3931 29.3144 12.4269 34.1275 10.9869C38.9406 9.54687 34.3675 9.94437 34.3675 9.94437L29.155 11.9506L27.1488 13.9569L26.2675 15.56L28.1106 15.3987L28.1144 15.3931ZM25.7106 22.3681C25.7106 22.3681 24.0269 16.7562 30.4413 15.9556L30.2013 14.9937L25.795 16.0362L24.5125 20.2044L24.8313 22.9306L25.7125 22.3681" fill="#DCD9D8"/>
<path fill-rule="evenodd" clip-rule="evenodd" d="M28.2756 29.8231L29.3256 28.8069C29.3362 28.9565 29.3962 29.0984 29.4964 29.2102C29.5966 29.3219 29.7311 29.397 29.8788 29.4237C29.9594 29.9862 30.1975 35.0356 33.6288 37.7619C33.9438 38.0112 31.0638 37.3606 31.0638 37.3606L28.4988 33.3519L28.2756 29.8231ZM43.0075 28.2987C43.0075 28.2987 43.195 25.8687 43.8513 26.0562C44.5075 26.2437 44.5075 26.9 44.5075 26.9C44.5075 26.9 42.9175 27.9275 43.0113 28.3025" fill="#F7E4CD"/>
<path d="M49.6806 19.4C49.6806 19.4 48.3587 19.6812 48.2369 20.8437C48.115 22.0062 49.6806 21.0837 49.9206 21.005L49.6806 19.4ZM39.9981 19.4806C39.9981 19.4806 38.2356 19.7206 38.2356 20.8437C38.2356 21.9669 40.2419 21.8862 40.8006 21.4062" fill="#F7E4CD"/>
<path fill-rule="evenodd" clip-rule="evenodd" d="M29.0762 24.6931C29.0762 24.6931 26.0294 22.8481 25.7106 24.6125C25.3919 26.3769 24.6681 27.6594 26.1925 29.5025L25.15 29.1837L24.1881 26.6994L23.8694 24.2937L25.7125 22.37L27.7975 22.5312L28.9975 23.4931L29.0781 24.6931H29.0762ZM30.5219 19.6419C30.5219 19.6419 31.885 12.5881 38.7794 11.2044C44.455 10.0831 47.4362 11.4444 48.5594 12.7269C48.5594 12.7269 43.5081 6.71561 38.6969 8.55874C33.8856 10.4019 30.3606 13.8087 30.4356 15.9519L30.5162 19.64L30.5219 19.6419ZM49.1162 13.5462C49.1162 13.5462 46.7912 13.4656 46.7106 15.5525C46.7189 15.7749 46.7732 15.9933 46.87 16.1937C46.87 16.1937 48.715 14.1087 49.8362 15.2319L49.1162 13.5462ZM38.9369 16.4094C38.9369 16.4094 38.5375 13.2106 35.8094 15.0706C34.0469 16.2706 34.2062 17.9581 34.5269 18.2581C34.8475 18.5581 34.7612 19.2237 35.005 18.7831C35.2487 18.3425 35.1681 16.8969 36.0512 16.4956C36.9344 16.0944 38.3762 15.6462 38.9387 16.3925" fill="#F7E4CD"/>
<path fill-rule="evenodd" clip-rule="evenodd" d="M31.4012 38.0806L23.8637 41.4481C23.8637 41.4481 26.9894 53.8737 25.3862 57.7231L24.2612 57.3219L24.1806 52.5912L22.1031 43.6306L21.2219 41.1462L29.0969 35.855L31.4219 38.0994L31.4012 38.0806ZM32.1794 44.9525L33.2481 46.2575V51.0669H31.9656L31.8062 47.3169C31.8062 46.9156 31.9656 45.4737 31.9656 45.4737L32.1794 44.9525ZM32.2037 51.7869L28.5962 51.9462L29.6387 52.6681L32.2037 53.0694" fill="#49728B"/>
<path fill-rule="evenodd" clip-rule="evenodd" d="M44.5487 50.9863L47.515 50.9056L48.2369 58.2819L45.19 58.6831L44.5487 50.9881" fill="#335061"/>
<path fill-rule="evenodd" clip-rule="evenodd" d="M45.3512 50.9862L49.84 50.7462L51.6831 45.8562C51.6831 45.6162 53.2862 39.125 53.2862 39.125L49.6787 35.3562L48.9569 34.715L47.0331 36.6387V44.0937L45.3494 50.9881" fill="#335061"/>
<path fill-rule="evenodd" clip-rule="evenodd" d="M47.3556 50.4256L44.5506 50.9881L44.9519 53.2325C45.9944 53.7144 47.7569 52.43 47.7569 52.43L47.3556 50.4256ZM47.4344 36.3987L53.0463 40.5669L53.2075 38.6431L48.9588 34.715L47.4363 36.3987" fill="#49728B"/>
<path fill-rule="evenodd" clip-rule="evenodd" d="M34.9862 66.7794L33.3269 60.0444L32.5019 55.0756L32.365 51.3875L39.8762 50.9881H44.5506L44.125 59.4256L44.8469 65.9187L44.7662 67.1187L38.6725 67.6006L34.9844 66.7981" fill="white"/>
<path fill-rule="evenodd" clip-rule="evenodd" d="M43.5044 50.9056C43.5044 50.9056 43.1031 59.2437 44.3069 65.1556C44.3069 65.1556 41.9012 66.6781 38.3744 67.0794L45.1056 66.8394L45.9081 66.3575L44.9462 53.21L44.7062 50.4031" fill="#DCD9D8"/>
<path fill-rule="evenodd" clip-rule="evenodd" d="M48.3737 57.6406L51.4994 56.7594L57.4319 56.4406L58.3131 53.7144L56.71 48.9837L54.8669 48.7437L52.3019 49.5462L49.84 50.7462L48.5331 50.5062L47.515 50.9056" fill="white"/>
<path fill-rule="evenodd" clip-rule="evenodd" d="M48.3175 56.0356C48.3175 56.0356 50.4025 55.0737 50.7231 55.1544L49.8418 50.7444L50.8844 50.3431L51.6062 54.9931L56.4962 55.2331C56.4962 55.2331 57.4581 53.39 57.2181 51.4831L58.0993 54.0481L58.18 55.4919L56.8975 57.4156L55.4537 57.7344L53.0481 57.6537L52.2456 56.6112L49.4406 57.0125L48.5593 57.3312" fill="#DCD9D8"/>
<path d="M45.1656 50.3431L43.4031 45.8544L41.56 43.2106C41.56 43.2106 41.9612 42.0856 42.5219 42.0856H44.365L46.1275 42.7269L45.9681 45.6931L45.1656 50.3431Z" fill="white"/>
<path fill-rule="evenodd" clip-rule="evenodd" d="M45.5106 48.8244C45.5106 48.8244 43.2663 44.4931 43.2663 43.8556C43.2663 43.8556 43.6675 42.8937 44.2281 43.1337C44.7888 43.3737 45.9906 44.015 45.9906 44.015V42.4925L43.2644 41.93L41.4213 42.17L44.5469 49.5462L45.1881 49.6269" fill="#DCD9D8"/>
<path d="M35.7044 38.24L33.4844 37.9962L31.3994 37.355V38.0769L32.4175 39.2019L35.605 40.6456" fill="white"/>
<path fill-rule="evenodd" clip-rule="evenodd" d="M32.1231 38.4819C32.1231 38.4819 34.6075 39.5244 35.41 39.2844L35.4906 40.2462L33.2462 39.7662L31.8831 38.8044L32.1231 38.4856" fill="#DCD9D8"/>
<path fill-rule="evenodd" clip-rule="evenodd" d="M48.3644 42.3612C47.005 42.3237 45.7769 42.1606 44.6987 41.855C44.7737 41.4144 44.635 40.9812 44.7456 40.6625C45.0456 40.4469 45.5481 40.4506 46.0019 40.4C45.6081 40.2069 45.0587 40.1319 44.6069 40.2425C44.5956 39.9369 44.4569 39.7475 44.3763 39.5075C45.1413 39.2337 46.945 37.445 47.9613 38.0375C48.445 38.3187 48.6512 39.9312 48.6887 40.7112C48.7206 41.36 48.6325 42.0162 48.3644 42.3612" fill="#D33833"/>
<path d="M48.3644 42.3612C47.005 42.3237 45.7769 42.1606 44.6987 41.855C44.7737 41.4144 44.635 40.9812 44.7456 40.6625C45.0456 40.4469 45.5481 40.4506 46.0019 40.4C45.6081 40.2069 45.0587 40.1319 44.6069 40.2425C44.5956 39.9369 44.4569 39.7475 44.3763 39.5075C45.1413 39.2337 46.945 37.445 47.9613 38.0375C48.445 38.3187 48.6512 39.9312 48.6887 40.7112C48.7206 41.36 48.6325 42.0162 48.3644 42.3612V42.3612Z" stroke="#D33833" stroke-width="0.514"/>
<path fill-rule="evenodd" clip-rule="evenodd" d="M41.86 40.1375L41.8487 40.4487C41.4231 40.73 40.7387 40.7244 40.2737 40.9587C40.96 40.9887 41.5019 41.1537 41.9706 41.39L41.9406 42.1681C41.1625 42.7006 40.4519 43.4956 39.535 43.9944C39.1037 44.2306 37.5812 44.8381 37.12 44.7312C36.8575 44.6712 36.835 44.3469 36.7319 44.0412C36.5106 43.385 36.0006 42.3481 35.9537 41.3637C35.8975 40.1206 35.7719 38.0394 37.1106 38.2944C38.2177 38.5292 39.2858 38.92 40.2831 39.455C40.795 39.7362 41.0894 40.0794 41.8656 40.1394" fill="#D33833"/>
<path d="M41.86 40.1375L41.8487 40.4487C41.4231 40.73 40.7387 40.7244 40.2737 40.9587C40.96 40.9887 41.5019 41.1537 41.9706 41.39L41.9406 42.1681C41.1625 42.7006 40.4519 43.4956 39.535 43.9944C39.1037 44.2306 37.5812 44.8381 37.12 44.7312C36.8575 44.6712 36.835 44.3469 36.7319 44.0412C36.5106 43.385 36.0006 42.3481 35.9537 41.3637C35.8975 40.1206 35.7719 38.0394 37.1106 38.2944C38.2177 38.5292 39.2858 38.92 40.2831 39.455C40.795 39.7362 41.0894 40.0794 41.8656 40.1394L41.86 40.1375Z" stroke="#D33833" stroke-width="0.514"/>
<path fill-rule="evenodd" clip-rule="evenodd" d="M42.6325 41.6206C42.5144 40.9456 42.3756 40.7506 42.43 40.1581C44.2356 38.9544 44.5731 42.2243 42.6325 41.6206Z" fill="#D33833"/>
<path d="M42.6325 41.6206C42.5144 40.9456 42.3756 40.7506 42.43 40.1581C44.2356 38.9544 44.5731 42.2243 42.6325 41.6206Z" stroke="#D33833" stroke-width="0.514"/>
<path fill-rule="evenodd" clip-rule="evenodd" d="M45.2481 42.1681C45.2481 42.1681 44.6856 41.3656 45.0869 41.1256C45.4881 40.8856 45.8894 41.1256 46.1294 40.7244C46.3694 40.3231 46.1294 40.0831 46.21 39.5994C46.2906 39.1156 46.6919 39.0369 47.0913 38.9581C47.4906 38.8794 48.6138 38.7181 48.775 39.1194L48.2931 37.6756L47.3313 37.3569L44.2844 39.1194L44.1231 40.0006V41.7631L45.2481 42.1681ZM36.8106 44.8119L36.4994 41.0619C36.3119 39.1962 36.9494 39.5206 38.5656 39.5206C38.8131 39.5206 40.0656 39.815 40.1781 40.0025C40.615 40.895 39.4281 40.6962 40.6844 41.3712C41.7269 41.9394 43.5681 41.0262 43.1462 39.7625C42.91 39.4812 41.9181 39.6744 41.5619 39.4906L39.6831 38.5156C38.8862 38.1031 37.045 37.4994 36.1956 38.0769C34.0431 39.5394 36.3306 43.1994 37.0994 44.7256" fill="#EF3D3A"/>
<path fill-rule="evenodd" clip-rule="evenodd" d="M38.9388 16.4112C36.7544 15.905 35.6688 17.3262 35.005 18.8019C34.4144 18.6594 34.63 17.855 34.8175 17.4444C35.1925 16.3681 36.7863 14.9375 38.0725 15.1306C38.6275 15.215 39.3775 15.7212 38.9575 16.4112H38.9388ZM49.585 18.8806L49.6881 18.8844C50.1813 19.91 50.6256 20.9975 51.2313 21.8844C50.8131 22.8556 48.0719 23.7162 48.1131 21.9706C48.7056 21.7119 49.7294 21.9181 50.2563 21.5862C49.9525 20.7519 49.5138 20.0412 49.5813 18.8619L49.585 18.8806ZM40.0563 18.9256C40.525 19.7844 40.675 20.6881 41.3425 21.335C41.6425 21.6275 42.2238 21.9837 41.9369 22.7975C41.7321 23.1108 41.4383 23.3557 41.0931 23.5006C40.0525 23.8081 37.6244 23.5644 38.4681 22.2669C39.3306 22.3044 40.4856 22.8256 41.1306 22.2012C40.6356 21.4137 39.7563 19.8481 40.0806 18.9275L40.0563 18.9256ZM49.2119 27.6556C47.6444 28.6625 45.8969 29.7556 43.3281 29.5044C42.7788 29.0281 42.5706 27.9669 43.1031 27.2637C43.3806 27.74 43.2063 28.6194 43.9806 28.7506C45.4375 29 47.1344 27.86 48.1806 27.4606C48.8313 26.3637 48.1244 25.9606 47.5394 25.2556C46.3394 23.8119 44.7325 22.0194 44.7906 19.8556C45.2744 19.505 45.3156 20.3919 45.3869 20.5531C46.0131 22.0156 47.5881 23.8906 48.7375 25.1469C49.0188 25.4562 49.4875 25.7525 49.5363 25.9569C49.6863 26.5512 49.1481 27.2619 49.21 27.6575L49.2119 27.6556ZM28.5288 26.5944C28.0375 26.3131 27.9213 25.0794 27.3438 25.0437C26.5188 24.9931 26.6688 26.6469 26.6725 27.6125C26.1044 27.0969 26.005 25.5125 26.4213 24.6969C25.9469 24.4644 25.7331 24.9537 25.4706 25.1281C25.8081 22.6681 29.0706 24.0031 28.5269 26.5962L28.5288 26.5944ZM50.1925 28.6587C49.4425 30.0462 48.43 31.5762 46.2888 31.6212C46.2456 31.1712 46.2138 30.4906 46.2906 30.2206C47.9275 30.0631 48.9381 29.2306 50.1906 28.6587H50.1925ZM39.9344 29.5587C41.2994 30.2769 43.81 30.3537 45.6663 30.2994C45.7656 30.7062 45.7638 31.2087 45.7675 31.7056C43.3806 31.8237 40.5606 31.2369 39.955 29.5587H39.9344ZM39.6925 30.8975C40.6375 33.2694 43.8831 32.9975 46.6206 32.93C46.5006 33.2375 46.2381 33.6012 45.9138 33.7325C45.0363 34.1075 42.6175 34.3606 41.4006 33.7137C40.6281 33.3012 40.1331 32.375 39.7094 31.8312C39.5219 31.5687 38.4869 30.8975 39.6944 30.8937" fill="#231F20"/>
<path fill-rule="evenodd" clip-rule="evenodd" d="M49.0806 43.9981L45.5969 49.52C46.1481 47.9 46.3844 45.1887 46.4669 43.1187C47.62 42.5787 48.6081 43.2406 49.0806 44" fill="#81B0C4"/>
<path fill-rule="evenodd" clip-rule="evenodd" d="M55.0431 50.8194C53.8019 51.0669 52.93 52.2744 51.7206 52.1956C52.3863 51.2581 53.5506 50.8831 55.0431 50.8194V50.8194ZM55.5906 52.7619C54.5781 52.8687 53.3913 53.0319 52.3656 52.9494C52.8531 52.2069 54.7225 52.4619 55.5906 52.7619ZM55.9413 54.4344C54.805 54.4587 53.3913 54.4362 52.3113 54.3462C52.9488 53.66 55.2044 54.0912 55.9413 54.4344Z" fill="#231F20"/>
<path fill-rule="evenodd" clip-rule="evenodd" d="M46.9413 59.0169C47.1044 60.4419 47.6725 61.8912 47.5975 63.4531C46.9694 63.665 46.6075 63.8506 45.7656 63.8469L45.5819 59.2212C45.9944 59.2494 46.6075 58.925 46.9394 59.0337" fill="#DCD9D8"/>
<path fill-rule="evenodd" clip-rule="evenodd" d="M45.1094 37.9794C44.5394 38.3544 44.0519 38.8175 43.5044 39.2169C42.2894 39.2769 41.6256 39.1325 40.7331 38.435C40.7481 38.3787 40.8381 38.4031 40.84 38.3356C42.1413 38.9169 43.795 38.0994 45.1094 37.9794" fill="#F0D6B7"/>
<path fill-rule="evenodd" clip-rule="evenodd" d="M38.2787 46.8481C38.635 45.2994 40.0375 44.4969 41.3087 43.6419C42.6212 45.3106 43.42 47.4481 44.2994 49.5181C42.2219 48.8919 40.0994 47.8756 38.2806 46.8463" fill="#81B0C4"/>
<path fill-rule="evenodd" clip-rule="evenodd" d="M45.5856 59.2231C45.5331 60.4887 45.7094 62.5231 45.7694 63.8487C46.6131 63.8506 46.9731 63.665 47.6013 63.455C47.6725 61.8912 47.1063 60.4456 46.945 59.0187C46.6131 58.9306 46.0019 59.2531 45.5875 59.2062L45.5856 59.2231ZM32.4756 52.0231C33.0306 57.1269 33.835 61.3981 35.3106 65.9356C38.5844 66.9294 42.5294 67.0156 45.4244 66.1194C44.8938 63.5694 45.1244 60.4625 44.815 57.7381L44.38 51.545C40.8738 50.8137 35.9181 51.3762 32.4775 52.0175L32.4756 52.0231ZM45.2256 51.5825C45.1956 53.7762 45.3231 55.9362 45.4919 58.1319L47.6856 57.7494C47.4325 55.6362 47.4606 53.2587 46.945 51.3894C46.345 51.395 45.82 51.3819 45.2238 51.5825H45.2256ZM49.495 51.23C49.0956 51.1362 48.6325 51.2262 48.2481 51.2337L48.9981 56.8681C49.5981 56.8869 49.9169 56.6056 50.4138 56.5081C50.44 54.8619 50.2694 52.5931 49.4763 51.23H49.495ZM55.96 57.1362C57.2125 56.8325 57.9981 55.2987 57.6475 53.7237C57.4131 52.6662 56.995 50.6731 56.5469 49.9962C56.2169 49.4956 55.3188 48.8394 54.6025 49.2987C53.4363 50.045 51.3831 50.2625 50.5338 51.1644C50.9594 52.5837 51.0925 54.5319 51.2688 56.33C52.7256 56.42 54.5163 55.9287 55.7275 56.45C54.8838 56.7237 53.785 56.7256 53.0556 57.125C53.6519 57.4137 55.0506 57.3556 55.9619 57.1344L55.96 57.1362ZM44.32 49.5237C43.4388 47.4556 42.6419 45.3125 41.3294 43.6475C40.0581 44.5006 38.6575 45.3031 38.2994 46.8537C40.1181 47.885 42.2425 48.8975 44.3181 49.5256L44.32 49.5237ZM46.4875 43.1206C46.405 45.1887 46.1688 47.9019 45.6175 49.5219C46.93 47.8475 47.9931 45.8975 49.1013 44C48.6288 43.2425 47.6388 42.5806 46.4875 43.1187V43.1206ZM44.05 42.2469C43.5513 42.1906 43.1313 42.8187 42.4806 42.5469L42.0456 43.0494C43.4763 44.7744 44.1081 47.2194 45.2331 49.2444C45.8256 47.2981 45.7581 45.1662 45.8894 43.0419C45.0756 43.0944 44.6238 42.305 44.0519 42.245L44.05 42.2469ZM42.4694 40.1619C42.4169 40.7525 42.5538 40.9456 42.6719 41.6244C44.6125 42.2319 44.2731 38.9619 42.4694 40.1619ZM40.3169 39.455C39.3196 38.92 38.2515 38.5292 37.1444 38.2944C35.8056 38.0375 35.9313 40.1206 35.9875 41.3637C36.0325 42.3481 36.5444 43.3887 36.7656 44.0412C36.8706 44.3469 36.8931 44.6694 37.1538 44.7312C37.615 44.8381 39.1356 44.2306 39.5688 43.9944C40.4875 43.4937 41.1963 42.6819 41.9744 42.1681L42.0044 41.39C41.5356 41.1575 40.9956 40.9906 40.3075 40.9587C40.7763 40.7244 41.4588 40.7281 41.8825 40.4487L41.8938 40.1375C41.1175 40.0775 40.825 39.7325 40.3113 39.4531L40.3169 39.455ZM32.3294 38.0037C31.6356 38.7087 34.2756 39.6687 35.1175 39.7212C35.1119 39.275 35.3725 38.855 35.32 38.5344C34.3206 38.3581 33.0081 38.4744 32.3313 38.0037H32.3294ZM40.8794 38.3337C40.8756 38.4031 40.7856 38.3769 40.7725 38.4331C41.665 39.1306 42.3288 39.2769 43.5438 39.215L45.1488 37.9775C43.8363 38.0956 42.1806 38.9112 40.8794 38.3337V38.3337ZM48.7281 40.715C48.6906 39.9312 48.4844 38.3225 48.0006 38.0412C46.9844 37.4487 45.1788 39.2375 44.4156 39.5112C44.4981 39.7512 44.6369 39.9425 44.6463 40.2462C45.0963 40.1337 45.6494 40.2087 46.0413 40.4037C45.5875 40.4544 45.1038 40.4506 44.785 40.6662C44.6725 40.985 44.8113 41.4162 44.7381 41.8587C45.8144 42.1625 47.0444 42.3237 48.4038 42.365C48.6663 42.0219 48.76 41.3656 48.7281 40.715V40.715ZM31.1594 38.6862C30.9419 38.5306 29.4663 36.6125 29.2844 36.6912C26.6163 37.7412 24.1225 39.56 21.8931 41.285C24.0194 45.845 24.8744 51.4344 25.0281 56.8194C27.4656 57.9575 29.6031 59.6 32.9031 59.7706L31.9544 52.1056C31.1238 51.755 29.9331 52.1206 29.1569 51.9969C29.1494 51.0594 30.3438 51.5844 30.4431 50.9581C30.5181 50.4819 29.7869 50.4462 30.025 49.6962C30.6325 49.9175 30.9513 50.405 31.6 50.5869C32.1925 49.2931 31.5925 47.0019 31.675 45.8994C31.6938 45.6969 31.7763 44.7744 32.2319 44.9356C32.635 45.0781 32.2094 47.3919 32.2506 48.4137C32.2881 49.3569 32.1381 50.2887 32.5188 50.8625C35.7119 50.4275 38.9556 50.1462 42.4094 50.0525C41.65 49.7262 40.7463 49.415 39.7563 48.86C39.22 48.56 37.5288 47.9281 37.375 47.4162C37.1275 46.6044 38.0238 46.1712 38.1756 45.4756C36.5631 46.3569 36.25 44.6319 35.8694 43.4131C35.5244 42.3069 35.3256 41.4819 35.2431 40.8444C33.8556 40.1825 32.3706 39.5319 31.1744 38.6637L31.1594 38.6862ZM47.3163 36.9237C49.54 35.8456 49.9413 40.955 49.0694 42.5975C49.2044 43.0887 49.6694 43.2762 49.8569 43.7169L45.9756 50.21C46.9169 49.6231 48.2631 50.105 49.3506 49.6475C49.7556 49.4881 50.0481 48.56 50.3556 47.8194C51.1994 45.7794 52.0844 43.2069 52.4781 41.2569C52.5663 40.8125 52.81 39.8469 52.7556 39.4512C52.6581 38.7444 51.7 38.2194 51.2106 37.7637L48.8106 35.4912C48.43 36.0537 47.6144 36.4287 47.3031 36.8862L47.3163 36.9237ZM26.0388 17.2081C24.9794 18.3744 25.2006 20.5569 25.33 22.1112C27.2425 20.9075 29.785 22.205 29.7625 24.2544C30.6775 24.23 30.1038 23.1106 29.9388 22.3925C29.3988 20.0412 30.85 17.4875 30.0044 15.3369C28.3638 15.4606 27.0175 16.1319 26.0406 17.2081H26.0388ZM33.6175 10.4431C31.2175 11.1219 28.1463 12.8656 27.1619 15.0181C27.925 14.9056 28.4556 14.5231 29.2056 14.4556C29.4906 14.4369 29.8619 14.5756 30.19 14.4931C30.8406 14.3319 31.39 12.8712 31.8831 12.3275C32.3631 11.7969 32.9388 11.57 33.3325 11.0862C33.5856 10.9644 33.9606 10.9737 33.9738 10.5931C33.8613 10.475 33.7488 10.4056 33.5988 10.4056L33.6175 10.4431ZM46.0994 11.0806C43.6113 9.67999 39.3981 8.62437 36.7506 9.94249C34.6131 11.0075 31.7256 12.77 30.7413 15.005C31.66 17.1612 30.4694 19.1356 30.3925 21.3237C30.3513 22.4862 30.94 23.5044 30.985 24.7737C30.67 25.2931 29.71 25.355 29.0425 25.3212C28.8175 24.2 28.4238 22.94 27.2725 22.8125C25.6413 22.6344 24.445 23.9862 24.37 25.4C24.2819 27.0612 25.645 29.8156 27.58 29.6244C28.3263 29.5494 28.51 28.7994 29.3238 28.8087C29.7644 29.69 28.6431 29.9656 28.5288 30.5937C28.4988 30.7569 28.6225 31.3925 28.6938 31.6906C29.0444 33.1419 29.8281 35.0187 30.5988 36.1231C31.5775 37.5237 33.4975 37.7356 35.5675 37.8725C35.9369 37.0775 37.2963 37.1412 38.1831 37.3512C37.1219 36.9312 36.1338 35.9112 35.3144 35.0075C34.3769 33.9725 33.4206 32.8606 33.3738 31.5069C35.1494 33.9706 36.6175 36.1231 39.8463 37.2069C42.2894 38.0262 45.145 36.8319 47.0219 35.5119C47.8019 34.9644 48.2669 34.0944 48.8219 33.2994C50.8938 30.2994 51.8594 26.0619 51.6494 21.9369C51.5613 20.2362 51.565 18.5431 50.9931 17.3994C50.3969 16.2031 48.3794 15.1306 47.1981 16.2144C46.9788 15.0519 48.1806 14.3319 49.5906 14.7519C48.5856 13.4544 47.5281 11.8944 46.0994 11.0881V11.0806ZM50.7363 49.4562C52.6806 48.4887 56.3144 46.8537 57.535 49.46C57.985 50.42 58.5138 52.0437 58.7463 53.0356C59.0763 54.4344 58.3713 57.3744 56.9519 57.845C55.6825 58.2575 54.1994 58.235 52.6694 57.9275C52.4894 57.7775 52.2888 57.515 52.1481 57.245C51.055 57.2019 50.0331 57.3012 49.1706 57.7512C49.2531 58.5575 48.7056 58.6887 48.1956 58.8575C47.815 60.3631 48.955 62.33 48.6831 63.7025C48.4881 64.6812 47.2844 64.8312 46.4013 65.015C46.3731 65.5775 46.4388 66.0125 46.5006 66.4719C46.2981 67.2162 45.3906 67.6419 44.5319 67.7469C41.7044 68.0844 37.4106 68.24 34.6881 67.2594C33.9288 65.3975 33.3306 63.1344 32.7006 61.0062C30.0475 61.2875 27.9006 59.8625 25.8794 58.925C25.1781 58.6006 24.1919 58.4187 23.9481 57.8637C23.695 57.3237 23.7981 56.2887 23.7363 55.3137C23.5769 52.82 23.4363 50.4106 22.7988 47.855C22.5025 46.7075 21.9869 45.6987 21.6269 44.5925C21.295 43.5687 20.7138 42.305 20.5619 41.2812C20.3369 39.7681 21.7619 39.6837 22.6731 39.0275C24.0794 38.015 25.1856 37.4525 26.7138 36.5375C27.1638 36.2656 28.5288 35.6 28.6825 35.2625C28.99 34.6362 28.1538 33.7531 27.9325 33.2619C27.5763 32.4856 27.3944 31.8256 27.3438 31.0587C26.0631 30.8562 25.0938 30.095 24.5069 29.2362C23.5375 27.815 22.8644 25.1862 23.7044 23.1856C23.77 23.0281 24.0794 22.7169 24.1469 22.4769C24.2406 22.0006 23.9669 21.3669 23.95 20.8606C23.8619 18.26 24.3906 16.0231 26.14 15.2356C26.8525 12.4231 29.3931 11.4669 31.7894 10.0569C32.6856 9.53187 33.6719 9.19437 34.6919 8.81937C38.3481 7.47312 43.9619 7.72624 46.9975 10.0231C48.2838 10.9981 50.3425 13.0512 51.0775 14.5419C53.0219 18.47 52.8831 25.0362 51.5238 29.8156C51.3419 30.4569 51.0738 31.4 50.7063 32.1706C50.4475 32.7087 49.6469 33.7831 49.7444 34.2612C49.8438 34.7525 51.5725 36.065 51.9438 36.4231C52.6113 37.0662 53.8788 37.9231 53.9819 38.7331C54.0944 39.5956 53.6013 40.7806 53.3519 41.615L50.7644 49.4525" fill="#231F20"/>
<path fill-rule="evenodd" clip-rule="evenodd" d="M37.7613 30.1869C37.8663 30.0462 38.4475 29.8306 39.2613 30.2244C39.2613 30.2244 38.2994 30.3856 38.38 31.9869L37.9788 31.9062C37.9788 31.9062 37.5663 30.4512 37.765 30.185" fill="#F7E4CD"/>
<path fill-rule="evenodd" clip-rule="evenodd" d="M44.7906 43.9719C44.7906 44.2156 44.5937 44.4125 44.35 44.4125C44.1062 44.4125 43.9094 44.2156 43.9094 43.9719C43.9094 43.7281 44.1062 43.5312 44.35 43.5312C44.5937 43.5312 44.7906 43.7281 44.7906 43.9719ZM45.2294 46.0344C45.2294 46.2781 45.0325 46.475 44.7887 46.475C44.545 46.475 44.3481 46.2781 44.3481 46.0344C44.3481 45.7906 44.545 45.5938 44.7887 45.5938C45.0325 45.5938 45.2294 45.7906 45.2294 46.0344Z" fill="#1D1919"/>
</svg>
