<svg width="68" height="68" viewBox="0 0 68 68" fill="none" xmlns="http://www.w3.org/2000/svg">
<path d="M62.8698 31.3276L36.6742 5.13198C36.3155 4.77311 35.8896 4.48843 35.4208 4.2942C34.9521 4.09997 34.4497 4 33.9423 4C33.4349 4 32.9325 4.09997 32.4637 4.2942C31.995 4.48843 31.5691 4.77311 31.2104 5.13198L25.7729 10.5695L32.6729 17.4695C34.2779 16.907 36.1154 17.2914 37.3942 18.5701C38.0029 19.1799 38.4278 19.9486 38.6205 20.7884C38.8131 21.6283 38.7656 22.5053 38.4835 23.3195L45.1342 29.9701C46.7429 29.4151 48.5992 29.7732 49.8835 31.0614C50.3105 31.4884 50.6492 31.9954 50.8802 32.5534C51.1112 33.1114 51.2301 33.7094 51.23 34.3133C51.2299 34.9172 51.1109 35.5151 50.8797 36.073C50.6485 36.6309 50.3097 37.1378 49.8826 37.5648C49.4555 37.9918 48.9485 38.3304 48.3906 38.5614C47.8326 38.7925 47.2346 38.9113 46.6307 38.9112C46.0268 38.9111 45.4288 38.7921 44.8709 38.5609C44.313 38.3297 43.8061 37.9909 43.3792 37.5638C42.0292 36.2138 41.6954 34.2264 42.3779 32.5632L36.1754 26.3607V42.6826C36.6257 42.9054 37.0372 43.1992 37.3942 43.5526C37.8211 43.9796 38.1598 44.4864 38.3909 45.0443C38.6219 45.6021 38.7409 46.2 38.7409 46.8039C38.7409 47.4077 38.6219 48.0056 38.3909 48.5634C38.1598 49.1213 37.8211 49.6281 37.3942 50.0551C36.9672 50.4821 36.4603 50.8207 35.9025 51.0518C35.3446 51.2829 34.7467 51.4018 34.1429 51.4018C33.5391 51.4018 32.9412 51.2829 32.3834 51.0518C31.8255 50.8207 31.3186 50.4821 30.8917 50.0551C30.4642 49.6284 30.1251 49.1216 29.8937 48.5638C29.6623 48.0059 29.5432 47.4078 29.5432 46.8039C29.5432 46.1999 29.6623 45.6018 29.8937 45.044C30.1251 44.4861 30.4642 43.9793 30.8917 43.5526C31.336 43.1101 31.8292 42.7745 32.3973 42.5495V26.0757C31.8498 25.8507 31.336 25.5189 30.8917 25.0726C30.246 24.4278 29.8071 23.6053 29.6308 22.71C29.4545 21.8147 29.5488 20.8872 29.9017 20.0457L23.0954 13.2432L5.13291 31.187C4.77376 31.5457 4.48885 31.9717 4.29445 32.4406C4.10006 32.9095 4 33.4122 4 33.9198C4 34.4274 4.10006 34.93 4.29445 35.399C4.48885 35.8679 4.77376 36.2939 5.13291 36.6526L31.3304 62.8464C31.6891 63.2052 32.115 63.4899 32.5837 63.6841C33.0525 63.8784 33.5549 63.9783 34.0623 63.9783C34.5697 63.9783 35.0721 63.8784 35.5408 63.6841C36.0096 63.4899 36.4355 63.2052 36.7942 62.8464L62.8698 36.812C63.2289 36.4533 63.5139 36.0273 63.7083 35.5583C63.9026 35.0894 64.0027 34.5868 64.0027 34.0792C64.0027 33.5715 63.9026 33.0689 63.7083 32.6C63.5139 32.1311 63.2289 31.7051 62.8698 31.3464" fill="#F03C2E"/>
</svg>
