<svg width="76" height="76" viewBox="0 0 76 76" fill="none" xmlns="http://www.w3.org/2000/svg">
<path d="M30.2298 38C30.2282 37.0943 30.4051 36.1972 30.7506 35.36C31.0961 34.5227 31.6034 33.7619 32.2433 33.121C32.8832 32.48 33.6432 31.9716 34.4799 31.6248C35.3166 31.278 36.2134 31.0996 37.1191 31.0998C40.9254 31.0998 44.0302 34.2046 44.0302 38C44.0302 41.7954 40.9254 44.9002 37.1191 44.9002C35.292 44.894 33.5417 44.1646 32.2507 42.8716C30.9597 41.5786 30.2332 39.8271 30.2298 38V38ZM37.1209 9C23.5852 9 12.2462 18.28 9.0272 30.8062C9.00001 30.9004 9.00001 30.9784 9.00001 31.1016C9.00001 31.8556 9.61445 32.4991 10.3866 32.4991H22.0736C22.3384 32.5033 22.5985 32.4282 22.8204 32.2835C23.0422 32.1388 23.2158 31.9311 23.3188 31.6871C25.7348 26.4671 31.0038 22.8131 37.13 22.8131C45.5038 22.8131 52.3188 29.6281 52.3188 38.0109C52.3188 46.3937 45.5038 53.2087 37.1209 53.2087C31.0038 53.2087 25.7294 49.5837 23.3188 44.3347C23.0849 43.8725 22.6209 43.5227 22.0736 43.5227H10.3866C10.2043 43.522 10.0237 43.5573 9.85511 43.6268C9.68656 43.6962 9.53342 43.7983 9.40452 43.9272C9.27562 44.0561 9.17352 44.2092 9.10409 44.3778C9.03467 44.5463 8.99929 44.727 9.00001 44.9093C9.00001 45.0035 9.03626 45.0905 9.03626 45.2011C12.2281 57.72 23.5852 67 37.1209 67C53.1308 67 66.1209 54.0098 66.1209 38C66.1209 21.9992 53.1308 9 37.1209 9V9Z" fill="#6B6B6B"/>
</svg>
