<svg width="818" height="144" fill="none" xmlns="http://www.w3.org/2000/svg">
  <path d="M71.87.5v21.89l-.001.008-.002.056a17.466 17.466 0 00.004.96c.02.63.079 1.504.234 2.472.307 1.914 1.005 4.296 2.625 5.858 1.53 1.478 2.644 2.164 3.961 2.445.644.138 1.317.175 2.077.18.37.002.79-.004 1.247-.01a103.3 103.3 0 011.431-.013h22.639v94.225c0 3.954-1.628 7.749-4.53 10.55-2.904 2.802-6.845 4.379-10.958 4.379h-74.61c-4.113 0-8.054-1.577-10.957-4.379C2.127 136.32.5 132.525.5 128.571V15.429c0-3.954 1.627-7.75 4.53-10.55C7.933 2.077 11.874.5 15.988.5h55.881z" fill="#FAFAFA" stroke="#BBB"/>
  <path d="M78.038 25.272V1.946l26.601 26.6H81.313a3.274 3.274 0 01-3.275-3.274z" fill="#FAFAFA" stroke="#BBB"/>
  <path d="M53.383 56.276c-18.52-.008-33.52 15.013-33.52 33.552 0 14.661 9.383 27.123 22.451 31.7 1.76.442 1.49-.811 1.49-1.666v-5.815c-10.162 1.193-10.574-5.544-11.256-6.67-1.378-2.355-4.635-2.956-3.662-4.081 2.315-1.193 4.674.3 7.407 4.344 1.977 2.934 5.834 2.438 7.789 1.951a9.469 9.469 0 012.598-4.562c-10.53-1.891-14.918-8.328-14.918-15.98 0-3.715 1.22-7.129 3.617-9.882-1.527-4.54.143-8.426.367-9.004 4.351-.39 8.875 3.122 9.227 3.4 2.471-.668 5.295-1.021 8.455-1.021 3.175 0 6.006.368 8.5 1.043.846-.645 5.04-3.661 9.084-3.294.218.578 1.85 4.374.412 8.853 2.427 2.761 3.662 6.205 3.662 9.927 0 7.667-4.418 14.112-14.978 15.973a9.567 9.567 0 012.854 6.828v8.44c.06.675 0 1.343 1.123 1.343 13.263-4.479 22.812-17.031 22.812-31.82 0-18.546-15.009-33.56-33.514-33.56z" fill="#2B2B2B"/>
  <path d="M15.938 25.296c.601 0 1.065.172 1.392.518.327.337.49.763.49 1.277 0 .505-.163.926-.49 1.263-.327.328-.79.492-1.392.492-.574 0-1.03-.164-1.365-.492-.336-.328-.504-.75-.504-1.263 0-.514.163-.94.49-1.277.328-.346.787-.518 1.38-.518zm8.605-10.983l.092 1.502c1.008-1.179 2.387-1.768 4.137-1.768 1.918 0 3.23.735 3.937 2.207 1.043-1.472 2.51-2.207 4.402-2.207 1.582 0 2.757.438 3.526 1.316.778.878 1.176 2.172 1.194 3.883V28.7h-3.222v-9.361c0-.913-.199-1.583-.597-2.008-.397-.426-1.056-.638-1.975-.638-.734 0-1.335.2-1.803.598-.46.39-.782.904-.968 1.543l.013 9.866h-3.221v-9.468c-.044-1.693-.906-2.54-2.585-2.54-1.29 0-2.206.528-2.745 1.583V28.7h-3.222V14.313h3.037zM44.535 21.4c0-2.216.513-3.994 1.538-5.332 1.025-1.348 2.4-2.021 4.123-2.021 1.52 0 2.749.531 3.686 1.595V8.276h3.221V28.7h-2.916l-.16-1.49c-.963 1.17-2.249 1.755-3.857 1.755-1.68 0-3.04-.678-4.084-2.034-1.034-1.356-1.55-3.2-1.55-5.531zm3.222.279c0 1.463.278 2.606.835 3.43.566.816 1.366 1.224 2.4 1.224 1.317 0 2.28-.59 2.89-1.769v-6.143c-.592-1.152-1.547-1.728-2.864-1.728-1.043 0-1.847.416-2.413 1.25-.565.824-.848 2.07-.848 3.736z" fill="#6B6B6B"/>
  <path d="M141 109h10.503V82.514h14.956L180.599 109h11.964l-15.431-28.332c8.531-3.178 12.78-10.321 12.78-19.72 0-12.884-7.954-21.94-24.099-21.94H141V109zm10.503-35.577V48.064h13.188c10.367 0 14.65 4.956 14.65 12.885 0 7.894-4.283 12.474-14.514 12.474h-13.324zM202.692 109h44.052v-9.09h-33.549V78.48h30.863v-9.056h-30.863V48.098h33.141v-9.09h-43.644V109zm63.553 0l6.391-18.523h27.192L306.184 109h11.149l-25.051-69.993h-12.135L255.097 109h11.148zm9.45-27.41l10.265-29.869h.544l10.265 29.87h-21.074zM349.921 109c21.21 0 33.48-13.226 33.48-35.099 0-21.77-12.27-34.893-32.766-34.893h-23.25V109h22.536zm-12.033-9.228V48.235h12.101c15.227 0 23.079 9.16 23.079 25.666 0 16.576-7.852 25.871-23.725 25.871h-11.455zm58.574-60.764V109h9.993V58.317h.646l20.53 50.58h8.294l20.53-50.546h.645V109h9.994V39.007h-12.747l-22.161 54.409h-.816l-22.162-54.408h-12.746zM482.364 109h44.051v-9.09h-33.548V78.48h30.863v-9.056h-30.863V48.098h33.14v-9.09h-43.643V109zm111.827-73h-10.503v69.993h10.503V36zm36.472 71.052c12.338 0 20.326-7.45 21.448-17.669h-9.891c-1.292 5.673-5.677 9.022-11.489 9.022-8.6 0-14.14-7.21-14.14-18.66 0-11.244 5.642-18.318 14.14-18.318 6.458 0 10.401 4.101 11.489 9.022h9.891c-1.088-10.594-9.687-17.634-21.55-17.634-14.718 0-24.235 11.141-24.235 27.17 0 15.823 9.177 27.067 24.337 27.067zm54.308 0c14.718 0 24.337-10.834 24.337-27.067 0-16.337-9.619-27.17-24.337-27.17s-24.337 10.833-24.337 27.17c0 16.233 9.619 27.067 24.337 27.067zm.034-8.578c-9.619 0-14.106-8.442-14.106-18.524 0-10.047 4.487-18.591 14.106-18.591 9.551 0 14.038 8.544 14.038 18.591 0 10.082-4.487 18.524-14.038 18.524zm45.81-23.65c0-8.373 5.099-13.158 12.169-13.158 6.9 0 11.08 4.546 11.08 12.167v32.16h10.163v-33.39c0-12.987-7.103-19.788-17.776-19.788-7.852 0-12.985 3.656-15.398 9.227h-.646v-8.544h-9.755v52.495h10.163V74.824zm86.165-8.51c-2.107-8.168-8.463-13.5-19.748-13.5-11.795 0-20.156 6.255-20.156 15.55 0 7.451 4.486 12.407 14.276 14.594l8.837 1.948c5.031 1.128 7.376 3.383 7.376 6.664 0 4.067-4.317 7.246-10.979 7.246-6.084 0-9.993-2.632-11.217-7.793l-9.823 1.504c1.7 9.296 9.382 14.525 21.108 14.525 12.611 0 21.346-6.733 21.346-16.234 0-7.416-4.691-11.995-14.276-14.217l-8.293-1.914c-5.745-1.367-8.226-3.315-8.192-6.87-.034-4.032 4.317-6.903 10.095-6.903 6.322 0 9.245 3.52 10.435 7.04l9.211-1.64z" fill="#8B8B8B"/>
</svg>
