<svg width="76" height="76" viewBox="0 0 76 76" fill="none" xmlns="http://www.w3.org/2000/svg">
<path d="M8 8H68V68H8V8Z" fill="#F7DF1E"/>
<path d="M23.7762 58.1403L28.3676 55.3616C29.2536 56.9321 30.0594 58.261 31.9923 58.261C33.845 58.261 35.0133 57.5363 35.0133 54.7173V35.5459H40.6517V54.7969C40.6517 60.6369 37.2284 63.2951 32.2339 63.2951C27.7233 63.2951 25.1051 60.9591 23.776 58.1398" fill="black"/>
<path d="M43.7143 57.5361L48.3052 54.878C49.5139 56.8517 51.0847 58.3016 53.8634 58.3016C56.1999 58.3016 57.6896 57.1334 57.6896 55.5223C57.6896 53.5892 56.1591 52.9044 53.5815 51.777L52.1722 51.1723C48.1041 49.441 45.4058 47.266 45.4058 42.6746C45.4058 38.4455 48.6277 35.2234 53.6623 35.2234C57.2469 35.2234 59.8245 36.4721 61.677 39.7344L57.2867 42.5539C56.3199 40.8221 55.2732 40.1375 53.6621 40.1375C52.0107 40.1375 50.9635 41.1847 50.9635 42.5539C50.9635 44.2454 52.0107 44.9305 54.4271 45.9777L55.8366 46.5816C60.6296 48.6359 63.328 50.7301 63.328 55.442C63.328 60.5171 59.3408 63.2959 53.9841 63.2959C48.7484 63.2959 45.3652 60.7988 43.7141 57.5363" fill="black"/>
</svg>
