<svg width="76" height="76" viewBox="0 0 76 76" fill="none" xmlns="http://www.w3.org/2000/svg">
<path d="M24.9085 33.0307C24.9085 33.7692 24.9886 34.3679 25.1282 34.8069C25.3054 35.3008 25.5188 35.7811 25.7666 36.2436C25.8664 36.4032 25.9062 36.5628 25.9062 36.7027C25.9062 36.9021 25.7866 37.1017 25.5272 37.3013L24.2701 38.1394C24.0905 38.2592 23.9109 38.319 23.751 38.319C23.5516 38.319 23.352 38.2192 23.1524 38.0396C22.8835 37.7506 22.643 37.4366 22.4341 37.1017C22.2345 36.7627 22.0349 36.3832 21.8155 35.9244C20.2589 37.7601 18.3031 38.6783 15.9485 38.6783C14.2724 38.6783 12.9353 38.1992 11.9574 37.2415C10.9797 36.2834 10.4809 35.0063 10.4809 33.41C10.4809 31.7138 11.0795 30.3369 12.2968 29.2992C13.5139 28.2615 15.1305 27.7427 17.1859 27.7427C17.8643 27.7427 18.5628 27.8025 19.301 27.9023C20.0395 28.0021 20.7978 28.1617 21.5961 28.3413V26.8846C21.5961 25.3679 21.2766 24.3104 20.6579 23.6917C20.0195 23.0731 18.9418 22.7736 17.4053 22.7736C16.7068 22.7736 15.9886 22.8537 15.2501 23.0333C14.5118 23.2127 13.7933 23.4323 13.0949 23.7117C12.7757 23.8513 12.5362 23.9311 12.3964 23.9712C12.2568 24.0112 12.157 24.031 12.0772 24.031C11.7978 24.031 11.6582 23.8313 11.6582 23.4123V22.4344C11.6582 22.1152 11.6982 21.8758 11.7978 21.7362C11.8976 21.5963 12.0772 21.4567 12.3566 21.3171C13.0551 20.9579 13.8932 20.6584 14.8708 20.419C15.849 20.1596 16.8866 20.04 17.9841 20.04C20.359 20.04 22.0951 20.5786 23.2126 21.6564C24.3101 22.7338 24.869 24.3702 24.869 26.5654V33.0307H24.909H24.9085ZM16.8066 36.064C17.4653 36.064 18.1437 35.9444 18.862 35.7048C19.5805 35.4654 20.2191 35.0263 20.7578 34.4277C21.0772 34.0486 21.3166 33.6296 21.4362 33.1506C21.556 32.6717 21.6358 32.0929 21.6358 31.4144V30.5763C21.0307 30.429 20.4177 30.3158 19.7999 30.2371C19.1777 30.1581 18.5512 30.1181 17.9241 30.1173C16.587 30.1173 15.6093 30.3767 14.9509 30.9156C14.2922 31.4544 13.973 32.2127 13.973 33.2103C13.973 34.1482 14.2124 34.8467 14.7112 35.3258C15.1903 35.8246 15.8887 36.064 16.8066 36.064ZM32.8308 38.2192C32.4716 38.2192 32.2322 38.1594 32.0726 38.0196C31.913 37.9 31.7731 37.6205 31.6535 37.2415L26.9641 21.816C26.8441 21.4167 26.7843 21.1573 26.7843 21.0177C26.7843 20.6985 26.9439 20.5186 27.2633 20.5186H29.2189C29.5979 20.5186 29.8576 20.5786 29.9972 20.7182C30.1568 20.8381 30.2766 21.1175 30.3962 21.4965L33.7487 34.7071L36.8618 21.4965C36.9616 21.0975 37.0814 20.8381 37.2408 20.7182C37.4006 20.5987 37.6801 20.5188 38.0393 20.5188H39.6356C40.0146 20.5188 40.2743 20.5786 40.4337 20.7182C40.5935 20.8381 40.7331 21.1175 40.8129 21.4965L43.966 34.8667L47.4181 21.4965C47.5377 21.0975 47.6775 20.8381 47.8171 20.7182C47.9767 20.5987 48.2362 20.5188 48.5954 20.5188H50.4511C50.7706 20.5188 50.9502 20.6785 50.9502 21.0177C50.9502 21.1175 50.9302 21.2173 50.9102 21.3369C50.8902 21.4567 50.8504 21.6163 50.7706 21.836L45.9611 37.2613C45.8415 37.6606 45.7019 37.92 45.5421 38.0396C45.3825 38.1594 45.1231 38.2392 44.7841 38.2392H43.0679C42.6887 38.2392 42.4293 38.1794 42.2694 38.0396C42.1098 37.9 41.9702 37.6406 41.8904 37.2415L38.7971 24.3702L35.724 37.2213C35.6245 37.6205 35.5046 37.88 35.345 38.0196C35.1854 38.1594 34.906 38.2192 34.547 38.2192H32.8306H32.8308ZM58.4735 38.7581C57.4358 38.7581 56.3981 38.6382 55.4004 38.3988C54.4025 38.1594 53.6245 37.8997 53.1056 37.6008C52.7862 37.4209 52.5665 37.2215 52.487 37.0419C52.4093 36.8658 52.3685 36.6756 52.3672 36.483V35.4654C52.3672 35.0463 52.5268 34.8467 52.8262 34.8467C52.9484 34.8471 53.0697 34.8674 53.1854 34.9067C53.305 34.9467 53.4847 35.0263 53.6843 35.1061C54.3891 35.4161 55.1249 35.6503 55.8793 35.8046C56.6609 35.9632 57.4565 36.0434 58.2541 36.044C59.5112 36.044 60.4891 35.8246 61.1675 35.3856C61.846 34.9465 62.2052 34.3081 62.2052 33.4898C62.2052 32.9312 62.0256 32.4721 61.6664 32.0929C61.3071 31.7138 60.6287 31.3746 59.651 31.0552L56.7573 30.1573C55.3006 29.6982 54.2231 29.0198 53.5645 28.1217C52.906 27.2436 52.5668 26.2659 52.5668 25.2283C52.5668 24.3902 52.7464 23.6517 53.1056 23.013C53.4646 22.3746 53.9437 21.816 54.5424 21.3769C55.141 20.9179 55.8195 20.5786 56.6177 20.3392C57.4158 20.0998 58.2539 20 59.1319 20C59.571 20 60.03 20.02 60.4691 20.0798C60.9281 20.1396 61.3472 20.2194 61.7662 20.2992C62.1652 20.399 62.5445 20.4988 62.9037 20.6187C63.2629 20.7383 63.5421 20.8581 63.7418 20.9777C64.0212 21.1375 64.2206 21.2971 64.3404 21.4767C64.4602 21.6363 64.52 21.8557 64.52 22.1352V23.0731C64.52 23.4921 64.3604 23.7117 64.061 23.7117C63.9014 23.7117 63.6419 23.6317 63.303 23.4721C62.1652 22.9532 60.8881 22.6938 59.4714 22.6938C58.3339 22.6938 57.4358 22.8734 56.8171 23.2527C56.1987 23.6317 55.8793 24.2106 55.8793 25.0286C55.8793 25.5875 56.0789 26.0663 56.4779 26.4456C56.8772 26.8246 57.6154 27.2038 58.6731 27.5431L61.5068 28.4411C62.9435 28.9002 63.9812 29.5386 64.5998 30.3567C65.2185 31.175 65.5179 32.1129 65.5179 33.1506C65.5179 34.0086 65.3381 34.7869 64.9989 35.4654C64.6399 36.1438 64.1608 36.7425 63.5421 37.2215C62.9235 37.7204 62.1852 38.0796 61.3271 38.339C60.4291 38.6185 59.4912 38.7581 58.4735 38.7581V38.7581Z" fill="#6B6B6B"/>
<path d="M62.245 48.4563C55.6798 53.3055 46.141 55.8798 37.9395 55.8798C26.445 55.8798 16.0884 51.6292 8.26587 44.5649C7.64721 44.0063 8.20584 43.2481 8.94409 43.6869C17.4052 48.5961 27.842 51.5694 38.6379 51.5694C45.9216 51.5694 53.9237 50.0529 61.2873 46.9398C62.3848 46.4407 63.3227 47.6583 62.245 48.4563V48.4563ZM64.9791 45.3432C64.141 44.2657 59.4314 44.8244 57.2962 45.0838C56.6575 45.1638 56.5577 44.605 57.1366 44.1859C60.8881 41.5517 67.0545 42.3102 67.7727 43.188C68.4912 44.0861 67.5731 50.2523 64.061 53.2057C63.5223 53.6648 63.0035 53.4254 63.2429 52.8267C64.041 50.8509 65.8171 46.4009 64.9791 45.3432V45.3432Z" fill="#FF9900"/>
</svg>
