<svg width="76" height="76" fill="none" xmlns="http://www.w3.org/2000/svg">
  <path d="M30.025 25.872l-3.974.645-3.626 1.59-3.08 1.937-2.93 3.576-1.656 1.754-1.601.59-.423-1.035.74-1.069.167-1.507.495.02.542.495-.146-1.535-.6-.404.018-.585-1.423.805-1.288 1.52-.27 1.359.552 1.088.514 1.848 1.045.495 1.1-.054 1.042-.606-.696 3.527.696 3.924-.766 1.811-2.507 2.702.446 1.614 1.187 1.87 2.24 1.576 1.188.163 1.32.044-.824 3.383 3.03 1.241 3.775.497 1.292-.844.099-2.285 1.44-2.384.1-1.888 3.477.25 3.229-.298-3.229 1.937.547 2.334 2.036 3.18 1.987.843 1.59-.645.645-1.292 3.328-2.533.645.546 5.216.2 1.043-.845.1-1.49-.348-.646-.249-4.023-1.738-3.477.298-1.54 1.043.547 2.93 2.731 1.44.1 1.59-.646 1.59-1.192.795-2.583 4.669.298 2.831-1.093 2.285-2.136 1.639-3.08.397-3.625-.348-4.222-.894-3.775-.894-1.192-1.241-.398-2.186 2.384-1.987.696-1.738-2.881-1.739-1.59-.944-.595-3.775-3.13-3.03-1.639-3.03-.248-3.526.596-3.08 1.142-2.135 1.739-1.689 2.036-1.738.497-3.03 2.88" fill="#FF0"/>
  <path d="M18.5 34.836c-3.404 3.97-2.648 8.785-1.704 13.503l-1.51-3.816-.557-3.499.159-3.577 1.43-3.418 2.147-3.18 3.339-2.782 3.657-1.51L29.754 26l-3.975 4.531c-3.192 1.035-5.074 1.733-7.28 4.305" fill="#FFC"/>
  <path d="M34.523 22.74c-2.366 2.309-3.658 4.05-5.164 6.753-1.077 1.934-2.285 3.796-3.418 5.703-.573.965-.627 1.774-.798 2.887l-1.67-1.987.795-2.385 2.703-4.85 5.724-5.644c.61-.159 1.22-.317 1.828-.477m11.687-5.723c-1.896.71-5.043.944-5.261 3.12-.156 1.544.116 2.32 1.047 3.955-2.3-2.38-2.869-2.012-7.313-1.272l1.907-2.703 3.34-2.067 4.292-.954 1.988-.08" fill="#FFC"/>
  <path d="M51.44 46.44c.63.39.617.672.511.939.498-.2.995-.399 1.493-.597l.968-1.3.717-1.85-.917-.69-4.01.512-.299.81.086 1.152.384.683.597.299.47.042m-.374-6.857c-2.01.58-1.994.74-2.588 2.734.784-1.257 1.364-1.892 2.588-2.734zM64.431 24.66c-.357.165-.705.244-.928.571-.481.704-.894 1.295-1.689 1.79-.4.248-.814.41-1.24.542-.351.11-.563.011-.863.227l.534.093h1.177l1.45-.895.853-.896.706-1.432m-32.018 4.46c-.79 2.164-1.482 4.02-2.68 5.978 1.535-1.654 2.466-3.06 3.345-4.93.341-.726.406-1.578 1.357-1.261.043.726.196 1.45.239 2.175.514-3.683 1.963-5.224 5.332-6.654l-2.858.341-2.688.597-1.322 1.92-.725 1.834m6.527-.085c.726 3.42 1.773 6.702 2.227 10.176.295 2.257.327 3.341-.808 5.289-1.242-.08-2.012.06-3.213.453-4.78 1.567-7.521 3.87-10.741-.771l3.084 1.453 2.198-.432 3.883-2.26 3.029-.598.98-4.095-.725-5.418-.085-2.56.17-1.237m8.234 21.159c-.401 2.779.925 4.272.376 5.04-.156.216-.367.596-.602.7-.84.37-1.995-.07-2.077.147h-2.773l-1.11-.469 1.707-2.005 1.664-3.626 1.066-3.669h.555l1.194 3.882" fill="#CC0"/>
  <path d="M42.513 42.118c.225 1.261.616 1.56 1.21 2.782-.395 1.992-1.03 4.36-1.794 6.119-.322.741-.581 1.15-1.15 1.723a29.622 29.622 0 01-3.014 2.65c-.782.602-1.328.3-2.294.163-.41.745-.524 1.158-1.28 1.536-1.162.58-2.201-.67-3.114-1.408l1.976 3.086 1.365 1.28 1.152.17 1.535-.938.811-1.536 1.706-1.28 2.09-1.792 1.323-1.877 1.194-2.218 1.537-4.607.127-1.75-1.92-.852c-.469-.441-.991-.81-1.46-1.251m-15.305 8.887c2.153 0 4.427-.12 6.4-1.024a17.574 17.574 0 011.791-2.26c-.621 1.173-.816 1.836-.981 3.156l-.64.938-4.863.129-1.579-.171a39.303 39.303 0 00-.17-.171l.042-.597m-.298-1.493l-.167-1.515c-.368 2.214-.28 3.698-1.299 5.682-.761.881-1.698 1.684-2.772 2.114.091.543.118.883.065 1.282-.189 1.434-3.057.8-4.238.743l5.68 1.463 1.28-.512.427-2.474 1.194-2.218.214-1.366-.384-3.199m-3.2-12.5c-.06 1.077-.129 1.526.346 2.477.604 1.208 1.345 2.344 2 3.538l.214-2.389-2.56-3.625m-8.757 8.132l-.554 1.18c.508 1.712.96 2.796 1.928 4.292-.169.606-.295.87-.683 1.364a15.277 15.277 0 00-2.47-.166l2.858 2.219 1.407-.256 1.408-1.408-2.005-3.114-1.889-4.11m49.484-21.053c.58 2.61 1.33 5.02 1.26 7.694-.086 3.28-.725 7.423-3.764 9.401-3.404 2.215-7.4 1.167-11.134.218l4.565 1.877 4.266.214 2.9-.853 2.262-1.878 1.706-3.583.64-4.138-.512-4.053-.938-4.01-1.25-.889m-50.794 7.781c-1.545 1.005-2.152 1.447-1.983 3.311l.462 1.675.655.443.808.27 1.463-.348.75-2.329-2.078 1.02h-.481l-.54-.827.655-.963.347-1.828.443.134.539.423-.077-.962-.366-.616-.366-.308-.231.905M48.31 17.187c1.372 1.273 3.055 2.38 4.152 3.936.424.602.896.91-.007 1.762.954-.273 1.309-.243 2.073-.15 1.39.168 2.692 2.143 2.775 3.559-.016.132-.386.433-1.46.73-.021.041-.607-.08-.592-.04.111.305.26.352.489.494.049.34.08.865.312 1.236a9.379 9.379 0 012 .193c.222.37.189.74.17 1.11l.768-.129-.213-1.749.682-1.151-.981-2.219-1.877-1.792-.18-.009-2.112-1.295-3.443-2.817-2.556-1.67m2.31 10.512c-.072.126-.181.328-.321.468.571.54.853.902 1.057 1.667l-1.937.961-1.64 1.572c-.719-.387-.898-.685-1.246-1.423-.405.108-.79.211-1.124.088.213.002.343-.051.555-.183l1.043-1.083 1.842-1.395 1.206-.393c.154-.064.412-.216.566-.28" fill="#CC0"/>
  <path d="M52.403 29.625c-2.055 1.106-4.022 2.218-5.072 4.319 0-2.667 2.677-3.84 5.072-4.32m-5.48-5.244c-1.526 1.04-2.604 3.138-2.469 5.184-.497-1.771-.32-3.445 1.205-4.669l.772-.375.492-.14" fill="#CC0"/>
  <path d="M67.451 29.209c-.277-1.745-.735-3.438-1.372-4.656a1.825 1.825 0 00-.34-.443 3.511 3.511 0 00-1.268-.774c-.513-.176-1.053-.212-1.482.012a1.232 1.232 0 00-.307.228c-.278.28-.512.623-.747.965-.26.382-.523.765-.837 1.033-.364.312-.82.5-1.249.673a8.464 8.464 0 00-.65-1.263 12.061 12.061 0 00-.996-1.346 5.516 5.516 0 00-.91-.868 13.096 13.096 0 00-1.02-.682c-1.014-.636-1.878-1.393-2.759-2.166a52.69 52.69 0 00-1.2-1.032c-2.097-1.73-4.054-2.568-6.146-2.7-2.079-.13-4.273.44-6.864 1.531-1.25.527-2.18 1.149-2.988 1.897-.773.714-1.43 1.538-2.15 2.499-.42.03-.791.092-1.17.243-.42.168-.84.439-1.344.884a30.953 30.953 0 00-1.94 1.866c-2.358.38-4.28.798-6.002 1.464-1.76.682-3.311 1.62-4.905 3.033-.627.554-1.2 1.168-1.708 1.834a13.52 13.52 0 00-1.263 2.006c-.319.353-.638.709-.984 1.02-.337.304-.696.56-1.099.714-.234.09-.33.143-.341.14-.012-.007-.018-.042-.035-.106.578-.552.67-1.363.723-2.168.069.083.136.185.205.292.076.118.154.24.248.358l.393.495.138-.617c.115-.518.202-1.208.067-1.805-.087-.388-.267-.734-.58-.979l.085-.221c.099-.252.2-.51.287-.755l.17-.484-.507.088c-.673.117-2.12.912-3.14 1.97-.379.393-.704.827-.918 1.283-.222.474-.322.97-.235 1.467.075.434.292.86.686 1.262.072.29.139.541.21.768.081.258.168.489.278.716.297.617.77.994 1.317 1.17.44.141.927.148 1.404.044a12.824 12.824 0 00-.175 1.719c-.03.805 0 1.694.088 2.726a14.484 14.484 0 00.2 1.43l-.269.73-.416 1.134-.916.908-.856.847c-.023.024-.12.116-.207.2-.577.556-.692.667-.528 1.645.105.626.31 1.231.606 1.793.283.54.664 1.066 1.152 1.556.61.61 1.608 1.37 2.654 1.767.598.227 1.214.338 1.792.245-.03.09-.058.178-.09.267-.092.254-.194.504-.305.75-.71 1.555.018 2.367 1.152 2.884.566.258 1.239.433 1.864.596l.417.11c.74.2 2.02.568 3.19.642 1.276.08 2.426-.183 2.735-1.328.122-.454.193-.801.221-1.142a5.71 5.71 0 00-.02-1.03c.364-.806.518-1.033.784-1.422l.134-.198c.285-.422.419-.722.467-1.06.047-.326.007-.65-.052-1.147a12.319 12.319 0 00-.026-.207 18.232 18.232 0 003.33.123l-.29.15-.138.07c-.985.507-1.026 1.467-.718 2.454.278.89.85 1.8 1.21 2.353.754 1.163 1.474 2.148 2.348 2.682.915.561 1.96.628 3.31-.103.687-.372.904-.75 1.195-1.262.09-.156.188-.325.298-.493.283-.188.99-.77 1.683-1.343.236-.196.471-.39.737-.606.184.134.405.228.672.292.348.083.761.12 1.257.156.371.027 1.58.026 2.363.026h.562c.807.006 1.458-.037 1.95-.316.525-.297.836-.824.904-1.768.03-.42.035-.679-.024-.943-.054-.247-.16-.471-.343-.8l-.032-1.224-.035-1.3a5.897 5.897 0 00-.174-1.333 8.826 8.826 0 00-.445-1.263 21.297 21.297 0 01-.347-.892l-.283.104.044-.016.24-.088a14.098 14.098 0 00-.569-1.373c.015-.092.03-.19.045-.295l.45.434.663.639c.506.487.968.93 1.512 1.25.562.332 1.193.524 2.011.485.857-.04 1.773-.4 2.527-.957.73-.54 1.316-1.266 1.56-2.07l.212-.697.17-.557c1.2.203 2.49.27 3.735.139 1.201-.127 2.362-.432 3.363-.966 1.471-.785 2.574-1.942 3.367-3.315.886-1.535 1.383-3.343 1.571-5.204.151-1.493.069-3.522-.242-5.478zm-15.56 12.543c-.692-.233-1.173-.573-1.78-.956.165.746.24 1.535.02 2.28-.35 1.181-.915 3.114.69 3.471.61.136.887.116 1.749-.329-.698.158-1.05.12-1.529.03-.434-.08-.665-.355-.786-.68.152.109.4.168.822.27 1.19.287 2.323-.286 2.544-1.11.13-.482.108-.735.382-1.392.246.076.5.145.761.209l-.442 1.44c-.382 1.248-1.872 2.253-3.186 2.23-1.216-.021-1.987-.783-2.826-1.53a763.214 763.214 0 00-1.686-1.494c-1.512-.477-2.725-1.035-4.13-2.074 1 1.174 1.678 1.824 3.071 2.409-.202 2.067-.92 3.574-1.533 5.553-.278.894-2.466 4.479-3.073 4.828-.432.25-3.141 2.53-3.65 2.832-.38.504-.713 1.2-1.284 1.502-1.738.92-2.856-.841-3.791-2.328-.426-.677-1.61-2.628-.578-3.175.975-.516 1.521-.885 2.516-1.538.146.266.397.523.56.79l-.108-.874a6.874 6.874 0 01-.021-1.486l.121-1.541c-.15.522-.448 1.044-.598 1.566-.06.21-.11.378-.138.535a17.58 17.58 0 01-6.68.086 41.64 41.64 0 00-.462-2.306c-.044.692-.016 2.604-.02 3.674-.002.83-.037 1.114-.465 1.819-.4.66-.57.81-1.13 1.927.047.704.047 1.17-.14 1.837-.31 1.112-3.45.25-4.278.024-1.02-.279-3.127-.694-2.597-2.053.466-1.196.762-2.458.99-4.132-1.868-2.691-3.605-6.379-3.939-9.647-.259-2.537-.103-4.098.446-5.65.87-2.46 2.087-4.588 4.04-6.302 2.634-2.312 5.096-3.24 8.952-3.827-.927 1.038-1.844 2.136-2.844 3.313-1.012 1.19-1.614 2.394-2.256 3.698-.888 1.8-.869 2.484.308 4.064 1.014 1.362 1.561 1.975 2.004 3.307-.365.754-.498 1.391-.621 2.42 1.242 1.358 2.165 2.288 3.37 2.575 1.183.28 2.17.226 3.229-.315 2.35-1.2 4.524-2.752 7.176-2.817 1.226-3.015 1.102-5.534.513-8.451-.402-1.993-.563-3.88-.688-5.91-.497 2.091-.59 3.93-.222 6.015.445 2.51.79 5.285-.447 7.492-2.397.183-4.451 1.642-6.612 2.76-.868.45-1.772.494-2.734.23-.892-.245-1.494-.835-2.455-1.944-.015-1.113.236-1.626.747-2.634.821-1.62 1.728-3.126 2.722-4.719-1.218 1.47-2.372 2.699-3.33 4.177-.367-1.044-.89-1.574-1.759-2.75-.848-1.148-.936-1.65-.302-2.98.637-1.335 1.178-2.508 2.263-3.68 1.874-2.024 3.591-4.277 5.641-6.27 1.113-1.083 1.565-1.045 3.041-1.269a51.95 51.95 0 003.998-.774c-1.316.123-2.588.168-3.87.2h-.04c1.262-1.61 1.993-2.506 4.04-3.396 5.041-2.19 8.244-2.426 12.204.902 1.026.863 1.923 1.7 2.963 2.445a3.76 3.76 0 00-1.132.269c.523-.1 1.127-.001 1.67.098.153.1.31.196.47.29.735.433 1.152.672 1.649 1.364a14.73 14.73 0 011.348 2.269c-.253-.09-.465-.167-.654-.223a1.407 1.407 0 00-1.325.082l-.03.014c-.407.198-1.037.424-1.458.492.215.074.69.102.914.013a.669.669 0 01.092-.028 1.406 1.406 0 00-.037 1.36l.001.002c.038.09.091.172.15.232-.193.07-.39.152-.593.24.94-.143 1.787-.168 2.704-.047.06.289.121.595.178.907l-.341.026-.027.003c-.434-.347-.917-.289-1.578-.138-2.008.458-1.536 1.585-2.46 3.282.96-1.172.888-2.399 2.451-2.77.364-.085.613-.193.86-.156-.445.223-.828.593-.98 1.023-.43 1.211-.163 2.232-.635 3.364.584-1.012.62-2 1.142-3.064.187-.382.883-.994 1.31-1.003l.351-.008c.103.673.166 1.342.126 1.897-.073 1.012-.336 2.514-.493 3.089.529-.68.77-2.12 1.002-3.134.242-1.055.18-2.321-.031-3.455-.29-1.556 1.312-1.303 2.242-2.036.683-.539 1.154-1.4 1.78-2.01.623-.604 1.602.285 1.846.876 1.06 2.565 1.543 6.601 1.264 9.188-.315 2.902-1.716 6.07-4.276 7.499-3.263 1.82-7.11.708-10.352-.384zm-4.636 12.89c-.106 1.197-.505 1.275-1.557 1.257-.477-.008-2.38-.017-2.862-.058-.682-.06-1.066-.12-1.274-.276 1.072-.786 2.892-4.034 3.247-5.152.376-1.181.787-2.212 1.092-3.304.141.457.252.909.456 1.393.342.81.51 1.31.534 2.18l.077 2.75c.293.513.34.623.287 1.209zM15.007 45.57c.68 2.354 1.84 4.667 3.124 6.612v.034c-.08.334-.173.66-.369.92-.918 1.23-3.255-.574-3.931-1.264-.74-.755-1.234-1.649-1.352-2.487-.086-.612-.002-.627.424-1.06l1.726-1.746.378-1.009zm-1.3-14.803c-.174.375-.298.658-.382.95-.366 1.266.166 2.395-.983 3.312.54 1.089.515 1.523 1.77 1.02a4.122 4.122 0 001.24-.788 23.259 23.259 0 00-.546 1.593c-.898.381-2.08.623-2.531-.32-.22-.458-.344-.908-.504-1.487-1.478-1.532.732-3.554 1.936-4.28zm.727 1.623c-.183-.183-.329-.306-.565-.28a3.464 3.464 0 01.145-.658c.306.179.386.502.42.938zm44.339-5.722c.055.118.11.237.164.359a1.536 1.536 0 00-.127.103 1.427 1.427 0 00-.31-.454l.273-.008zm-42.69 6.954zm11.367 18.54zm13.327 3.98zm5.416-10.296zM13.86 35.463l-.01-.026.01.026zm51.997 4.275l.007.004-.007-.004zM8.642 35.095c.236-2.664.754-3.815 2.646-5.82-2.374 1.673-2.966 2.434-2.646 5.82" fill="#000"/>
  <path d="M8.03 32.919c.261-1.2.505-1.652 1.244-2.636-1.2.838-1.355 1.182-1.244 2.636m27.855-16.716c-1.422.343-1.693.606-2.12 2 .68-1.02 1.073-1.353 2.12-2" fill="#000"/>
  <path d="M38.128 16c-2.82.692-3.65 1.183-4.587 4.453 1.191-2.395 2.093-3.276 4.587-4.453m6.076 11.92c.301-1.333.835-2.616 2.904-3.61-2.742.687-3.256 1.84-2.904 3.61m17.449.092c1.624-.58 2.407-1.885 2.796-3.421-.636 1.287-1.617 2.364-2.95 3.024-.714.354-1.171.23-1.97.154.813.234 1.327.527 2.124.243zM50.59 29.317a1.845 1.845 0 00-1.034-.94c.398-.212.79-.435 1.095-.713-.895.414-1.936.313-2.703.831-.675.456-1.608 1.903-2.295 2.517.497-.194.977-.528 1.418-.88a1.84 1.84 0 00.99 1.618 4.15 4.15 0 00-.6 1.095c1.308-1.55 3.204-2.72 4.986-3.22a5.31 5.31 0 00-1.689.283 1.835 1.835 0 00-.168-.59m-1.881 11.709c-.064.401-.151.9-.215 1.301.17-.454.375-.982.572-1.415.21-.458.328-.501.772-.743.316-.172.888-.407 1.203-.579-.324.055-.905.174-1.23.228-.866.147-.968.355-1.102 1.208M33.91 25.534c-1.005.994-1.981 4.404-2.293 5.769.491-1.134 1.721-4.305 2.665-5.111.26-.223.443-.36.638-.46-.675 1.133-.626 1.415-.389 2.933.202-1.543.735-2.14 1.61-3.29.96-.24 1.858-.53 2.843-.913-1.11.125-2.219.24-3.33.345-.932.088-1.082.074-1.744.727" fill="#000"/>
  <path d="M47.608 31.34a.772.772 0 111.437-.554 4.898 4.898 0 00-.985.965.842.842 0 01-.453-.412m8.587-3.321a.569.569 0 011.01-.313.58.58 0 01.078.613 5.02 5.02 0 00-.881.245c-.125-.128-.225-.362-.208-.545" fill="#FFC"/>
</svg>
