<svg width="76" height="76" viewBox="0 0 76 76" fill="none" xmlns="http://www.w3.org/2000/svg">
<path d="M8 38V68H68V8H8V38Z" fill="#007ACC"/>
<path d="M21.2682 38.1992L21.2492 40.6562H29.0586V62.8468H34.5828V40.6562H42.3922V38.2468C42.3922 36.9132 42.3636 35.799 42.3256 35.7704C42.297 35.7324 37.5446 35.7132 31.7827 35.7228L21.297 35.7514L21.2684 38.199L21.2682 38.1992Z" fill="white"/>
<path d="M56.4141 35.6816C57.9378 36.0627 59.0998 36.7386 60.1665 37.8434C60.7189 38.4341 61.5378 39.5103 61.6046 39.7674C61.6234 39.8436 59.0141 41.596 57.4332 42.5769C57.376 42.6151 57.1473 42.3673 56.8902 41.9863C56.1188 40.8627 55.3093 40.3768 54.0711 40.2913C52.2523 40.1673 51.0807 41.1198 51.0903 42.71C51.0903 43.1769 51.1569 43.453 51.3474 43.8341C51.7475 44.6626 52.4902 45.1578 54.8237 46.1673C59.1188 48.0151 60.9568 49.2341 62.0998 50.9673C63.376 52.9009 63.6617 55.9864 62.795 58.2816C61.8427 60.7768 59.4809 62.4723 56.1568 63.0341C55.1284 63.215 52.6904 63.1864 51.5856 62.9865C49.1762 62.5578 46.8903 61.3674 45.4808 59.8055C44.9284 59.1959 43.8521 57.6055 43.9189 57.4911C43.9475 57.4531 44.195 57.3008 44.4711 57.1388C44.7378 56.9865 45.7475 56.4052 46.6998 55.853L48.4236 54.853L48.7855 55.3864C49.2903 56.1577 50.3949 57.215 51.0617 57.5673C52.9759 58.577 55.6046 58.434 56.8998 57.272C57.4522 56.7673 57.6807 56.2435 57.6807 55.472C57.6807 54.7768 57.5949 54.4721 57.2331 53.9485C56.7666 53.2817 55.8141 52.7197 53.1092 51.5485C50.0141 50.2149 48.6807 49.3864 47.4617 48.072C46.757 47.3103 46.0902 46.0911 45.8141 45.072C45.5856 44.2245 45.5281 42.1006 45.7093 41.2435C46.3475 38.2529 48.6045 36.1674 51.8616 35.5482C52.9187 35.3483 55.3759 35.4245 56.4141 35.6818V35.6816Z" fill="white"/>
</svg>
