<svg width="76" height="76" fill="none" xmlns="http://www.w3.org/2000/svg">
  <path d="M37.474 68l-17.56-4.798L16 20h43l-3.917 43.195L37.473 68z" fill="#1572B6"/>
  <path d="M51.572 60.098L55 23H37v41l14.572-3.902z" fill="#33A9DC"/>
  <path d="M25 39l.462 6H37v-6H25zm-1-10l.471 5H37v-5H24zm13 24.156l-.022.006-5.586-1.687L31.035 47H26l.703 8.81L36.977 59l.023-.007v-5.837z" fill="#EBEBEB"/>
  <path d="M26 8h6v2.667h-3.49v2.666H32V16h-6V8zm8 0h6v2.286h-3.49v.457H40V16h-6v-2.4h3.491v-.457H34V8zm7 0h7v2.286h-4.073v.457H48V16h-7v-2.4h4.073v-.457H41V8z" fill="#8B8B8B"/>
  <path d="M49.991 39.724L51 29H37v5.298h7.875l-.508 5.426H37v5.298h6.882l-.649 6.871L37 53.488V59l11.457-3.01.084-.895 1.314-13.949.136-1.422z" fill="#fff"/>
</svg>
