<svg width="76" height="76" viewBox="0 0 76 76" fill="none" xmlns="http://www.w3.org/2000/svg">
<path d="M17.6429 45.475C17.6429 46.3559 17.2929 47.2007 16.67 47.8236C16.0471 48.4465 15.2023 48.7964 14.3214 48.7964C13.4405 48.7964 12.5957 48.4465 11.9728 47.8236C11.3499 47.2007 11 46.3559 11 45.475V30.5286C11 29.6477 11.3499 28.8029 11.9728 28.18C12.5957 27.5571 13.4405 27.2071 14.3214 27.2071C15.2023 27.2071 16.0471 27.5571 16.67 28.18C17.2929 28.8029 17.6429 29.6477 17.6429 30.5286V45.475Z" fill="#7CB342"/>
<path d="M64.1429 45.475C64.1429 46.3559 63.7929 47.2007 63.17 47.8236C62.5471 48.4465 61.7023 48.7964 60.8214 48.7964C59.9405 48.7964 59.0957 48.4465 58.4728 47.8236C57.8499 47.2007 57.5 46.3559 57.5 45.475V30.5286C57.5 29.6477 57.8499 28.8029 58.4728 28.18C59.0957 27.5571 59.9405 27.2071 60.8214 27.2071C61.7023 27.2071 62.5471 27.5571 63.17 28.18C63.7929 28.8029 64.1429 29.6477 64.1429 30.5286V45.475Z" fill="#7CB342"/>
<path d="M34.25 63.7412C34.25 64.6221 33.9 65.4669 33.2772 66.0898C32.6543 66.7127 31.8094 67.0626 30.9285 67.0626C30.0476 67.0626 29.2028 66.7127 28.5799 66.0898C27.9571 65.4669 27.6071 64.6221 27.6071 63.7412V48.7948C27.6071 47.9139 27.9571 47.069 28.5799 46.4462C29.2028 45.8233 30.0476 45.4733 30.9285 45.4733C31.8094 45.4733 32.6543 45.8233 33.2772 46.4462C33.9 47.069 34.25 47.9139 34.25 48.7948V63.7412Z" fill="#7CB342"/>
<path d="M47.5357 63.7412C47.5357 64.6221 47.1858 65.4669 46.5629 66.0898C45.94 66.7127 45.0952 67.0626 44.2143 67.0626C43.3334 67.0626 42.4886 66.7127 41.8657 66.0898C41.2428 65.4669 40.8929 64.6221 40.8929 63.7412V48.7948C40.8929 47.9139 41.2428 47.069 41.8657 46.4462C42.4886 45.8233 43.3334 45.4733 44.2143 45.4733C45.0952 45.4733 45.94 45.8233 46.5629 46.4462C47.1858 47.069 47.5357 47.9139 47.5357 48.7948V63.7412Z" fill="#7CB342"/>
<path d="M20.9643 27.2071V52.1162C20.9643 52.9971 21.3142 53.8419 21.9371 54.4648C22.56 55.0877 23.4048 55.4376 24.2857 55.4376H50.8572C51.738 55.4376 52.5829 55.0877 53.2058 54.4648C53.8286 53.8419 54.1786 52.9971 54.1786 52.1162V27.2071H20.9643Z" fill="#7CB342"/>
<path d="M37.5714 10.5983C27.6072 10.5983 21.5372 16.6516 20.9643 23.8841H54.1786C53.604 16.6516 47.5357 10.5983 37.5714 10.5983ZM30.9286 19.895C30.4881 19.895 30.0657 19.7201 29.7543 19.4086C29.4428 19.0972 29.2679 18.6748 29.2679 18.2343C29.2679 17.7939 29.4428 17.3714 29.7543 17.06C30.0657 16.7486 30.4881 16.5736 30.9286 16.5736C31.369 16.5736 31.7914 16.7486 32.1029 17.06C32.4143 17.3714 32.5893 17.7939 32.5893 18.2343C32.5893 18.6748 32.4143 19.0972 32.1029 19.4086C31.7914 19.7201 31.369 19.895 30.9286 19.895ZM44.2143 19.895C43.7738 19.895 43.3514 19.7201 43.04 19.4086C42.7285 19.0972 42.5536 18.6748 42.5536 18.2343C42.5536 17.7939 42.7285 17.3714 43.04 17.06C43.3514 16.7486 43.7738 16.5736 44.2143 16.5736C44.6547 16.5736 45.0772 16.7486 45.3886 17.06C45.7 17.3714 45.875 17.7939 45.875 18.2343C45.875 18.6748 45.7 19.0972 45.3886 19.4086C45.0772 19.7201 44.6547 19.895 44.2143 19.895Z" fill="#7CB342"/>
<path fill-rule="evenodd" clip-rule="evenodd" d="M48.0557 8.15757C48.4865 8.44477 48.603 9.02684 48.3158 9.45765L45.549 13.6078C45.2618 14.0386 44.6797 14.155 44.2489 13.8678C43.8181 13.5806 43.7017 12.9985 43.9889 12.5677L46.7557 8.41758C47.0429 7.98678 47.6249 7.87036 48.0557 8.15757Z" fill="#7CB342"/>
<path fill-rule="evenodd" clip-rule="evenodd" d="M27.1016 8.14808C27.5377 7.86889 28.1175 7.99606 28.3967 8.43211L30.6104 11.8897C30.8896 12.3258 30.7624 12.9056 30.3263 13.1848C29.8903 13.4639 29.3105 13.3368 29.0313 12.9007L26.8176 9.44312C26.5384 9.00707 26.6656 8.42726 27.1016 8.14808Z" fill="#7CB342"/>
</svg>
