<svg width="68" height="68" viewBox="0 0 68 68" fill="none" xmlns="http://www.w3.org/2000/svg">
<path d="M4 34V64H64V4H4V34Z" fill="#007ACC"/>
<path d="M17.2682 34.1992L17.2492 36.6562H25.0586V58.8468H30.5828V36.6562H38.3922V34.2468C38.3922 32.9132 38.3636 31.799 38.3256 31.7704C38.297 31.7324 33.5446 31.7132 27.7827 31.7228L17.297 31.7514L17.2684 34.199L17.2682 34.1992Z" fill="white"/>
<path d="M52.4141 31.6816C53.9378 32.0627 55.0998 32.7386 56.1665 33.8434C56.7189 34.4341 57.5378 35.5103 57.6046 35.7674C57.6234 35.8436 55.0141 37.596 53.4332 38.5769C53.376 38.6151 53.1473 38.3673 52.8902 37.9863C52.1188 36.8627 51.3093 36.3768 50.0711 36.2913C48.2523 36.1673 47.0807 37.1198 47.0903 38.71C47.0903 39.1769 47.1569 39.453 47.3474 39.8341C47.7475 40.6626 48.4902 41.1578 50.8237 42.1673C55.1188 44.0151 56.9568 45.2341 58.0998 46.9673C59.376 48.9009 59.6617 51.9864 58.795 54.2816C57.8427 56.7768 55.4809 58.4723 52.1568 59.0341C51.1284 59.215 48.6904 59.1864 47.5856 58.9865C45.1762 58.5578 42.8903 57.3674 41.4808 55.8055C40.9284 55.1959 39.8521 53.6055 39.9189 53.4911C39.9475 53.4531 40.195 53.3008 40.4711 53.1388C40.7378 52.9865 41.7475 52.4052 42.6998 51.853L44.4236 50.853L44.7855 51.3864C45.2903 52.1577 46.3949 53.215 47.0617 53.5673C48.9759 54.577 51.6046 54.434 52.8998 53.272C53.4522 52.7673 53.6807 52.2435 53.6807 51.472C53.6807 50.7768 53.5949 50.4721 53.2331 49.9485C52.7666 49.2817 51.8141 48.7197 49.1092 47.5485C46.0141 46.2149 44.6807 45.3864 43.4617 44.072C42.757 43.3103 42.0902 42.0911 41.8141 41.072C41.5856 40.2245 41.5281 38.1006 41.7093 37.2435C42.3475 34.2529 44.6045 32.1674 47.8616 31.5482C48.9187 31.3483 51.3759 31.4245 52.4141 31.6818V31.6816Z" fill="white"/>
</svg>
