<svg width="76" height="76" fill="none" xmlns="http://www.w3.org/2000/svg">
  <path d="M12.536 56.945l2.646 4.57c.55.963 1.34 1.719 2.268 2.269l9.45-16.358H8c0 1.066.275 2.13.825 3.093l3.711 6.426z" fill="#0066DA"/>
  <path d="M38 28.182l-9.45-16.357c-.928.55-1.718 1.306-2.268 2.268L8.825 44.333A6.226 6.226 0 008 47.426h18.9L38 28.182z" fill="#00AC47"/>
  <path d="M38 28.182l9.45-16.357A6.042 6.042 0 0044.357 11H31.643c-1.1 0-2.165.31-3.093.825L38 28.182z" fill="#00832D"/>
  <path d="M49.1 47.426H26.9l-9.45 16.358a6.04 6.04 0 003.093.824h34.914c1.1 0 2.165-.309 3.093-.824L49.1 47.426z" fill="#2684FC"/>
  <path d="M58.55 63.784c.928-.55 1.718-1.306 2.268-2.268l1.1-1.89 5.257-9.107c.55-.962.825-2.027.825-3.093H49.134l9.416 16.358z" fill="#EA4335"/>
  <path d="M57.87 29.213l-8.73-15.12c-.549-.962-1.34-1.718-2.267-2.268l-9.45 16.357 11.1 19.244h18.865c0-1.065-.275-2.13-.824-3.093l-8.695-15.12z" fill="#FFBA00"/>
</svg>
