<svg width="76" height="76" viewBox="0 0 76 76" fill="none" xmlns="http://www.w3.org/2000/svg">
<path d="M55.5761 25.6318L51.22 29.9879C58.4802 37.2481 58.4802 49.0718 51.22 56.3319C43.9598 63.5921 32.1362 63.5921 24.876 56.3319C17.6158 49.0718 17.6158 37.2481 24.876 29.9879L36.4922 18.3717L37.9443 16.7122V8L20.3125 25.6318C17.9957 27.9252 16.1566 30.6552 14.9014 33.6638C13.6463 36.6724 13 39.9 13 43.1599C13 46.4198 13.6463 49.6474 14.9014 52.656C16.1566 55.6647 17.9957 58.3946 20.3125 60.688C22.6059 63.0048 25.3358 64.8439 28.3444 66.0991C31.353 67.3542 34.5806 68.0005 37.8406 68.0005C41.1005 68.0005 44.3281 67.3542 47.3367 66.0991C50.3453 64.8439 53.0753 63.0048 55.3687 60.688C65.3255 50.9387 65.3254 35.1737 55.5761 25.6318Z" fill="#EE4C2C"/>
<path d="M46.8639 24.3872C48.6969 24.3872 50.1828 22.9013 50.1828 21.0683C50.1828 19.2353 48.6969 17.7494 46.8639 17.7494C45.0309 17.7494 43.545 19.2353 43.545 21.0683C43.545 22.9013 45.0309 24.3872 46.8639 24.3872Z" fill="#EE4C2C"/>
</svg>
