<svg width="76" height="76" fill="none" xmlns="http://www.w3.org/2000/svg">
  <path d="M17.128 16.41c11.854-11.485 30.81-11.176 42.293.74 1.297-1.729 2.408-3.643 3.21-5.618 3.767 11.484 6.052 21.116 5.187 28.586a29.835 29.835 0 01-6.977 17.165c-10.62 12.595-29.513 14.2-42.108 3.581l-.241-.214-.013-.009a2.44 2.44 0 01-.43-.377l-.034-.038-.393-.35c-.385-.33-.769-.658-1.11-1.031l-.125-.142c-11.485-11.855-11.114-30.81.74-42.294zm4.445 40.194c-1.112-.865-2.717-.741-3.582.37-.76.977-.756 2.337.012 3.238l.012.014.477.424.046.031c1.08.71 2.532.563 3.36-.44l.045-.056c.865-1.112.68-2.717-.37-3.582zm40.75-41.986c-3.087 6.484-10.743 11.423-17.35 12.967-6.236 1.481-11.67.247-17.411 2.47-13.09 5-12.842 20.56-5.68 24.079l.432.247s5.173-1.029 10.29-2.387l.438-.117c2.043-.551 4.053-1.151 5.695-1.756 8.52-3.15 17.906-10.929 20.993-19.943-1.605 9.385-9.694 18.46-17.782 22.598-4.322 2.222-7.656 2.716-14.756 5.186-.865.309-1.544.617-1.544.617l.26-.035.172-.022.172-.021a61.617 61.617 0 012.977-.292c10.064-.494 25.87 2.84 33.218-6.977 7.532-10.002 3.334-26.179-.124-36.614z" fill="#6DB33F"/>
  <path d="M21.573 56.604c1.05.864 1.235 2.47.37 3.58-.864 1.112-2.47 1.236-3.58.371-1.112-.864-1.235-2.47-.37-3.58.864-1.112 2.469-1.236 3.58-.371zm40.75-41.985c3.458 10.434 7.657 26.61.124 36.613C55.1 61.05 39.294 57.715 29.23 58.21c0 0-1.409.097-2.976.292l-.172.021-.433.058s.68-.31 1.544-.618c7.1-2.47 10.434-2.964 14.756-5.186 8.089-4.137 16.177-13.213 17.782-22.598-3.087 9.014-12.472 16.794-20.992 19.943-5.866 2.16-16.424 4.26-16.424 4.26l-.432-.247c-7.162-3.52-7.409-19.078 5.68-24.08 5.743-2.222 11.176-.988 17.412-2.47 6.606-1.543 14.263-6.482 17.35-12.965z" fill="#fff"/>
</svg>
