<svg width="76" height="76" fill="none" xmlns="http://www.w3.org/2000/svg">
  <path d="M8 60.264A7.736 7.736 0 0015.736 68h44.527A7.736 7.736 0 0068 60.264V15.736A7.736 7.736 0 0060.264 8H15.736A7.736 7.736 0 008 15.736v44.527z" fill="#563D7C"/>
  <path d="M32.88 34.54v-8.497h7.48c.712 0 1.4.06 2.06.178a5.18 5.18 0 011.756.636c.509.306.916.73 1.221 1.272.305.543.458 1.238.458 2.086 0 1.527-.458 2.63-1.374 3.308-.916.678-2.086 1.017-3.51 1.017h-8.09zm-7.987-14.704v36.328h17.604c1.628 0 3.214-.203 4.757-.61 1.544-.408 2.917-1.035 4.122-1.883a9.273 9.273 0 002.874-3.282c.713-1.34 1.069-2.925 1.069-4.757 0-2.273-.552-4.215-1.654-5.826-1.102-1.611-2.773-2.739-5.012-3.383 1.629-.78 2.858-1.781 3.69-3.002.83-1.221 1.246-2.748 1.246-4.58 0-1.695-.28-3.12-.84-4.273-.56-1.153-1.348-2.078-2.366-2.773-1.017-.696-2.238-1.196-3.663-1.501-1.425-.306-3.002-.458-4.732-.458H24.893zm7.988 30.12v-9.972h8.7c1.73 0 3.12.399 4.172 1.196 1.052.797 1.578 2.128 1.578 3.994 0 .95-.162 1.73-.484 2.34a3.84 3.84 0 01-1.297 1.45 5.484 5.484 0 01-1.883.764c-.712.152-1.458.229-2.239.229h-8.547z" fill="#fff"/>
</svg>
