<svg width="76" height="76" fill="none" xmlns="http://www.w3.org/2000/svg">
  <path d="M38 10a28 28 0 1028 28 28.032 28.032 0 00-28-28" fill="#fff"/>
  <path d="M36.666 38.002c-.256.55-.538 1.165-.828 1.81a45.962 45.962 0 00-2.596 6.948A10.34 10.34 0 0033 49.084c0 .35.018.716.048 1.09a13.608 13.608 0 008.951.135 7.995 7.995 0 01-.892-.938c-1.826-2.305-2.84-5.687-4.45-11.371m-6.721-11a13.643 13.643 0 00-4.34 4.782A13.168 13.168 0 0024 37.96a13.16 13.16 0 001.505 6.2 13.626 13.626 0 004.27 4.84c.858-3.457 3.005-6.624 6.225-12.97-.192-.51-.417-1.066-.653-1.652a20.463 20.463 0 00-3.339-5.827A9.234 9.234 0 0029.922 27" fill="#91DC47"/>
  <path d="M49.77 52.975a22.495 22.495 0 01-4.61-.948 16.627 16.627 0 01-11.528 1.154 16.41 16.41 0 01-9.43-6.64 16.008 16.008 0 01-2.632-11.127 16.121 16.121 0 015.477-10.07 12.215 12.215 0 00-2.86-.344c-4.817.044-9.903 2.673-12.02 9.773a13.124 13.124 0 00-.15 2.741 25.24 25.24 0 004.992 15.061 25.829 25.829 0 0013.055 9.24 26.188 26.188 0 0016.069-.158A25.81 25.81 0 0059 52.166a30.503 30.503 0 01-7.044.924 18.33 18.33 0 01-2.185-.115" fill="#63B132"/>
  <path d="M44.74 48.644c.313.144.636.263.967.356a13.644 13.644 0 003.892-4.903c.92-1.939 1.4-4.082 1.401-6.256a14.615 14.615 0 00-1.413-6.303 13.614 13.614 0 00-3.943-4.921 12.472 12.472 0 00-5.607-2.457 12.12 12.12 0 00-6.037.547c2.626 3.203 3.89 7.782 5.112 12.789s.386 1.392 1.057 3.232a32.918 32.918 0 002.637 5.768 5.889 5.889 0 001.934 2.144" fill="#90B4FE"/>
  <path d="M37.627 13A25.339 25.339 0 0017 23.602a12.887 12.887 0 016.981-2.024 13.64 13.64 0 016.384 1.549c.269.154.523.32.774.493a16.124 16.124 0 0122.615 14.764 16.082 16.082 0 01-4.797 11.475c.761.087 1.527.13 2.293.128a12.511 12.511 0 008.127-2.534 10.732 10.732 0 003.41-5.83 25.35 25.35 0 00-14.699-26.377A25.338 25.338 0 0037.627 13" fill="#5881D8"/>
</svg>
