<svg width="76" height="76" viewBox="0 0 76 76" fill="none" xmlns="http://www.w3.org/2000/svg">
<path d="M38.0344 12.0225C24.7219 12.0225 25.5638 17.7788 25.5638 17.7788V23.76H38.2238V25.635H20.5219C20.5219 25.635 12 24.585 12 38.0944C12 51.6038 19.5244 51.0544 19.5244 51.0544H23.8687V44.7525C23.8687 44.7525 23.625 37.2281 31.1812 37.2281H43.86C43.86 37.2281 50.9325 37.3406 50.9325 30.3806V18.96C50.9325 18.96 52.005 12 38.1037 12L38.0344 12.0225ZM31.0369 16.0294C31.4869 16.018 31.9303 16.1404 32.3108 16.381C32.6913 16.6216 32.992 16.9697 33.1747 17.3812C33.3574 17.7926 33.414 18.2491 33.3373 18.6927C33.2606 19.1363 33.054 19.5473 32.7438 19.8735C32.4335 20.1998 32.0335 20.4267 31.5943 20.5256C31.155 20.6245 30.6964 20.5909 30.2762 20.4291C29.8561 20.2673 29.4934 19.9845 29.2339 19.6165C28.9745 19.2486 28.83 18.812 28.8188 18.3619V18.3244C28.8188 17.7207 29.0586 17.1417 29.4854 16.7148C29.9123 16.2879 30.4913 16.0481 31.095 16.0481L31.0369 16.0294Z" fill="url(#paint0_linear)"/>
<path d="M38.4094 64.1662C51.7219 64.1662 50.88 58.3912 50.88 58.3912V52.4287H38.2219V50.5537H55.9781C55.9781 50.5537 64.5 51.5062 64.5 38.0756C64.5 24.645 56.9756 25.1156 56.9756 25.1156H52.575V31.335C52.575 31.335 52.8188 38.8594 45.2625 38.8594H32.5781C32.5781 38.8594 25.5 38.7525 25.5 45.7125V57.21C25.5 57.21 24.4275 64.17 38.3287 64.17H38.4038L38.4094 64.1662ZM45.4069 60.1406C44.9568 60.152 44.5135 60.0296 44.1329 59.789C43.7524 59.5484 43.4518 59.2003 43.2691 58.7888C43.0864 58.3774 43.0298 57.9209 43.1065 57.4773C43.1832 57.0337 43.3897 56.6227 43.7 56.2965C44.0102 55.9702 44.4103 55.7433 44.8495 55.6444C45.2887 55.5455 45.7474 55.5791 46.1675 55.7409C46.5877 55.9027 46.9504 56.1855 47.2098 56.5535C47.4692 56.9214 47.6137 57.358 47.625 57.8081V57.8644C47.625 58.4681 47.3852 59.047 46.9583 59.4739C46.5314 59.9008 45.9524 60.1406 45.3487 60.1406H45.405H45.4069Z" fill="url(#paint1_linear)"/>
<defs>
<linearGradient id="paint0_linear" x1="17.1884" y1="17.1279" x2="42.1009" y2="41.984" gradientUnits="userSpaceOnUse">
<stop stop-color="#387EB8"/>
<stop offset="1" stop-color="#366994"/>
</linearGradient>
<linearGradient id="paint1_linear" x1="31.9266" y1="33.3198" x2="60.3894" y2="58.1684" gradientUnits="userSpaceOnUse">
<stop stop-color="#FFE052"/>
<stop offset="1" stop-color="#FFC331"/>
</linearGradient>
</defs>
</svg>
