<svg width="76" height="76" fill="none" xmlns="http://www.w3.org/2000/svg">
  <path d="M39.651 9a2.713 2.713 0 00-1.89.778l-.028.02L20 20.048l17.684 17.68v.013L58.948 59 63 51.702 48.382 16.619l-6.813-6.812a2.7 2.7 0 00-1.914-.8L39.651 9z" fill="#66C3FA"/>
  <path d="M20.045 20L9.8 37.674l-.02.027A2.72 2.72 0 009 39.594a2.672 2.672 0 00.799 1.903l8.49 8.471L51.495 63 59 58.84l-.206-.207h-.052L37.926 37.831h-.024L20.045 20z" fill="#215896"/>
  <path d="M20 20l18.14 18.129h.026L59.044 59l7.946-1.513.01-23.48-8.39-8.21a13.507 13.507 0 00-7.502-3.34v-.09L20 20z" fill="#235997"/>
  <path d="M20 20l18.131 18.144v.027L59 59.056 57.482 67h-23.49l-8.212-8.393a13.501 13.501 0 01-3.338-7.502h-.09L20 20z" fill="#58B6F0"/>
</svg>
