<svg width="76" height="76" fill="none" xmlns="http://www.w3.org/2000/svg">
  <path d="M61 38.105H46.364v4.201H56.4a19.08 19.08 0 01-4.324 8.386 18.951 18.951 0 01-7.803 5.267L20.227 31.804a18.896 18.896 0 016.89-9.143A18.76 18.76 0 0138 19.201c3.02.021 5.995.755 8.682 2.141a19.328 19.328 0 016.79 5.84l3.137-2.73a22.998 22.998 0 00-10.314-7.92 22.886 22.886 0 00-12.94-1.043 22.953 22.953 0 00-11.439 6.166 23.119 23.119 0 00-6.289 11.409l27.6 27.726a23.516 23.516 0 0012.735-8.3A23.7 23.7 0 0061 38.105zm-46 .21a22.526 22.526 0 001.75 8.657 22.444 22.444 0 004.94 7.307A22.646 22.646 0 0037.583 61L15 38.315z" fill="#fff"/>
  <path d="M38 9a29 29 0 1029 29A29.084 29.084 0 0038 9zM21.843 54.157a22.485 22.485 0 01-6.629-15.743l22.579 22.372a23.513 23.513 0 01-15.95-6.629zm21.128 6.007L15.836 33.03a22.771 22.771 0 0140.6-8.493l-3.107 2.693A19.125 19.125 0 0038 19.357a18.85 18.85 0 00-17.607 12.429l23.821 23.821A18.779 18.779 0 0056.23 42.143h-9.943V38h14.5A22.85 22.85 0 0142.97 60.164z" fill="#639"/>
</svg>
