<svg width="76" height="76" fill="none" xmlns="http://www.w3.org/2000/svg">
  <path d="M63.545 32.32H45.697a2.222 2.222 0 01-2.236-2.235V12.237a2.224 2.224 0 00-2.237-2.223h-6.68a2.22 2.22 0 00-2.237 2.223v17.848a2.22 2.22 0 01-2.236 2.236H23.39a2.222 2.222 0 01-2.236-2.236V12.237A2.22 2.22 0 0018.917 10h-6.695A2.224 2.224 0 0010 12.236V63.56a2.223 2.223 0 002.236 2.236h51.309a2.222 2.222 0 002.236-2.236V34.6a2.222 2.222 0 00-2.236-2.278zm-8.973 18.954a3.34 3.34 0 01-3.34 3.354h-4.473a3.341 3.341 0 01-3.34-3.354v-4.46a3.34 3.34 0 013.34-3.353h4.472a3.34 3.34 0 013.34 3.354l.001 4.459z" fill="#F60"/>
</svg>
