<svg width="68" height="68" viewBox="0 0 68 68" fill="none" xmlns="http://www.w3.org/2000/svg">
<path d="M24 64C26.6522 64 29.1957 62.9464 31.0711 61.0711C32.9464 59.1957 34 56.6522 34 54V44H24C21.3478 44 18.8043 45.0536 16.9289 46.9289C15.0536 48.8043 14 51.3478 14 54C14 56.6522 15.0536 59.1957 16.9289 61.0711C18.8043 62.9464 21.3478 64 24 64V64Z" fill="#0ACF83"/>
<path d="M14 34C14 31.3478 15.0536 28.8043 16.9289 26.9289C18.8043 25.0536 21.3478 24 24 24H34V44H24C21.3478 44 18.8043 42.9464 16.9289 41.0711C15.0536 39.1957 14 36.6522 14 34V34Z" fill="#A259FF"/>
<path d="M14 14C14 11.3492 15.0525 8.80683 16.9262 6.93169C18.7998 5.05655 21.3414 4.00207 23.9922 4H33.9922V24H24C21.3478 24 18.8043 22.9464 16.9289 21.0711C15.0536 19.1957 14 16.6522 14 14V14Z" fill="#F24E1E"/>
<path d="M34 4H44C46.6522 4 49.1957 5.05357 51.0711 6.92893C52.9464 8.8043 54 11.3478 54 14C54 16.6522 52.9464 19.1957 51.0711 21.0711C49.1957 22.9464 46.6522 24 44 24H34V4Z" fill="#FF7262"/>
<path d="M54 34C54 36.6522 52.9464 39.1957 51.0711 41.0711C49.1957 42.9464 46.6522 44 44 44C41.3478 44 38.8043 42.9464 36.9289 41.0711C35.0536 39.1957 34 36.6522 34 34C34 31.3478 35.0536 28.8043 36.9289 26.9289C38.8043 25.0536 41.3478 24 44 24C46.6522 24 49.1957 25.0536 51.0711 26.9289C52.9464 28.8043 54 31.3478 54 34V34Z" fill="#1ABCFE"/>
</svg>
