<svg width="76" height="76" fill="none" xmlns="http://www.w3.org/2000/svg">
  <path fill-rule="evenodd" clip-rule="evenodd" d="M19.226 40.156c.075 1.549 1.622.833 2.323.349.665-.46.86-.077.919-.984.06-.595.084-1.193.073-1.791a4.391 4.391 0 00-2.925.75c-.426.31-1.221 1.294-.39 1.688" fill="#F6D2A2"/>
  <path d="M20.03 41.248a.988.988 0 01-.443-.096 1.015 1.015 0 01-.506-.904.67.67 0 01-.375-.53 1.885 1.885 0 01.81-1.364 4.5 4.5 0 013.025-.774l.127.011v.128c.017.467.002.935-.043 1.4l-.03.41c-.041.642-.161.74-.493.854-.174.056-.34.137-.49.242-.465.34-1.01.554-1.582.623zm2.081-3.39a4.125 4.125 0 00-2.411.738c-.304.222-.726.739-.69 1.095a.41.41 0 00.276.332l.08.038v.088c.019.386.135.633.347.739.409.202 1.17-.11 1.746-.505.172-.12.362-.213.562-.277.218-.075.263-.092.295-.597 0-.136.018-.273.03-.412.038-.41.054-.822.048-1.234a7.33 7.33 0 00-.28-.005h-.003z" fill="#000"/>
  <path fill-rule="evenodd" clip-rule="evenodd" d="M19.226 40.156a1.22 1.22 0 00.617-.347z" fill="#C6B198"/>
  <path d="M19.226 40.304a.148.148 0 01-.051-.285l.1-.035c.173-.04.33-.13.451-.26a.15.15 0 01.099-.07.148.148 0 01.137.245c-.154.178-.36.305-.588.362l-.096.034a.147.147 0 01-.052.01z" fill="#000"/>
  <path fill-rule="evenodd" clip-rule="evenodd" d="M22.801 21.704c-5.93-1.666-1.52-9.204 3.24-6.107l-3.24 6.107z" fill="#6AD7E5"/>
  <path d="M22.876 21.875l-.114-.032a3.613 3.613 0 01-2.929-2.812 3.927 3.927 0 011.832-3.711 3.968 3.968 0 014.459.152l.112.073-3.36 6.33zm.842-6.874c-.672 0-1.33.196-1.894.563a3.625 3.625 0 00-1.7 3.418 3.291 3.291 0 002.602 2.548l3.122-5.882a4.068 4.068 0 00-2.13-.643v-.004z" fill="#000"/>
  <path fill-rule="evenodd" clip-rule="evenodd" d="M49.145 15.031c4.688-3.296 8.934 4.142 3.48 6.013l-3.48-6.013z" fill="#6AD7E5"/>
  <path d="M52.56 21.223l-3.61-6.235.11-.077a3.873 3.873 0 014.304-.362 3.98 3.98 0 011.957 3.685 3.527 3.527 0 01-2.65 2.95l-.112.038zm-3.218-6.149l3.35 5.789a3.21 3.21 0 002.337-2.66 3.677 3.677 0 00-1.813-3.4 3.482 3.482 0 00-3.874.271z" fill="#000"/>
  <path fill-rule="evenodd" clip-rule="evenodd" d="M50.156 59.22c1.192.736 3.375 2.968 1.582 4.05-1.717 1.572-2.68-1.728-4.189-2.185a4.171 4.171 0 012.607-1.866z" fill="#F6D2A2"/>
  <path d="M50.833 63.84h-.072c-.677-.042-1.24-.702-1.783-1.341a3.827 3.827 0 00-1.472-1.27l-.199-.06.124-.168a4.355 4.355 0 012.702-1.924h.054l.047.028c.764.473 2.338 1.853 2.331 3.101a1.369 1.369 0 01-.737 1.193c-.264.267-.62.425-.995.44zm-3.047-2.813a4.695 4.695 0 011.417 1.288c.527.619 1.026 1.204 1.577 1.238a1.173 1.173 0 00.857-.375l.022-.017a1.083 1.083 0 00.608-.95c0-.997-1.26-2.25-2.145-2.812a3.852 3.852 0 00-2.336 1.618v.01z" fill="#000"/>
  <path d="M51.738 63.417a.148.148 0 01-.131-.08 5.442 5.442 0 01-.23-.563 2.455 2.455 0 00-.537-.97.148.148 0 01.204-.213c.284.309.493.68.61 1.082.063.179.135.354.217.525a.148.148 0 01-.065.199.146.146 0 01-.068.02z" fill="#000"/>
  <path fill-rule="evenodd" clip-rule="evenodd" d="M28.858 61.741c-1.4.216-2.187 1.48-3.353 2.12-1.099.657-1.52-.21-1.618-.385-.173-.08-.158.073-.424-.188-1.026-1.616 1.06-2.788 2.143-3.59 1.51-.306 2.456 1.003 3.252 2.043z" fill="#F6D2A2"/>
  <path d="M24.76 64.25a1 1 0 01-.264-.034 1.212 1.212 0 01-.712-.618h-.034c-.124 0-.216-.027-.4-.212l-.02-.025c-.98-1.548.688-2.724 1.794-3.502.14-.098.27-.188.389-.278l.026-.019h.032c1.554-.314 2.537.972 3.324 2.005l.223.29-.245.038c-.79.19-1.51.602-2.072 1.189a7.537 7.537 0 01-1.232.915 1.61 1.61 0 01-.808.251zm-.988-.949a.4.4 0 01.173.04l.043.02.038.066a.954.954 0 00.547.504 1.124 1.124 0 00.855-.187 7.32 7.32 0 001.187-.883 4.93 4.93 0 011.98-1.208c-.75-.986-1.616-2.051-2.929-1.806-.123.09-.248.177-.375.261-1.125.795-2.535 1.785-1.723 3.09.116.116.144.114.169.114l.036-.01z" fill="#000"/>
  <path d="M23.885 63.622h-.013a.148.148 0 01-.135-.16 2.25 2.25 0 01.474-1.072c.118-.163.222-.336.31-.517a.149.149 0 01.19-.066.148.148 0 01.08.185 3.735 3.735 0 01-.334.563c-.22.27-.367.593-.424.938a.148.148 0 01-.148.129z" fill="#000"/>
  <path fill-rule="evenodd" clip-rule="evenodd" d="M23.049 19.625c-.782-.414-1.356-.975-.878-1.875.443-.838 1.266-.75 2.048-.334l-1.17 2.209zm28.341-.791c.781-.415 1.355-.975.877-1.875-.443-.838-1.266-.75-2.048-.334l1.17 2.209z" fill="#000"/>
  <path fill-rule="evenodd" clip-rule="evenodd" d="M56.774 39.961c-.075 1.549-1.621.833-2.323.349-.665-.46-.86-.077-.919-.984a14.89 14.89 0 01-.073-1.791 4.391 4.391 0 012.925.75c.426.31 1.221 1.294.39 1.688" fill="#F6D2A2"/>
  <path d="M55.97 41.05a3.352 3.352 0 01-1.601-.62 1.827 1.827 0 00-.49-.242c-.331-.116-.451-.214-.493-.855 0-.137-.019-.272-.03-.409-.045-.465-.06-.933-.043-1.4v-.128l.128-.011a4.5 4.5 0 013.024.774 1.886 1.886 0 01.81 1.364.671.671 0 01-.375.53 1.014 1.014 0 01-.506.904.988.988 0 01-.424.094zm-2.368-3.374c-.006.411.01.823.049 1.233l.03.413c.032.504.077.52.294.596.2.064.39.158.563.278.573.397 1.336.707 1.745.504.212-.105.328-.353.347-.739v-.088l.08-.037a.41.41 0 00.276-.332c.034-.356-.386-.874-.69-1.095a4.184 4.184 0 00-2.694-.739v.006z" fill="#000"/>
  <path fill-rule="evenodd" clip-rule="evenodd" d="M56.774 39.961a1.218 1.218 0 01-.617-.347z" fill="#C6B198"/>
  <path d="M56.774 40.108a.148.148 0 01-.05 0l-.096-.034a1.151 1.151 0 01-.589-.362.148.148 0 11.237-.176c.12.13.278.22.451.26l.1.036a.148.148 0 01.04.248.148.148 0 01-.09.037l-.003-.01z" fill="#000"/>
  <path fill-rule="evenodd" clip-rule="evenodd" d="M37.406 11.898c5.936 0 11.5.85 14.401 6.553 2.605 6.392 1.679 13.287 2.076 20.042.341 5.801 1.097 12.503-1.594 17.88-2.83 5.655-9.905 7.078-15.735 6.87-4.578-.163-10.108-1.657-12.692-5.84-3.031-4.907-1.595-12.205-1.376-17.665.26-6.467-1.751-12.956.375-19.284 2.205-6.563 8.149-8.05 14.546-8.556" fill="#6AD7E5"/>
  <path d="M37.569 63.406c-.375 0-.713 0-1.018-.018-2.813-.102-9.705-.88-12.812-5.91-2.45-3.968-2.014-9.452-1.63-14.292.098-1.217.188-2.368.233-3.455a55.657 55.657 0 00-.294-6.874 30.405 30.405 0 01.675-12.452 10.898 10.898 0 015.774-6.636 24.277 24.277 0 018.897-2.019h.012c5.795 0 11.568.804 14.533 6.634v.011a38.472 38.472 0 011.957 14.554c.01 1.817.02 3.697.128 5.535.032.562.07 1.125.107 1.687.345 5.327.735 11.367-1.716 16.262-3.054 6.114-10.764 6.973-14.846 6.973zm-.158-51.362c-6.176.49-12.187 1.853-14.413 8.455a30.188 30.188 0 00-.662 12.334 55.85 55.85 0 01.289 6.91 91.29 91.29 0 01-.233 3.47c-.375 4.794-.813 10.228 1.587 14.113 3.034 4.91 9.802 5.672 12.572 5.769 3.603.13 12.335-.276 15.596-6.79 2.415-4.824 2.027-10.82 1.687-16.11l-.107-1.687c-.108-1.845-.118-3.73-.127-5.55a38.267 38.267 0 00-1.933-14.437c-2.886-5.691-8.558-6.475-14.256-6.477z" fill="#000"/>
  <path fill-rule="evenodd" clip-rule="evenodd" d="M38.454 19.867c1.065 6.187 11.194 4.558 9.739-1.688-1.313-5.602-10.094-4.051-9.74 1.688z" fill="#fff"/>
  <path d="M43.265 23.91c-.63.002-1.256-.1-1.852-.304a4.582 4.582 0 01-3.1-3.717v-.015a5.01 5.01 0 014.53-5.276 4.654 4.654 0 015.488 3.546 4.334 4.334 0 01-1.262 4.393 5.76 5.76 0 01-3.804 1.372zm-4.669-4.06a4.313 4.313 0 002.91 3.487 5.602 5.602 0 005.372-1.012 4.058 4.058 0 001.176-4.125 4.378 4.378 0 00-5.179-3.319 4.733 4.733 0 00-4.279 4.969z" fill="#000"/>
  <path fill-rule="evenodd" clip-rule="evenodd" d="M26.352 20.868c1.38 5.395 10.017 4.007 9.69-1.397-.39-6.48-11.011-5.23-9.691 1.397" fill="#fff"/>
  <path d="M30.96 24.427a5.3 5.3 0 01-2.523-.611 4.47 4.47 0 01-2.22-2.912 4.521 4.521 0 011.55-4.635 5.826 5.826 0 015.787-.739 4.378 4.378 0 012.625 3.938 4.742 4.742 0 01-4.293 4.891 6.007 6.007 0 01-.927.068zm-4.473-3.589a4.5 4.5 0 005.36 3.242 4.472 4.472 0 004.059-4.601 4.112 4.112 0 00-2.464-3.705 5.537 5.537 0 00-5.503.701 4.255 4.255 0 00-1.451 4.363z" fill="#000"/>
  <path fill-rule="evenodd" clip-rule="evenodd" d="M39.676 27.301c.089.853.1 1.712.03 2.567-.206.388-.61.43-.956.587a1.408 1.408 0 01-1.078-.842c-.052-.968-.026-1.94.077-2.904l1.927.592z" fill="#fff"/>
  <path d="M38.77 30.607h-.043a1.553 1.553 0 01-1.19-.938v-.039a9.755 9.755 0 01.017-1.993c.024-.306.048-.62.058-.938v-.187l2.214.679v.108c0 .267.023.542.045.833a7.019 7.019 0 01-.015 1.76v.023l-.011.02a1.233 1.233 0 01-.776.563c-.088.032-.17.06-.252.098l-.046.01zm-.954-1.033a1.259 1.259 0 00.915.727c.077-.032.156-.06.23-.088a.984.984 0 00.605-.396 6.905 6.905 0 000-1.663 13.93 13.93 0 01-.044-.75l-1.64-.502c-.013.255-.032.508-.05.75a9.466 9.466 0 00-.02 1.922h.004zm-9.082-8.007c.805 0 1.458-.706 1.458-1.578 0-.872-.653-1.579-1.458-1.579-.806 0-1.459.707-1.459 1.579s.653 1.578 1.459 1.578z" fill="#000"/>
  <path d="M29.398 20.746c.189 0 .343-.18.343-.401 0-.222-.154-.401-.343-.401-.19 0-.344.18-.344.401 0 .222.154.401.344.401z" fill="#fff"/>
  <path d="M40.951 21.174c.792 0 1.435-.707 1.435-1.579s-.643-1.579-1.435-1.579-1.434.707-1.434 1.579.642 1.579 1.434 1.579z" fill="#000"/>
  <path d="M41.604 20.352c.186 0 .337-.18.337-.4 0-.222-.15-.402-.337-.402-.187 0-.338.18-.338.401 0 .222.151.401.338.401z" fill="#fff"/>
  <path fill-rule="evenodd" clip-rule="evenodd" d="M35.508 27.213c-.636 1.541.354 4.626 2.081 2.351a18.29 18.29 0 01.077-2.904l-2.158.553z" fill="#fff"/>
  <path d="M36.436 30.524a.846.846 0 01-.423-.116 3 3 0 01-.64-3.25l.028-.067 2.411-.622v.187a17.14 17.14 0 01-.06.938 9.378 9.378 0 00-.018 1.933v.06l-.036.049c-.497.677-.926.888-1.262.888zm-.817-3.187a2.734 2.734 0 00.54 2.812c.446.255.937-.187 1.277-.628a10.03 10.03 0 01.024-1.933c.019-.242.038-.49.05-.735l-1.891.484z" fill="#000"/>
  <path fill-rule="evenodd" clip-rule="evenodd" d="M35.726 24.243a1.874 1.874 0 00-1.54 2.625c.816 1.478 2.638-.131 3.775.02 1.312.027 2.377 1.383 3.425.246 1.166-1.263-.502-2.495-1.807-3.045l-3.853.154z" fill="#F6D2A2"/>
  <path d="M40.453 27.736a3.237 3.237 0 01-1.202-.335 3.614 3.614 0 00-1.292-.364h-.017c-.46 0-.915.097-1.335.285-.92.319-1.965.679-2.55-.375a1.773 1.773 0 01.026-1.72 2.097 2.097 0 011.63-1.125l3.894-.165.03.014c.97.408 2.074 1.157 2.263 2.03a1.567 1.567 0 01-1.447 1.752v.003zm-2.481-.986c.484.04.957.17 1.393.386.737.31 1.313.553 1.914-.093a1.088 1.088 0 00.334-.99c-.163-.75-1.204-1.442-2.062-1.808l-3.818.152a1.826 1.826 0 00-1.391.97 1.483 1.483 0 00-.028 1.437c.465.842 1.312.552 2.194.244.46-.204.96-.306 1.464-.298z" fill="#231F20"/>
  <path fill-rule="evenodd" clip-rule="evenodd" d="M35.578 24.181c-.089-2.053 3.828-2.306 4.297-.59.469 1.715-4.099 2.115-4.292.592l-.005-.002z" fill="#000"/>
</svg>
