<svg width="76" height="76" viewBox="0 0 76 76" fill="none" xmlns="http://www.w3.org/2000/svg">
<path d="M66.8698 35.3276L40.6742 9.13198C40.3155 8.77311 39.8896 8.48843 39.4208 8.2942C38.9521 8.09997 38.4497 8 37.9423 8C37.4349 8 36.9325 8.09997 36.4637 8.2942C35.995 8.48843 35.5691 8.77311 35.2104 9.13198L29.7729 14.5695L36.6729 21.4695C38.2779 20.907 40.1154 21.2914 41.3942 22.5701C42.0029 23.1799 42.4278 23.9486 42.6205 24.7884C42.8131 25.6283 42.7656 26.5053 42.4835 27.3195L49.1342 33.9701C50.7429 33.4151 52.5992 33.7732 53.8835 35.0614C54.3105 35.4884 54.6492 35.9954 54.8802 36.5534C55.1112 37.1114 55.2301 37.7094 55.23 38.3133C55.2299 38.9172 55.1109 39.5151 54.8797 40.073C54.6485 40.6309 54.3097 41.1378 53.8826 41.5648C53.4555 41.9918 52.9485 42.3304 52.3906 42.5614C51.8326 42.7925 51.2346 42.9113 50.6307 42.9112C50.0268 42.9111 49.4288 42.7921 48.8709 42.5609C48.313 42.3297 47.8061 41.9909 47.3792 41.5638C46.0292 40.2138 45.6954 38.2264 46.3779 36.5632L40.1754 30.3607V46.6826C40.6257 46.9054 41.0372 47.1992 41.3942 47.5526C41.8211 47.9796 42.1598 48.4864 42.3909 49.0443C42.6219 49.6021 42.7409 50.2 42.7409 50.8039C42.7409 51.4077 42.6219 52.0056 42.3909 52.5634C42.1598 53.1213 41.8211 53.6281 41.3942 54.0551C40.9672 54.4821 40.4603 54.8207 39.9025 55.0518C39.3446 55.2829 38.7467 55.4018 38.1429 55.4018C37.5391 55.4018 36.9412 55.2829 36.3834 55.0518C35.8255 54.8207 35.3186 54.4821 34.8917 54.0551C34.4642 53.6284 34.1251 53.1216 33.8937 52.5638C33.6623 52.0059 33.5432 51.4078 33.5432 50.8039C33.5432 50.1999 33.6623 49.6018 33.8937 49.044C34.1251 48.4861 34.4642 47.9793 34.8917 47.5526C35.336 47.1101 35.8292 46.7745 36.3973 46.5495V30.0757C35.8498 29.8507 35.336 29.5189 34.8917 29.0726C34.246 28.4278 33.8071 27.6053 33.6308 26.71C33.4545 25.8147 33.5488 24.8872 33.9017 24.0457L27.0954 17.2432L9.13291 35.187C8.77376 35.5457 8.48885 35.9717 8.29445 36.4406C8.10006 36.9095 8 37.4122 8 37.9198C8 38.4274 8.10006 38.93 8.29445 39.399C8.48885 39.8679 8.77376 40.2939 9.13291 40.6526L35.3304 66.8464C35.6891 67.2052 36.115 67.4899 36.5837 67.6841C37.0525 67.8784 37.5549 67.9783 38.0623 67.9783C38.5697 67.9783 39.0721 67.8784 39.5408 67.6841C40.0096 67.4899 40.4355 67.2052 40.7942 66.8464L66.8698 40.812C67.2289 40.4533 67.5139 40.0273 67.7083 39.5583C67.9026 39.0894 68.0027 38.5868 68.0027 38.0792C68.0027 37.5715 67.9026 37.0689 67.7083 36.6C67.5139 36.1311 67.2289 35.7051 66.8698 35.3464" fill="#F03C2E"/>
</svg>
