<svg width="76" height="76" viewBox="0 0 76 76" fill="none" xmlns="http://www.w3.org/2000/svg">
<path d="M34.3 40.2997L42.4 35.6L50.3997 40.2997L42.4 44.9L34.3 40.4V40.2997ZM10 26.4003L42.4 8L66.5003 21.6997L58.5006 35.6L42.4009 26.4003L18.1009 40.2003L10 26.4003Z" fill="#F6BD3A"/>
<path d="M34.3 58.7V49.5003L42.2997 44.9L50.3997 40.2997V49.4994L42.4 54.0997V63.2994L34.3 68V58.7ZM34.3 40.2997L26.2 35.6994L18.1 40.1994V30.9997L42.4 17.1997V35.6L34.3 40.2997ZM58.4003 30.9997V26.3994L66.5003 21.6997L66.6006 30.8994L58.5006 35.5991L58.4003 30.9997Z" fill="#EB8C23"/>
<path d="M26.2 63.0997V35.7003L34.1997 31.2003L34.3 40.3006L42.4 44.8006V54.1006L34.3 49.8003V68L26.2 63.0997ZM14.0003 37.8003L10 35.4003V26.4003L18.1 31.0006V40.2003L14.0003 37.8003ZM42.4 26.4003V17.1997L58.4003 26.3994L58.5006 35.5991L42.4009 26.3994L42.4 26.4003Z" fill="#E35A2B"/>
</svg>
