<svg width="76" height="76" viewBox="0 0 76 76" fill="none" xmlns="http://www.w3.org/2000/svg">
<path d="M35.8314 60.9519C43.2828 59.4365 49.4359 58.1821 49.5069 58.1654L49.6363 58.1341L42.6023 48.5015C38.7326 43.2041 35.5684 38.8481 35.5684 38.823C35.5684 38.798 42.8319 15.7466 42.8737 15.6652C42.8883 15.6381 47.8309 25.4627 54.8565 39.4826L66.9081 63.5296L67 63.7133H22.2873L35.8314 60.9519Z" fill="#0089D6"/>
<path d="M9 58.013C9 58.0005 12.3145 51.3756 16.3658 43.2918L23.7317 28.5956L32.3248 20.3051C37.0461 15.7445 40.9221 12.0063 40.9367 12C40.9058 12.1383 40.8596 12.2727 40.799 12.4007L31.469 35.4146L22.3061 58.0193H15.6499C13.4333 58.0419 11.2165 58.0398 9 58.013V58.013Z" fill="#0089D6"/>
</svg>
