<svg width="76" height="76" viewBox="0 0 76 76" fill="none" xmlns="http://www.w3.org/2000/svg">
<path d="M47.9028 27.3168L53.1184 22.1013L53.4659 19.9052C43.9618 11.2631 28.8538 12.243 20.286 21.9499C17.9064 24.6459 16.1408 28.0071 15.1993 31.4779L17.0673 31.2147L27.4982 29.4944L28.3035 28.671C32.9434 23.5753 40.7886 22.8897 46.1459 27.2254L47.9028 27.3168V27.3168Z" fill="#EA4335"/>
<path d="M60.548 31.3244C59.3493 26.9097 56.8879 22.941 53.4659 19.9052L46.1459 27.2252C47.6715 28.4717 48.894 30.0484 49.7214 31.8363C50.5488 33.6242 50.9594 35.5766 50.9222 37.5463V38.8457C54.5199 38.8457 57.4371 41.7625 57.4371 45.3604C57.4371 48.9585 54.5201 51.8022 50.9222 51.8022H37.8744L36.5933 53.1929V61.007L37.8744 62.233H50.922C60.2806 62.3059 67.9266 54.8516 67.9995 45.493C68.0212 42.7002 67.3523 39.9453 66.0523 37.4733C64.7523 35.0014 62.8614 32.8891 60.548 31.3244" fill="#4285F4"/>
<path d="M24.8446 62.2333H37.8742V51.8022H24.8446C23.9222 51.8021 23.0108 51.6023 22.173 51.2167L20.3244 51.7839L15.0723 56.9994L14.6148 58.7746C17.5602 60.9986 21.1539 62.2492 24.8446 62.2333Z" fill="#34A853"/>
<path d="M24.8446 28.3964C15.486 28.4524 7.94453 36.0846 8.00031 45.4434C8.01569 48.0223 8.61952 50.5637 9.76579 52.874C10.9121 55.1842 12.5705 57.2023 14.6148 58.7746L22.1729 51.217C18.894 49.7352 17.4367 45.8765 18.9182 42.5976C20.3994 39.3187 24.2586 37.8613 27.5373 39.3426C28.9822 39.9954 30.1394 41.1527 30.7921 42.5976L38.3502 35.0395C36.7639 32.9656 34.7193 31.2868 32.3763 30.1343C30.0334 28.9819 27.4556 28.387 24.8446 28.3964" fill="#FBBC05"/>
</svg>
