<svg width="76" height="76" fill="none" xmlns="http://www.w3.org/2000/svg">
  <path d="M38.483 8l26.483 14.98v29.97L38.483 67.932 12 52.951V22.98L38.483 8z" fill="#fff"/>
  <path d="M60.239 51.911L39.362 63.734V54.54l13.012-7.166 7.864 4.537zm1.429-1.289V25.92l-7.635 4.406v15.89l7.635 4.407zm-45.021 1.29l20.876 11.812V54.53l-13.011-7.156-7.865 4.537zm-1.43-1.29V25.92l7.636 4.406v15.89l-7.635 4.407zm.89-26.302l21.416-12.113v8.895l-13.72 7.545-.11.06-7.585-4.388zm44.661 0L39.362 12.207v8.895l13.711 7.554.11.06 7.585-4.397z" fill="#8ED6FB"/>
  <path d="M37.523 52.441l-12.831-7.065V31.395L37.523 38.8v13.641zm1.84 0l12.831-7.055V31.395L39.362 38.8v13.641zM25.55 29.776l12.892-7.085 12.881 7.085-12.881 7.435-12.892-7.435z" fill="#1C78C0"/>
</svg>
