<svg width="76" height="76" viewBox="0 0 76 76" fill="none" xmlns="http://www.w3.org/2000/svg">
<path d="M30.2508 54.4006C30.2508 54.4006 27.9594 55.734 31.8836 56.1839C36.6384 56.727 39.0682 56.6492 44.3066 55.659C44.3066 55.659 45.6866 56.5218 47.6102 57.2697C35.8631 62.3023 21.0253 56.9779 30.2508 54.4006ZM28.8145 47.8322C28.8145 47.8322 26.2439 49.7352 30.1715 50.1419C35.2507 50.6663 39.261 50.709 46.2038 49.3728C46.2038 49.3728 47.1617 50.3461 48.6706 50.8778C34.4706 55.0307 18.6546 51.2046 28.8145 47.8322V47.8322Z" fill="#0074BD"/>
<path d="M40.9144 36.6884C43.8105 40.0218 40.155 43.0188 40.155 43.0188C40.155 43.0188 47.504 39.2258 44.1296 34.4739C40.9769 30.0445 38.5601 27.8445 51.6449 20.2557C51.6449 20.2562 31.1054 25.3844 40.9144 36.6884V36.6884Z" fill="#EA2D2E"/>
<path d="M56.4502 59.2597C56.4502 59.2597 58.1465 60.6584 54.5814 61.7395C47.8029 63.7929 26.3631 64.412 20.4086 61.8216C18.2691 60.8901 22.2827 59.5985 23.5454 59.326C24.862 59.041 25.6137 59.0929 25.6137 59.0929C23.233 57.4168 10.226 62.3855 19.0079 63.8107C42.9554 67.6926 62.661 62.0625 56.4502 59.2597V59.2597ZM31.3539 41.0254C31.3539 41.0254 20.4494 43.6158 27.4927 44.5574C30.4671 44.9554 36.3937 44.8641 41.9181 44.4007C46.4316 44.0215 50.9609 43.2115 50.9609 43.2115C50.9609 43.2115 49.3709 43.8936 48.2192 44.679C37.1436 47.5924 15.7528 46.2354 21.9116 43.2572C27.1182 40.739 31.3539 41.0254 31.3539 41.0254V41.0254ZM50.9158 51.9593C62.1736 46.1109 56.9679 40.4905 53.3345 41.2475C52.4462 41.4326 52.0477 41.5936 52.0477 41.5936C52.0477 41.5936 52.3784 41.0749 53.0091 40.8519C60.1966 38.326 65.7233 48.3037 50.6908 52.2558C50.6908 52.2549 50.8634 52.0986 50.9158 51.9593V51.9593Z" fill="#0074BD"/>
<path d="M44.1296 8C44.1296 8 50.363 14.2372 38.2159 23.8251C28.4747 31.5187 35.9948 35.9044 38.2126 40.9173C32.5258 35.7871 28.3545 31.2702 31.1525 27.0668C35.2613 20.8978 46.644 17.9057 44.1296 8V8Z" fill="#EA2D2E"/>
<path d="M32.4604 67.8118C43.264 68.5025 59.8586 67.4273 60.2513 62.3148C60.2513 62.3148 59.4962 64.2529 51.3219 65.7906C42.0998 67.5268 30.7233 67.3244 23.978 66.2107C23.978 66.2112 25.3599 67.3552 32.4604 67.8118V67.8118Z" fill="#0074BD"/>
</svg>
