<svg width="76" height="76" fill="none" xmlns="http://www.w3.org/2000/svg">
  <path d="M49.566 49.774c2.214-.23 3.893-2.138 3.817-4.428-.076-2.29-1.985-4.122-4.275-4.122h-.153c-2.366.076-4.198 2.06-4.122 4.427.076 1.145.534 2.138 1.221 2.825-2.595 5.115-6.565 8.855-12.52 11.985-4.045 2.138-8.244 2.901-12.442 2.367-3.435-.458-6.107-1.985-7.787-4.504-2.443-3.74-2.672-7.787-.61-11.833 1.45-2.901 3.74-5.039 5.19-6.107-.305-.993-.763-2.672-.992-3.894-11.069 8.016-9.924 18.857-6.565 23.971 2.52 3.818 7.634 6.184 13.283 6.184 1.527 0 3.053-.153 4.58-.534 9.772-1.909 17.176-7.71 21.375-16.337zm13.436-9.467C57.2 33.514 48.65 29.772 38.879 29.772h-1.222a4.195 4.195 0 00-3.74-2.29h-.153c-2.367.076-4.199 2.061-4.122 4.428.076 2.29 1.985 4.122 4.275 4.122h.152a4.3 4.3 0 003.74-2.595h1.375c5.802 0 11.298 1.68 16.26 4.962 3.817 2.52 6.565 5.802 8.092 9.771 1.298 3.207 1.221 6.337-.153 9.009-2.137 4.046-5.725 6.26-10.458 6.26-3.054 0-5.954-.916-7.481-1.603-.84.763-2.367 1.984-3.436 2.748 3.283 1.527 6.642 2.367 9.848 2.367 7.329 0 12.749-4.047 14.81-8.093 2.214-4.428 2.06-12.062-3.664-18.55zm-38.78 10.764c.076 2.29 1.984 4.123 4.274 4.123h.153c2.367-.077 4.199-2.062 4.122-4.428-.076-2.29-1.984-4.122-4.274-4.122h-.153c-.153 0-.382 0-.534.076-3.13-5.191-4.428-10.84-3.97-16.948.305-4.58 1.832-8.55 4.504-11.833 2.214-2.825 6.489-4.199 9.39-4.275 8.091-.152 11.526 9.924 11.756 13.97.992.23 2.671.764 3.817 1.146C52.39 16.413 44.757 10 37.428 10c-6.87 0-13.206 4.962-15.726 12.29-3.511 9.773-1.221 19.162 3.054 26.568-.382.534-.61 1.374-.534 2.214z" fill="#764ABC"/>
</svg>
