<svg width="76" height="76" viewBox="0 0 76 76" fill="none" xmlns="http://www.w3.org/2000/svg">
<path d="M60.7391 20.2254L41.84 9.00472C40.7375 8.34716 39.4776 8 38.1939 8C36.9101 8 35.6502 8.34716 34.5477 9.00472L15.6446 20.2254C14.5269 20.8997 13.6034 21.8526 12.9646 22.9909C12.3257 24.1292 11.9934 25.4139 12.0001 26.7192V49.1569C11.994 50.4616 12.3267 51.7455 12.9655 52.8831C13.6043 54.0207 14.5275 54.973 15.6446 55.647L34.5437 66.8639C35.6464 67.5211 36.9063 67.8681 38.19 67.8681C39.4737 67.8681 40.7336 67.5211 41.8363 66.8639L60.7353 55.647C61.8537 54.9732 62.778 54.0205 63.4175 52.8821C64.057 51.7438 64.3899 50.4588 64.3836 49.1531V26.7192C64.3903 25.4139 64.058 24.1292 63.4191 22.9909C62.7803 21.8526 61.8568 20.8997 60.7391 20.2254V20.2254Z" fill="white"/>
<path d="M60.8467 20.2525L41.9059 9.00715C40.8008 8.34808 39.5381 8.00012 38.2515 8.00012C36.9649 8.00012 35.7022 8.34808 34.5971 9.00715L15.6526 20.2525C14.5324 20.9282 13.6069 21.8832 12.9667 23.0241C12.3264 24.1649 11.9934 25.4524 12.0001 26.7606V49.2477C11.994 50.5552 12.3274 51.842 12.9676 52.9821C13.6078 54.1222 14.533 55.0766 15.6526 55.7521L34.5934 66.9936C35.6985 67.6523 36.9611 68 38.2476 68C39.5342 68 40.7968 67.6523 41.9019 66.9936L60.8427 55.7521C61.9636 55.0768 62.8898 54.1219 63.5308 52.981C64.1717 51.8401 64.5053 50.5523 64.4989 49.2437V26.7606C64.5057 25.4524 64.1726 24.1649 63.5324 23.0241C62.8922 21.8833 61.9668 20.9282 60.8467 20.2525V20.2525ZM35.2571 65.8445L16.3163 54.6029C15.3961 54.0453 14.6359 53.259 14.1096 52.3206C13.5832 51.3821 13.3086 50.3234 13.3126 49.2475V26.7608C13.3083 25.6848 13.5827 24.626 14.1091 23.6876C14.6355 22.7491 15.3959 21.9629 16.3163 21.4056L35.2571 10.16C36.162 9.6202 37.196 9.33518 38.2496 9.33518C39.3033 9.33518 40.3373 9.6202 41.2421 10.16L60.1677 21.4054C60.9385 21.8722 61.5981 22.5016 62.1005 23.2497C62.603 23.9978 62.9361 24.8465 63.0767 25.7366C62.447 24.3979 61.0323 24.0299 59.3825 24.9782L41.4772 36.0678C39.2434 37.3689 37.5974 38.8368 37.5936 41.5295V63.6107C37.5936 65.2225 38.2421 66.2654 39.2434 66.5727C38.9155 66.6328 38.583 66.6646 38.2496 66.6676C37.1963 66.6668 36.1627 66.3825 35.2571 65.8445V65.8445Z" fill="#2F3A3E"/>
<path d="M55.8303 51.3732L51.1226 54.1887C51.0609 54.2136 51.0078 54.2557 50.9695 54.3101C50.9312 54.3645 50.9095 54.4288 50.907 54.4953V55.7328C50.907 55.8842 51.009 55.9447 51.1339 55.8727L55.9137 52.9665C56.0307 52.8786 56.0867 52.7311 56.0574 52.5879V51.5019C56.0537 51.3617 55.944 51.3012 55.8303 51.3729V51.3732Z" fill="#3AB14A"/>
<path d="M45.8122 41.0072C45.9636 40.9315 46.0885 41.0072 46.0922 41.2228L46.1072 42.8653C46.6733 42.6081 47.3049 42.5314 47.9161 42.6457C48.0336 42.6762 48.0826 42.8351 48.0373 43.0243L47.6778 44.4661C47.6505 44.5749 47.5943 44.6743 47.5151 44.7537C47.4873 44.7811 47.4553 44.804 47.4204 44.8217C47.3777 44.8449 47.3284 44.853 47.2805 44.8446C46.6845 44.7126 46.0606 44.8127 45.5358 45.1245C45.1598 45.2939 44.8392 45.5659 44.611 45.9094C44.3827 46.2529 44.256 46.6538 44.2454 47.0661C44.2454 47.8228 44.6239 48.031 45.9446 48.0537C47.6893 48.0842 48.4461 48.8447 48.4651 50.6044C48.4445 51.512 48.2267 52.4042 47.8268 53.2191C47.4268 54.034 46.8543 54.7521 46.149 55.3235L46.1794 56.9356C46.1781 57.0342 46.1521 57.1309 46.1038 57.2169C46.0555 57.3029 45.9864 57.3754 45.9029 57.4278L44.9494 57.9762C44.798 58.0519 44.6729 57.9762 44.6693 57.7643V56.1788C43.8518 56.5193 43.0231 56.5988 42.4932 56.3869C42.3947 56.3489 42.3495 56.2015 42.391 56.0311L42.7355 54.5743C42.7617 54.4589 42.8208 54.3537 42.9057 54.2714C42.9326 54.2457 42.9633 54.2239 42.9966 54.207C43.021 54.196 43.0474 54.1903 43.0742 54.1903C43.1009 54.1903 43.1274 54.196 43.1518 54.207C43.8263 54.3898 44.5458 54.2989 45.1536 53.9536C45.5839 53.7461 45.9492 53.4249 46.2101 53.0247C46.4709 52.6244 46.6173 52.1605 46.6334 51.683C46.6334 50.8655 46.1829 50.525 45.1196 50.5172C43.7459 50.5172 42.4704 50.2524 42.444 48.2466C42.4596 47.3812 42.6665 46.53 43.0499 45.754C43.4333 44.978 43.9837 44.2965 44.6616 43.7583L44.5936 42.1083C44.5934 42.0085 44.6186 41.9102 44.6669 41.8229C44.7152 41.7355 44.785 41.6619 44.8697 41.6091L45.8122 41.0072V41.0072Z" fill="white"/>
</svg>
