<svg width="76" height="76" viewBox="0 0 76 76" fill="none" xmlns="http://www.w3.org/2000/svg">
<path d="M60.8482 20.2486L41.9045 9.00287C40.7988 8.34602 39.5363 7.99956 38.2502 8C36.9641 8.00044 35.7019 8.34776 34.5966 9.00537L15.6528 20.2486C14.5328 20.9245 13.6075 21.8795 12.9672 23.0203C12.3269 24.161 11.9937 25.4484 12.0001 26.7565V49.2455C12.0001 51.9281 13.3927 54.4108 15.6553 55.7534L34.5991 66.9966C35.7043 67.6534 36.9661 68 38.2518 68C39.5374 68 40.7993 67.6534 41.9045 66.9966L60.8482 55.7534C61.9687 55.0778 62.8946 54.1229 63.5353 52.9821C64.176 51.8414 64.5096 50.5538 64.5035 49.2455V26.7565C64.5101 25.4481 64.1767 24.1603 63.536 23.0195C62.8952 21.8786 61.969 20.9238 60.8482 20.2486V20.2486ZM46.1773 55.3659L46.2098 56.981C46.2123 57.176 46.0848 57.3985 45.9323 57.476L44.9747 58.026C44.8222 58.1035 44.6972 58.0085 44.6947 57.8135L44.6772 56.2259C43.8571 56.5659 43.0271 56.6485 42.4971 56.4359C42.3971 56.3959 42.3546 56.2484 42.3946 56.0809L42.7421 54.6208C42.7684 54.5051 42.8284 54.3999 42.9146 54.3183C42.9415 54.2926 42.9718 54.2708 43.0046 54.2533C43.0596 54.2258 43.1121 54.2183 43.1596 54.2383C43.7321 54.4308 44.4622 54.3408 45.1647 53.9858C46.0573 53.5332 46.6548 52.6232 46.6448 51.7181C46.6373 50.8981 46.1923 50.5556 45.1122 50.5481C43.7371 50.5506 42.4521 50.2805 42.4321 48.2554C42.4146 46.5878 43.2821 44.8527 44.6547 43.7551L44.6372 42.125C44.6347 41.925 44.7572 41.705 44.9147 41.625L45.8398 41.0349C45.9923 40.9574 46.1173 41.0524 46.1198 41.2525L46.1348 42.8851C46.8173 42.6125 47.4124 42.54 47.9499 42.6651C48.0674 42.6951 48.1174 42.8551 48.0699 43.0426L47.7099 44.4877C47.6823 44.597 47.6263 44.6971 47.5474 44.7777C47.5193 44.8056 47.4873 44.8292 47.4524 44.8477C47.4091 44.872 47.3585 44.88 47.3099 44.8702C47.0649 44.8152 46.4798 44.6877 45.5623 45.1527C44.5997 45.6402 44.2622 46.4778 44.2697 47.0978C44.2772 47.8404 44.6572 48.0654 45.9723 48.0879C47.7224 48.1179 48.4799 48.883 48.4974 50.6456C48.515 52.3682 47.5924 54.2283 46.1773 55.3659V55.3659ZM56.1104 52.6482C56.1104 52.7982 56.0904 52.9382 55.9654 53.0107L51.1751 55.9209C51.0501 55.9934 50.9501 55.9309 50.9501 55.7809V54.5458C50.9501 54.3958 51.0426 54.3133 51.1676 54.2408L55.8854 51.4181C56.0104 51.3456 56.1104 51.4081 56.1104 51.5581V52.6482ZM59.4007 24.9914L41.4795 36.0596C39.2444 37.3672 37.5967 38.8323 37.5967 41.5275V63.6114C37.5967 65.224 38.2468 66.2691 39.2469 66.5716C38.9186 66.6329 38.5857 66.6655 38.2518 66.6691C37.2017 66.6691 36.1692 66.3841 35.2591 65.844L16.3154 54.6008C15.3954 54.0431 14.6354 53.2567 14.1092 52.3183C13.583 51.3799 13.3086 50.3213 13.3127 49.2455V26.7565C13.3127 24.5539 14.4628 22.5012 16.3154 21.4012L35.2591 10.1554C36.1645 9.61706 37.1984 9.33289 38.2518 9.33289C39.3052 9.33289 40.3391 9.61706 41.2445 10.1554L60.1882 21.4012C60.9589 21.868 61.6185 22.4973 62.1211 23.2452C62.6238 23.993 62.9572 24.8415 63.0984 25.7315C62.4684 24.3914 61.0533 24.0263 59.4007 24.9914V24.9914Z" fill="#8B8B8B"/>
</svg>
