<svg width="76" height="76" fill="none" xmlns="http://www.w3.org/2000/svg">
  <path d="M38.388 9h.136a21.7 21.7 0 012.021 1.094l22.583 12.94a1.643 1.643 0 01.861 1.632c-.016 9.092 0 18.183-.01 27.27a1.684 1.684 0 01-.74 1.051c-8.005 4.59-16.01 9.179-24.017 13.764a1.224 1.224 0 01-1.366.077 11677.1 11677.1 0 01-24.02-13.756 1.454 1.454 0 01-.833-1.38V24.423a1.432 1.432 0 01.805-1.388c7.518-4.306 15.036-8.615 22.554-12.927.67-.38 1.327-.785 2.026-1.108" fill="#019639"/>
  <path d="M23 26.212v22.545a3.11 3.11 0 00.902 2.257 3.524 3.524 0 004.35.428c.445-.299.81-.699 1.062-1.167a3.2 3.2 0 00.384-1.518c0-5.44-.01-10.88 0-16.318A6804.475 6804.475 0 0044.86 50.226a6.003 6.003 0 002.535 1.5 6.061 6.061 0 002.955.124 3.31 3.31 0 001.798-.995 3.216 3.216 0 00.844-1.851c.01-7.67.01-15.338 0-23.005a3.265 3.265 0 00-1.071-2.136A3.372 3.372 0 0049.664 23c-.836 0-1.64.308-2.257.863a3.264 3.264 0 00-1.07 2.136c0 5.526-.034 11.046 0 16.57-4.954-5.742-9.846-11.534-14.78-17.297a5.939 5.939 0 00-2.496-1.839 6.042 6.042 0 00-3.098-.345 3.354 3.354 0 00-2.07 1.023 3.25 3.25 0 00-.892 2.101z" fill="#fff"/>
</svg>
