<svg width="76" height="76" viewBox="0 0 76 76" fill="none" xmlns="http://www.w3.org/2000/svg">
<path d="M22.334 33.9716C22.334 33.9716 12.9986 40.5425 12.6335 43.0457L13.334 42.9017C13.334 42.9017 24.5132 35.4917 33.3749 34.5917L33.5759 33.4667L22.3343 33.9746L22.334 33.9716ZM36.989 33.0326L29.639 38.2481L30.0365 38.567C30.3365 38.3252 43.0985 34.4276 43.0985 34.4276L45.7895 32.7407C43.9841 32.9657 36.9929 33.0326 36.9929 33.0326H36.989ZM43.3796 39.341C48.6011 39.341 56.4281 34.2272 56.4281 34.2272L53.8979 33.7457C53.7728 33.8708 49.8179 33.6071 49.8179 33.6071L47.9405 33.0857L43.4555 38.1965L43.0904 39.0833C43.4129 38.9522 43.3799 39.3413 43.3799 39.3413L43.3796 39.341ZM60.4184 55.6496L58.8053 56.1038L51.3524 55.9427L46.6904 52.3172L41.0552 53.7272L34.5374 53.1632L30.8876 57.1514L24.0392 59.1974L20.6198 58.1372L20.4476 57.989L21.9824 61.7471C21.9824 61.7471 25.4588 65.4743 27.4004 65.9126C29.342 66.3509 32.8499 65.8811 35.4809 65.4737C38.1119 65.0663 40.2101 64.1237 41.0555 62.5928C41.9009 61.0619 42.0263 60.6194 42.0263 60.6194C42.0263 60.6194 44.5322 64.1585 46.6931 64.5659C48.854 64.9733 55.2746 62.7803 55.2746 62.7803C55.2746 62.7803 59.1896 61.7153 59.8784 60.3689C60.5672 59.0225 62.3843 54.6089 62.3843 54.6089L60.4184 55.6529V55.6496ZM21.3368 58.7114L21.2288 58.6616L20.6249 58.1408L21.3371 58.7114H21.3368Z" fill="#CB3349"/>
<path d="M66.7496 29.0255L66.6896 28.4225L66.6251 27.9953C66.0872 27.5423 65.4761 27.1403 64.8395 26.7743C64.1495 26.3714 63.4283 26.0105 62.6915 25.6754L60.4535 24.7133L59.3141 24.2702L58.1636 23.843L60.5681 24.365L62.1101 24.8081C58.4765 15.3116 49.7891 9.12711 40.304 9.12711C30.8189 9.12711 22.1309 15.3116 18.4982 24.8081C19.0091 24.6485 19.5233 24.4991 20.0393 24.365C20.8352 24.1604 21.6362 23.9768 22.4447 23.843L21.2927 24.2702L20.15 24.713C19.394 25.0178 18.6452 25.3301 17.912 25.6751C17.177 26.0102 16.4549 26.3711 15.7652 26.774C15.1292 27.14 14.5181 27.5426 13.9781 27.995C13.9556 28.1321 13.9331 28.28 13.9181 28.4222C13.8941 28.6223 13.8716 28.8236 13.8581 29.0252C13.8227 29.4302 13.8083 29.8361 13.805 30.2432C13.7969 31.0571 13.8518 31.871 13.955 32.6732C14.066 33.4808 14.2142 34.283 14.4335 35.0582C14.5415 35.4467 14.6639 35.8298 14.8055 36.2006C14.8766 36.3857 14.954 36.5681 15.0347 36.7454C15.0745 36.8325 15.1158 36.9189 15.1586 37.0046L15.2102 37.103L15.3923 37.193L15.7535 37.3655L16.4639 37.6955C16.4768 37.6847 16.4891 37.6733 16.5008 37.6613L15.8303 35.1074C15.9725 35.0684 17.2457 34.7399 19.4399 34.3223C19.2599 34.2887 19.0841 34.2503 18.9083 34.2083C18.4088 34.0841 17.9153 33.9323 17.4383 33.7391C17.1983 33.6392 16.9679 33.53 16.7453 33.4046C16.5227 33.2768 16.3037 33.1322 16.1342 32.9402C18.545 33.7268 23.5262 33.3704 27.9542 32.9132C32.0042 32.4962 36.0632 32.2253 40.1432 32.2172C44.2238 32.2253 48.2843 32.4962 52.3322 32.9132C56.762 33.3707 61.7432 33.7271 64.1537 32.9402C63.9845 33.1322 63.7658 33.2771 63.5432 33.4046C63.319 33.5292 63.0878 33.6409 62.8508 33.7391C62.3732 33.9326 61.8806 34.0841 61.3808 34.2083C61.3067 34.2263 61.232 34.2422 61.1579 34.2581C63.5639 34.7045 64.9649 35.0672 65.1143 35.1071L64.4729 37.5371L64.8629 37.3649L65.2235 37.1924L65.4056 37.1024L65.4554 37.004C65.4998 36.9188 65.5417 36.8324 65.5811 36.7448C65.6621 36.5678 65.7395 36.3848 65.8103 36.2C65.9522 35.8292 66.0749 35.4461 66.1823 35.0576C66.4013 34.2821 66.5498 33.4796 66.6608 32.6726C66.7643 31.8671 66.8186 31.0532 66.8108 30.2426C66.8078 29.8358 66.7928 29.4326 66.7568 29.0246L66.7496 29.0255Z" fill="#F4EDAE"/>
<path d="M43.0361 62.798L42.0803 62.9105L41.4623 62.9411L41.3897 62.9426L41.9657 61.6406L43.0361 62.7977V62.798ZM43.73 63.5054C44.7212 64.487 45.9494 65.0492 47.3012 65.1494C45.0302 66.0716 42.8906 66.4274 41.2421 66.5384C39.5987 66.6485 37.9325 66.4544 36.2999 66.0074C36.4187 65.9852 36.538 65.9662 36.6578 65.9504C36.7919 65.9342 39.7196 65.5523 41.0393 63.59H41.1632H41.4872C41.7062 63.59 41.9057 63.572 42.1154 63.5639C42.6068 63.5212 43.0954 63.4508 43.5788 63.353L43.73 63.503V63.5054Z" fill="#E6CCAD"/>
<path d="M46.5392 34.121L46.2248 34.5239C45.6449 35.2571 44.8406 36.1949 43.8866 37.112L40.4654 37.0589C38.5274 37.0589 36.6689 37.1099 34.9043 37.196C37.3943 36.161 40.3931 35.1506 43.6343 34.5434C44.5817 34.364 45.5543 34.2206 46.5365 34.121H46.5392ZM31.946 35.2376C31.0562 35.8628 30.0509 36.6608 29.0762 37.6286C26.5802 37.8785 24.4028 38.1812 22.6061 38.4686C25.3682 37.199 28.52 36.0305 31.946 35.2346V35.2376ZM62.444 40.391L61.4288 47.495L56.5652 50.9015L43.8803 49.4594L41.9708 43.1714C41.9258 43.0214 41.7968 42.9059 41.6384 42.8804C41.1683 42.8045 40.7525 42.7658 40.406 42.7658C40.0595 42.7658 39.644 42.8048 39.1715 42.8804C39.0149 42.9062 38.8865 43.0184 38.8397 43.1714L36.9797 49.3064L24.3656 52.1135L19.364 48.611L18.3791 40.6394L19.0319 40.2794L20.0744 40.0682L21.0026 47.5901C21.0099 47.6481 21.0294 47.7039 21.0597 47.7538C21.0899 47.8038 21.1304 47.8469 21.1784 47.8802L24.617 50.2898C24.6878 50.3378 24.7718 50.3636 24.8555 50.3636C24.8855 50.3636 24.9155 50.3606 24.9473 50.3537L35.3183 48.0461C35.3541 48.038 35.3888 48.0256 35.4215 48.0089C35.4703 47.9832 35.5135 47.948 35.5487 47.9054C35.5838 47.8628 35.6101 47.8136 35.6261 47.7608L37.4936 41.6114C37.9946 41.4824 39.2777 41.1824 40.4054 41.1824C41.5304 41.1824 42.8144 41.4824 43.3154 41.6114L45.1829 47.7608C45.2309 47.9204 45.3701 48.0344 45.5357 48.0539L55.9067 49.232C56.0072 49.2431 56.1098 49.217 56.1923 49.1594L59.6333 46.7519C59.6792 46.7183 59.7181 46.6759 59.7476 46.6272C59.7771 46.5785 59.7967 46.5244 59.8052 46.4681L60.7238 40.0421L62.4437 40.3937L62.444 40.391ZM63.725 35.936L62.8322 39.326C61.0064 38.9234 56.9954 38.1335 51.536 37.6019C53.3198 36.8414 55.136 35.8874 56.795 34.6919C60.044 35.1509 62.429 35.6429 63.725 35.936Z" fill="#656C67"/>
<path d="M27.152 46.532C27.8591 46.1498 28.658 46.2065 29.912 46.208L30.332 46.2065L30.7094 46.1999C31.9982 46.1873 33.0704 46.3097 33.0512 44.2859C33.032 42.2621 32.1326 40.6265 30.845 40.6394C29.5559 40.6505 28.3088 42.3086 28.3859 44.3312C28.4069 44.858 28.4843 45.2381 28.6085 45.5123C27.485 45.7937 27.1754 46.4885 27.158 46.5323L27.152 46.532ZM42.6491 38.207C42.1496 38.612 41.6231 38.987 41.0741 39.3206L39.245 40.4246C38.0978 40.5644 37.1021 40.8482 37.046 40.8647C37.0124 40.8737 36.98 40.8887 36.9509 40.9067C36.8621 40.9577 36.7949 41.0432 36.7619 41.1449L34.8989 47.2829L24.9434 49.4969L21.8078 47.3009L20.8958 39.9107C22.6766 39.5807 25.058 39.2051 27.9158 38.8847C27.6092 39.2522 27.3116 39.6371 27.0293 40.0412L25.3262 42.4862L27.806 40.8332C27.8429 40.8074 29.4221 39.7682 32.0054 38.5052C34.58 38.312 37.4213 38.1872 40.4618 38.1872L42.6458 38.2082L42.6491 38.207Z" fill="#E5CAA3"/>
<path d="M53.5505 45.7025C53.5379 45.6545 53.267 44.8406 52.0679 44.9834C52.2059 44.6825 52.2677 44.2766 52.2239 43.7234C52.0655 41.7044 50.891 40.0994 49.6034 40.1444C48.3158 40.1894 47.4908 41.8634 47.5619 43.8878C47.6327 45.9098 48.7139 45.896 50.0015 45.8507C51.7325 45.8186 52.6835 45.2867 53.5505 45.7058V45.7025ZM59.9045 39.887L59.0069 46.1702L55.8449 48.3842L45.9029 47.2544L44.048 41.1455C44.0274 41.0791 43.9908 41.0188 43.9413 40.9699C43.8919 40.921 43.8311 40.8851 43.7645 40.8653C43.703 40.8473 42.4721 40.4963 41.1665 40.3832L41.405 40.3673C41.6111 40.3523 45.0404 39.9323 49.1351 38.5202C53.6696 38.8682 57.3725 39.4262 59.9042 39.8873L59.9045 39.887Z" fill="#E5CAA3"/>
<path d="M27.152 46.532C27.8591 46.1498 28.658 46.2065 29.912 46.208L30.332 46.2065L30.7094 46.1999C31.9982 46.1873 33.0704 46.3097 33.0512 44.2859C33.032 42.2621 32.1326 40.6265 30.845 40.6394C29.5559 40.6505 28.3088 42.3086 28.3859 44.3312C28.4069 44.858 28.4843 45.2381 28.6085 45.5123C27.485 45.7937 27.1754 46.4885 27.158 46.5323L27.152 46.532ZM42.6491 38.207C42.1496 38.612 41.6231 38.987 41.0741 39.3206L39.245 40.4246C38.0978 40.5644 37.1021 40.8482 37.046 40.8647C37.0124 40.8737 36.98 40.8887 36.9509 40.9067C36.8621 40.9577 36.7949 41.0432 36.7619 41.1449L34.8989 47.2829L24.9434 49.4969L21.8078 47.3009L20.8958 39.9107C22.6766 39.5807 25.058 39.2051 27.9158 38.8847C27.6092 39.2522 27.3116 39.6371 27.0293 40.0412L25.3262 42.4862L27.806 40.8332C27.8429 40.8074 29.4221 39.7682 32.0054 38.5052C34.58 38.312 37.4213 38.1872 40.4618 38.1872L42.6458 38.2082L42.6491 38.207Z" fill="#C7B39A"/>
<path d="M53.5505 45.7025C53.5379 45.6545 53.267 44.8406 52.0679 44.9834C52.2059 44.6825 52.2677 44.2766 52.2239 43.7234C52.0655 41.7044 50.891 40.0994 49.6034 40.1444C48.3158 40.1894 47.4908 41.8634 47.5619 43.8878C47.6327 45.9098 48.7139 45.896 50.0015 45.8507C51.7325 45.8186 52.6835 45.2867 53.5505 45.7058V45.7025ZM59.9045 39.887L59.0069 46.1702L55.8449 48.3842L45.9029 47.2544L44.048 41.1455C44.0274 41.0791 43.9908 41.0188 43.9413 40.9699C43.8919 40.921 43.8311 40.8851 43.7645 40.8653C43.703 40.8473 42.4721 40.4963 41.1665 40.3832L41.405 40.3673C41.6111 40.3523 45.0404 39.9323 49.1351 38.5202C53.6696 38.8682 57.3725 39.4262 59.9042 39.8873L59.9045 39.887Z" fill="#C7B39A"/>
<path d="M64.244 42.6506C64.3964 42.7766 64.514 43.1018 64.3808 44.618C64.2128 46.4744 63.4328 49.733 62.9498 50.258C62.4164 50.3612 61.2983 50.2388 60.6164 50.0795C60.7343 49.6115 60.7679 49.3877 60.863 48.9095L62.0555 48.0755C62.1023 48.0428 62.1418 48.0009 62.1718 47.9524C62.2017 47.9038 62.2213 47.8497 62.2295 47.7932L63.0629 41.9534C63.5687 42.227 64.0889 42.5234 64.2443 42.6509L64.244 42.6506ZM20.2811 50.2724L20.4683 50.9024C19.8263 51.0908 18.5198 51.2714 17.9288 51.1682C17.4389 50.6747 16.5248 47.2784 16.3253 45.4748C16.1624 44.0138 16.2767 43.6976 16.4252 43.5746C16.5977 43.4297 17.2436 43.0622 17.8031 42.7625L18.5591 48.8975C18.5735 49.0154 18.6362 49.1195 18.7349 49.1876L20.2814 50.2727L20.2811 50.2724ZM44.4011 50.3582L44.3561 50.7497C44.3561 50.7497 42.9821 52.0241 40.7693 52.3097C38.5565 52.5953 36.8183 51.2351 36.8183 51.2351C36.8909 51.4715 36.9941 52.0052 37.4951 52.4609C36.9056 52.3904 36.269 52.343 35.6012 52.343C35.361 52.3433 35.1208 52.3494 34.8809 52.3613C33.5189 52.4324 31.6037 54.4913 30.2567 56.5655L25.1387 58.1366C22.9067 55.0466 21.8093 51.884 21.6977 51.557L21.6992 51.5552L21.5672 51.1748L22.1411 51.5762V51.5777L23.5589 52.5677L24.0329 52.8977C24.1037 52.9478 24.1874 52.9736 24.2711 52.9736C24.3018 52.9735 24.3325 52.9704 24.3626 52.9643L37.3931 50.0633C37.5392 50.0312 37.6571 49.9214 37.7006 49.7783L39.5588 43.6583C39.8798 43.6148 40.1612 43.5923 40.403 43.5923C40.6448 43.5923 40.9268 43.6148 41.2475 43.6583L43.1597 49.9574C43.2083 50.117 43.3469 50.2334 43.5107 50.2505L44.4017 50.3525L44.4011 50.3582ZM59.2781 50.0198L59.6987 49.7246L59.4746 50.5934C58.8896 52.4678 58.1996 54.1256 57.4331 55.5902C57.2534 55.6025 57.0733 55.6086 56.8931 55.6085C56.3015 55.6085 55.6973 55.5584 55.0286 55.4975L51.4448 55.1126L47.8028 52.2281L47.6513 52.1021C47.4002 51.8897 47.1113 51.6482 46.5362 51.6482C46.0112 51.6482 45.2438 51.8396 43.3862 52.4006C44.3498 51.6806 44.3561 50.7506 44.3561 50.7506L44.4011 50.3591L56.6255 51.7481C56.7266 51.7592 56.8283 51.7336 56.912 51.6758L59.2745 50.0204L59.2781 50.0198Z" fill="#E6CCAD"/>
<path d="M50.2811 24.3011C50.3183 25.3886 50.291 27.3593 49.7846 29.2046C49.7642 29.2757 49.7672 29.3486 49.7846 29.4158L47.8508 29.2358C48.5744 27.7196 48.7322 26.105 48.7664 25.5362C49.322 25.1411 49.8752 24.6674 50.2814 24.2984L50.2811 24.3011ZM31.8371 25.5386C31.8707 26.1074 32.0285 27.7187 32.7509 29.2337L30.8189 29.4125C30.8363 29.3465 30.8384 29.2754 30.8189 29.2043C30.3131 27.3623 30.2873 25.3901 30.3227 24.3008C30.7286 24.6698 31.2827 25.1408 31.8377 25.5386H31.8371Z" fill="#EBD599"/>
<path d="M53.5505 45.7025C52.6805 45.2837 51.7325 45.8156 50.0021 45.8477C48.7145 45.8927 47.6333 45.9071 47.5625 43.8848C47.4914 41.8607 48.3164 40.187 49.604 40.1414C50.8916 40.0958 52.0661 41.7014 52.2245 43.7204C52.268 44.2766 52.2065 44.6825 52.0685 44.9804C53.2673 44.8373 53.5385 45.6509 53.5505 45.6992V45.7025ZM49.5041 42.7391C49.8671 42.731 50.1566 42.4313 50.1503 42.0686C50.144 41.7059 49.8443 41.4146 49.4798 41.4227C49.3934 41.4242 49.3081 41.4427 49.2288 41.4772C49.1495 41.5117 49.0779 41.5615 49.0179 41.6238C48.9579 41.6861 48.9108 41.7596 48.8793 41.84C48.8478 41.9205 48.8324 42.0065 48.8342 42.0929C48.8402 42.4553 49.1402 42.7457 49.5041 42.7391V42.7391Z" fill="#2D3136"/>
<path d="M49.5038 42.7364C49.8672 42.7297 50.1564 42.4297 50.1498 42.0663C50.1431 41.7028 49.8431 41.4136 49.4797 41.4202C49.1162 41.4269 48.827 41.7269 48.8336 42.0904C48.8403 42.4538 49.1403 42.743 49.5038 42.7364Z" fill="#EDF6FA"/>
<path d="M33.0452 44.2859C33.0641 46.31 31.9922 46.1879 30.7034 46.1999L30.326 46.2065C30.187 46.2103 30.048 46.2108 29.909 46.208C28.6586 46.2065 27.8591 46.1498 27.149 46.532C27.1664 46.4885 27.479 45.794 28.5995 45.512C28.4753 45.2378 28.3976 44.858 28.3769 44.3309C28.2998 42.3089 29.5469 40.6499 30.836 40.6391C32.1251 40.6283 33.023 42.2621 33.0422 44.2859H33.0452ZM31.055 43.2269C31.418 43.2179 31.7045 42.914 31.6949 42.5519C31.685 42.1877 31.3829 41.9009 31.0199 41.9108C30.6554 41.9198 30.3683 42.2228 30.3779 42.5858C30.3875 42.9503 30.6905 43.2368 31.0547 43.2272L31.055 43.2269Z" fill="#2D3136"/>
<path d="M31.0547 43.2283C31.4183 43.2189 31.7055 42.9166 31.6961 42.553C31.6868 42.1895 31.3845 41.9023 31.0209 41.9117C30.6573 41.921 30.3702 42.2233 30.3795 42.5869C30.3888 42.9505 30.6912 43.2376 31.0547 43.2283Z" fill="#EDF6FA"/>
<path opacity="0.8" d="M23.21 30.5465C23.21 30.5465 23.4101 27.9389 23.819 26.9396C24.0296 26.4245 25.3178 26.0996 26.3018 25.8596C27.2858 25.6196 28.8542 25.157 29.159 26.5388C29.4638 27.9206 29.9549 28.9277 30.2828 29.3726L29.8616 23.6816L23.09 25.3235L22.6451 30.359L22.856 30.7571L23.207 30.5462L23.21 30.5465ZM57.4565 30.5465C57.4565 30.5465 57.2567 27.9389 56.8475 26.9396C56.6366 26.4245 55.3484 26.0996 54.365 25.8596C53.3816 25.6196 51.815 25.157 51.5072 26.5388C51.1994 27.9206 50.711 28.9277 50.3828 29.3726L50.8049 23.6816L57.5735 25.3208L58.0184 30.3566L57.8075 30.7547L57.4565 30.5438" fill="#EBD599"/>
<path opacity="0.75" d="M47.8895 13.5134C47.8895 13.5134 47.7101 27.1634 44.5223 27.1634H36.2342C33.0464 27.1634 32.789 13.5224 32.789 13.5224L31.22 18.1508L31.2455 24.5057L32.3576 25.3898L32.8631 28.1186L33.5702 29.7107L47.2148 29.7359L47.8463 28.5959L48.3773 26.6759L48.4535 25.463L49.9604 21.161L47.8868 13.511L47.8895 13.5134ZM57.929 26.2382C57.929 26.2382 58.5851 30.9458 60.3212 31.7948C62.0573 32.6438 60.3212 31.7948 60.3212 31.7948L57.8903 31.0616L57.9293 26.2382H57.929ZM22.6724 26.2382C22.6724 26.2382 22.0163 30.9458 20.2799 31.7948C18.5435 32.6438 20.2799 31.7948 20.2799 31.7948L22.7111 31.0616L22.6721 26.2382H22.6724Z" fill="#EBD599"/>
<path d="M58.3961 31.04C59.2226 31.3106 60.0539 31.5974 60.8069 32.0375C60.404 31.8779 59.9879 31.7636 59.5691 31.6604L58.3091 31.3832L55.7597 30.9851L53.1959 30.7079L50.624 30.5129C47.1902 30.3017 43.7468 30.2489 40.304 30.2453C36.8591 30.2471 33.4154 30.3113 29.984 30.5144C29.1254 30.5642 28.2695 30.6344 27.4124 30.7094C26.5557 30.7815 25.7009 30.8738 24.8486 30.9863C23.9945 31.0898 23.1452 31.2251 22.2992 31.3844C21.876 31.4638 21.4552 31.5557 21.0374 31.6601C20.6174 31.7633 20.2025 31.8776 19.7996 32.0372C20.5496 31.5974 21.3836 31.3091 22.2116 31.0382C22.2812 31.0157 22.3517 30.9962 22.4225 30.974C22.418 30.956 22.4129 30.9401 22.4096 30.9209C22.3952 30.8258 22.0886 28.5629 22.6196 25.3274C22.6454 25.1726 22.7564 25.0469 22.9082 25.0049L23.7833 24.7559C23.9735 17.9684 26.7689 14.7761 26.8562 14.6777C24.3584 18.6968 24.3812 23.4635 24.4244 24.5735L29.8628 23.0279C29.8676 23.0264 29.8706 23.0264 29.8754 23.0249C29.8982 23.0201 29.9204 23.0168 29.9432 23.0153C29.9492 23.0153 29.9582 23.0135 29.9657 23.0135C29.9956 23.0125 30.0255 23.0152 30.0548 23.0216C30.0593 23.0216 30.0638 23.0246 30.0707 23.0264C30.0932 23.0312 30.1142 23.039 30.1379 23.0489C30.1478 23.0537 30.1541 23.0588 30.1637 23.0639C30.182 23.0741 30.1998 23.0853 30.2168 23.0975C30.2216 23.1005 30.227 23.1023 30.2318 23.1074C30.2348 23.1104 30.2378 23.114 30.2414 23.117C30.2462 23.1218 30.2525 23.1251 30.2576 23.1302C30.3819 23.2531 30.5081 23.3742 30.6362 23.4932C30.5816 21.7013 30.6668 16.5608 33.1148 12.3032C33.0632 12.4526 31.121 18.1316 31.7903 24.4967C32.0064 24.6707 32.2294 24.8357 32.459 24.9914C32.5122 25.028 32.5559 25.0767 32.5864 25.1336C32.6169 25.1905 32.6334 25.2539 32.6345 25.3184C32.6363 25.3394 32.6825 27.3683 33.5789 29.0942C33.5915 29.12 33.6011 29.1473 33.6095 29.1746C35.8385 29.0231 38.0729 28.9646 40.3031 28.9604C42.5339 28.9619 44.7671 29.0264 46.9952 29.1794C47.0029 29.1497 47.014 29.1211 47.0282 29.0939C47.924 27.368 47.9708 25.3391 47.9708 25.3181C47.9738 25.1873 48.0398 25.0652 48.1508 24.9881C48.3793 24.8316 48.6019 24.6664 48.818 24.4931C49.4882 18.128 47.546 12.449 47.498 12.2996C49.9439 16.5596 50.0312 21.7004 49.9766 23.4896L50.3546 23.1296C50.3594 23.1248 50.3666 23.1215 50.3705 23.1164C50.3741 23.1134 50.3759 23.1104 50.3804 23.1068C50.3849 23.1032 50.3903 23.1002 50.3954 23.0969C50.4134 23.0843 50.4314 23.0729 50.4485 23.0615C50.4569 23.0585 50.4647 23.0534 50.4725 23.0486C50.4954 23.0388 50.5191 23.0308 50.5433 23.0246C50.5481 23.0246 50.5532 23.0216 50.5583 23.0216C50.5874 23.015 50.6173 23.0123 50.6471 23.0135C50.6552 23.0135 50.6621 23.0153 50.6681 23.0153C50.6913 23.0169 50.7143 23.0201 50.7371 23.0249C50.7407 23.0267 50.7455 23.0267 50.7497 23.0279L56.1887 24.5735C56.2325 23.4635 56.2547 18.6935 53.7575 14.6777C53.8475 14.7761 56.6375 17.9687 56.8286 24.7559L57.7052 25.0049C57.7789 25.0259 57.8451 25.0673 57.8962 25.1244C57.9473 25.1815 57.9811 25.2519 57.9938 25.3274C58.5269 28.5632 58.2194 30.8258 58.2062 30.9209C58.2031 30.9393 58.1989 30.9576 58.1936 30.9755L58.4057 31.04H58.3961ZM57.407 30.7496C57.449 30.3875 57.647 28.4096 57.227 25.7096L51.074 23.96C51.1292 25.0025 51.1535 27.2636 50.5619 29.42C50.554 29.4466 50.5439 29.4725 50.5316 29.4974C50.5925 29.5034 50.654 29.5085 50.7134 29.5166C52.4444 29.7146 54.1634 29.9918 55.8734 30.3656C56.387 30.485 56.9012 30.6125 57.4106 30.7505L57.407 30.7496ZM49.787 29.2046C50.2934 27.3596 50.321 25.3886 50.2835 24.3011C49.8776 24.6701 49.3244 25.1411 48.7685 25.5386C48.7343 26.1074 48.5765 27.722 47.8529 29.2382L49.7867 29.4182C49.7678 29.3492 49.7678 29.2763 49.7867 29.2073L49.787 29.2046ZM32.753 29.234C32.0306 27.719 31.8728 26.1074 31.8392 25.5389C31.2818 25.1441 30.7304 24.6704 30.3242 24.3014C30.2882 25.3904 30.3146 27.3632 30.8204 29.2049C30.8399 29.276 30.8378 29.3468 30.8204 29.4131L32.7524 29.234H32.753ZM30.0731 29.4932C30.0613 29.4693 30.0515 29.4446 30.0437 29.4191C29.4512 27.263 29.4737 25.0022 29.5301 23.9591L23.3732 25.709C22.9592 28.4036 23.1524 30.3839 23.1941 30.7481C23.705 30.6095 24.2141 30.482 24.7331 30.3629C25.5836 30.1745 26.441 30.0167 27.2999 29.8715C28.1609 29.7281 29.024 29.6186 29.8877 29.5139C29.9492 29.5058 30.0089 29.5013 30.0701 29.4929L30.0731 29.4932ZM46.7909 13.6922V18.7997H43.1705V17.3075H42.3545V24.2015H43.5845V28.0565H37.2545V24.2015H38.4821V17.3075H37.6721V18.8H34.0541V13.6919H46.7942L46.7909 13.6922ZM45.7031 17.7146V14.7746H35.1329V17.7146H36.5777V16.2224H39.5669V25.2899H38.3369V26.9717H42.4964V25.2899H41.2664V16.2221H44.2556V17.7143H45.7001L45.7031 17.7146Z" fill="#2D3136"/>
<path d="M35.1329 17.714V14.774H45.7001V17.714H44.2553V16.2218H41.2661V25.2893H42.4961V26.9711H38.3369V25.2893H39.5669V16.2221H36.578V17.7143L35.1329 17.714Z" fill="#CB3349"/>
<path d="M17.2082 35.936L19.3232 35.495L17.4566 36.8741L17.2076 35.936H17.2082Z" fill="#656C67"/>
<path d="M36.53 49.934C36.53 49.934 36.6776 50.8835 35.3486 51.29C34.0196 51.6965 25.604 54.2048 24.644 54.0689C23.684 53.933 21.248 52.3067 21.248 52.3067L20.657 50.2055L24.2618 52.4531L36.5294 49.9343L36.53 49.934ZM44.0696 49.7501C44.0696 49.7501 43.9634 50.7047 45.3086 51.0536C46.6538 51.4025 55.1711 53.5421 56.1236 53.3648C57.0761 53.1875 59.4395 51.4568 59.4395 51.4568L59.9384 49.3316L56.6249 51.308L44.0693 49.7504L44.0696 49.7501Z" fill="#C7B39A"/>
<path d="M16.5236 48.1868C16.5236 48.1868 17.6897 50.5193 19.5734 49.7117L20.9189 50.2052L20.7845 51.1952L17.9585 51.5537L17.1965 51.1055L16.5236 48.1895V48.1868ZM64.265 47.5466C64.265 47.5466 62.3591 49.9811 60.4754 49.1738L59.8694 49.5644L60.0038 50.5544L62.8298 50.9132L63.5918 50.4647L64.265 47.5499V47.5466ZM34.784 65.8712C34.784 65.8712 41.693 69.3512 49.5158 64.6148L47.0036 64.4438C47.0036 64.4438 41.522 66.6134 37.1822 65.4143L34.784 65.8715V65.8712Z" fill="#C7B39A"/>
<path d="M41.7878 59.453L42.266 60.023C42.2768 60.0368 43.3391 61.301 44.6378 62.5886C45.5018 63.4445 46.5449 63.8777 47.7407 63.8777C48.1487 63.8777 48.5777 63.8252 49.0112 63.7208L50.2973 63.4118L54.6287 62.3387C54.8042 62.2889 55.0001 62.2442 55.2062 62.1971C56.3867 61.9241 58.0052 61.5482 58.8623 59.8301L61.0214 55.6421C60.4625 55.9001 59.8766 56.1821 59.4605 56.3981C58.8191 56.735 57.9791 56.8982 56.8931 56.8982C56.2475 56.8982 55.6133 56.8442 54.9116 56.7812C53.5091 56.6522 51.1358 56.3732 51.1115 56.3696L50.9297 56.3495L50.7863 56.2346C50.7653 56.219 48.6854 54.5621 47.0045 53.2406L46.8185 53.0867C46.6385 52.9358 46.6385 52.9358 46.5359 52.9358C45.9968 52.9358 44.4299 53.4218 40.9973 54.4859L40.7864 54.5528L40.5794 54.4748C40.556 54.467 38.3039 53.6348 35.6054 53.6348C35.3868 53.6348 35.1682 53.6404 34.9499 53.6516C34.6799 53.6654 33.1625 54.386 31.2224 57.4556L31.0964 57.6527L30.8744 57.7241C30.8423 57.7352 27.503 58.8131 23.9618 59.8256L23.732 59.891L23.5145 59.7899C23.4914 59.7809 22.1057 59.1377 20.7875 58.5317C21.5066 59.5937 22.4261 60.9191 23.2355 61.9583C24.6485 63.7784 26.4305 65.4605 29.8457 65.4605C30.2971 65.4593 30.7481 65.4328 31.1966 65.381C34.6706 64.988 35.5655 64.8299 36.047 64.7459C36.2099 64.7183 36.3389 64.6949 36.5036 64.6745C36.53 64.6715 39.3746 64.3034 40.1732 62.5127L41.1692 60.2177L41.4596 59.4428C41.4596 59.4428 41.4956 59.2418 41.5547 59.1797L41.5619 59.1857C41.6534 59.2517 41.789 59.4563 41.789 59.4563L41.7878 59.453ZM20.15 24.71C19.3952 25.0142 18.6452 25.328 17.912 25.673C17.177 26.009 16.4552 26.369 15.7655 26.771C15.1295 27.1376 14.5184 27.5399 13.9793 27.9938C13.9562 28.1303 13.9343 28.2794 13.9163 28.4207L13.8539 29.0237C13.8179 29.4275 13.8041 29.8346 13.7999 30.2417C13.7921 31.0556 13.8479 31.8695 13.9505 32.6753C14.0621 33.4829 14.2097 34.2863 14.4287 35.0609C14.5376 35.4494 14.6588 35.8328 14.8016 36.2021C14.8715 36.389 14.9492 36.5705 15.0302 36.7475C15.07 36.8346 15.1113 36.921 15.1541 37.0067L15.2057 37.1045C15.2657 37.1355 15.3262 37.1655 15.3872 37.1945L15.749 37.3667L16.4588 37.6946C16.4726 37.6835 16.4852 37.6712 16.496 37.6604L15.827 35.1074C15.968 35.0684 17.2421 34.7393 19.4366 34.3214C19.2566 34.2884 19.0796 34.25 18.9041 34.2074C18.4055 34.0835 17.9111 33.9314 17.4347 33.7385C17.1986 33.6377 16.9637 33.5285 16.7417 33.4025C16.5197 33.2765 16.3007 33.131 16.1312 32.9384C18.5411 33.728 23.522 33.371 27.95 32.915C32 32.4971 36.0584 32.2271 40.1384 32.2175C44.2184 32.2265 48.2798 32.4965 52.3274 32.915C56.7584 33.3716 61.7396 33.7289 64.1492 32.9414C63.98 33.134 63.7613 33.278 63.539 33.4055C63.3167 33.533 63.0824 33.6401 62.846 33.7415C62.3675 33.9341 61.8752 34.0865 61.3751 34.2104L61.1531 34.2602C63.5591 34.706 64.9601 35.0693 65.1089 35.1098L64.4675 37.5419L64.8539 37.3697L65.216 37.1975L65.3978 37.1075L65.4476 37.0097C65.4915 36.9243 65.5334 36.8378 65.5733 36.7505C65.6543 36.5735 65.7317 36.3917 65.8034 36.2051C65.9452 35.8308 66.0689 35.45 66.1742 35.0639C66.3932 34.289 66.5426 33.4859 66.6527 32.6783C66.7565 31.8725 66.8111 31.0583 66.8033 30.2447C66.8003 29.8379 66.7847 29.4308 66.7505 29.0267C66.7334 28.8248 66.7115 28.6247 66.6866 28.4237C66.6687 28.2809 66.6474 28.1386 66.6227 27.9968C66.0836 27.5429 65.4737 27.1409 64.8365 26.774C64.1465 26.372 63.4253 26.012 62.6885 25.676C61.9571 25.331 61.2056 25.0175 60.4505 24.713L59.3105 24.2702L58.16 23.8433C58.9688 23.9768 59.771 24.1613 60.5639 24.3653C61.0817 24.5002 61.596 24.6484 62.1062 24.8096C58.4762 15.3122 49.7852 9.128 40.3007 9.128C30.8141 9.128 22.1279 15.3122 18.4955 24.8096C19.0061 24.6497 19.5203 24.4991 20.036 24.3656C20.831 24.1622 21.6326 23.9774 22.442 23.8436L21.2894 24.2705C20.9075 24.4128 20.5276 24.5603 20.1497 24.713L20.15 24.71ZM67.979 30.2048C68.0228 31.079 67.9994 31.9547 67.9016 32.8247C67.8101 33.6929 67.6454 34.5533 67.4156 35.4062C67.2959 35.8326 67.1554 36.253 66.9944 36.6656C66.9119 36.8735 66.8234 37.0805 66.7244 37.2866C66.6754 37.3908 66.6231 37.4933 66.5675 37.5941L66.4823 37.7477C66.4511 37.8035 66.4262 37.8455 66.3779 37.9199L66.2897 38.057L66.1517 38.1281C66.0189 38.1963 65.8847 38.2616 65.7491 38.324L65.3597 38.4995C65.0994 38.6102 64.8374 38.7167 64.5737 38.819L64.0751 39.0212L63.6419 40.6673L63.257 40.5728L63.2336 40.745C63.7118 40.9949 64.6514 41.5016 64.9715 41.7659C65.6159 42.2984 65.6615 43.142 65.5184 44.7179C65.4452 45.527 65.1764 47.1017 64.8044 48.548C64.1612 51.0374 63.8195 51.3299 63.3785 51.443C63.0833 51.5167 62.7804 51.5552 62.4761 51.5579C61.7963 51.5579 60.8702 51.5768 60.2471 51.4259C60.0872 51.9923 59.6306 53.4695 58.7267 55.3145C58.7717 55.2926 58.8167 55.274 58.8572 55.2524C59.9723 54.6668 62.1152 53.7332 62.2058 53.6924L63.8987 52.9568L63.0287 54.5873C63.0086 54.6227 61.1495 58.1192 60.0107 60.4022C58.8797 62.6636 56.7602 63.1562 55.4912 63.4472L54.9713 63.5747C54.0608 63.8309 52.2173 64.2707 50.5913 64.6616C50.5721 64.6664 50.5523 64.6715 50.5322 64.6742C49.5317 65.2922 48.44 65.8442 47.2457 66.2972C42.8753 67.9526 38.2688 67.8596 34.0925 66.3248L31.3346 66.6539C30.8381 66.7106 30.3388 66.7397 29.8391 66.7412C25.8599 66.7412 23.7509 64.7204 22.2116 62.7422C20.5637 60.6236 18.548 57.4784 18.4625 57.3467L17.3 55.5278L19.2755 56.4158L23.837 58.5158L24.0296 58.46C22.6925 56.5529 21.596 54.3785 20.8211 51.9698C20.1626 52.1684 19.1483 52.3223 18.3593 52.3223C18.0713 52.3223 17.8127 52.3007 17.6141 52.2539C17.1731 52.1531 16.6697 51.7277 15.9851 49.3154C15.5876 47.915 15.2909 46.3862 15.2042 45.5993C15.0332 44.0633 15.0644 43.2401 15.7028 42.7085C16.0877 42.3875 17.3858 41.7053 17.6549 41.5655L17.5973 41.0915C13.4723 43.5155 11.0003 45.6575 10.9502 45.7013L8 48.2906L10.1015 44.9765C11.7647 42.35 13.6859 40.2269 15.4535 38.5913L15.2435 38.5031L14.8535 38.3276C14.72 38.2652 14.5985 38.2076 14.4515 38.1317L14.3135 38.0606L14.225 37.9235C14.1752 37.8485 14.1536 37.8071 14.1209 37.7513L14.0309 37.5977L13.8755 37.2902C13.779 37.0864 13.6899 36.8792 13.6085 36.6689C13.4474 36.2563 13.3068 35.836 13.1873 35.4095C12.9563 34.5566 12.7928 33.6995 12.7013 32.828C12.6053 31.958 12.5801 31.082 12.6233 30.2081C12.6468 29.7711 12.6887 29.3353 12.749 28.9019C12.7802 28.6844 12.8129 28.4669 12.8564 28.2509C12.9002 28.027 12.9521 27.8048 13.0118 27.5846L13.0583 27.4154L13.1795 27.3203C13.8677 26.7797 14.6099 26.3714 15.3647 26.0093C15.9842 25.7205 16.6159 25.4586 17.258 25.2245C19.0409 20.2766 22.1066 15.8891 26.135 12.8315C30.3011 9.671 35.1992 8 40.301 8C45.4028 8 50.3012 9.671 54.4664 12.8318C58.4954 15.8897 61.5614 20.2778 63.3428 25.2239C63.9827 25.46 64.6148 25.7159 65.2376 26.0099C65.9921 26.3717 66.7376 26.78 67.4225 27.3209L67.5437 27.416L67.5905 27.5852C67.6516 27.805 67.7033 28.0273 67.7456 28.2515C67.7886 28.4672 67.8243 28.6844 67.8527 28.9025C67.9144 29.3356 67.9563 29.7712 67.9784 30.2081L67.979 30.2048ZM64.3805 44.6138C64.5173 43.0982 64.3979 42.7718 64.244 42.6476C64.0901 42.5186 63.5699 42.224 63.0635 41.9486L62.2295 47.7878C62.2214 47.8443 62.2018 47.8985 62.1718 47.9472C62.1419 47.9958 62.1023 48.0377 62.0555 48.0704L60.8624 48.9044C60.7679 49.3823 60.7334 49.6079 60.6173 50.0753C61.2992 50.2337 62.4173 50.3567 62.9498 50.2538C63.4334 49.7294 64.214 46.4738 64.3802 44.6132L64.3805 44.6138ZM62.8325 39.3194L63.7256 35.9294C62.4302 35.636 60.0446 35.1449 56.7956 34.685C55.1366 35.8778 53.321 36.8315 51.5366 37.592C56.9966 38.123 61.0076 38.9138 62.8325 39.3161V39.3194ZM61.4285 47.4905L62.444 40.3877L60.725 40.0367L59.807 46.4633C59.7899 46.5767 59.7275 46.6808 59.6345 46.7462L56.1929 49.1531C56.1102 49.211 56.0092 49.2369 55.9088 49.226L45.5372 48.047C45.4563 48.0381 45.3798 48.0057 45.3171 47.9538C45.2545 47.9019 45.2083 47.8329 45.1844 47.7551L43.3163 41.6051C42.8159 41.4761 41.5313 41.1761 40.4075 41.1761C39.2783 41.1761 37.9955 41.4761 37.4951 41.6051L35.6267 47.7551C35.6105 47.8077 35.5841 47.8565 35.549 47.8988C35.5139 47.9412 35.4708 47.9761 35.4221 48.0017C35.3909 48.0188 35.3552 48.0311 35.3192 48.0392L24.95 50.351C24.917 50.3576 24.8894 50.3609 24.8582 50.3609C24.7731 50.3613 24.69 50.3351 24.6206 50.2859L21.1805 47.8769C21.0845 47.81 21.0203 47.7044 21.005 47.5865L20.078 40.0649L19.034 40.2758L18.3818 40.6397L19.3658 48.6101L24.3656 52.1126L36.9797 49.3064L38.8418 43.1714C38.8642 43.0964 38.9072 43.0291 38.966 42.9774C39.0248 42.9257 39.0969 42.8915 39.1742 42.8789C39.6464 42.803 40.0592 42.7643 40.409 42.7643C40.7549 42.7643 41.1698 42.8033 41.6405 42.8789C41.7989 42.9038 41.9276 43.0169 41.9729 43.1714L43.8827 49.4582L56.5673 50.9006L61.4303 47.4935L61.4285 47.4905ZM59.0075 46.1675L59.9051 39.8831C57.3731 39.4223 53.6711 38.8649 49.136 38.5169C45.0419 39.929 41.6129 40.3493 41.4062 40.3634L41.1671 40.3805C42.473 40.4927 43.7033 40.8437 43.7651 40.862C43.9007 40.9025 44.0063 41.006 44.0483 41.1419L45.9041 47.2517L55.8455 48.3809L59.0075 46.1675V46.1675ZM59.6984 49.721L59.2772 50.0159L56.915 51.6719C56.831 51.7295 56.729 51.7559 56.6288 51.7448L43.5152 50.2538C43.4344 50.2445 43.3582 50.2118 43.2958 50.1597C43.2333 50.1077 43.1875 50.0385 43.1639 49.9607L41.2508 43.6613C40.931 43.6178 40.6466 43.5953 40.4108 43.5953C40.1678 43.5953 39.8858 43.6172 39.5657 43.6613L37.7081 49.7789C37.6646 49.9217 37.5467 50.0309 37.4006 50.0627L24.3665 52.97C24.3364 52.9759 24.3057 52.9789 24.275 52.979C24.191 52.979 24.107 52.9541 24.0356 52.9031L23.5622 52.5737L22.1444 51.5816V51.5786L21.5744 51.1781C21.6149 51.3071 21.6614 51.4331 21.7064 51.5585L21.7046 51.5603C21.815 51.8879 22.913 55.0469 25.1447 58.1393L30.2618 56.5691C31.6082 54.494 33.5249 52.436 34.8872 52.3649C35.1272 52.3532 35.3675 52.3471 35.6078 52.3466C36.2406 52.3486 36.8727 52.388 37.5008 52.4645C36.9998 52.0094 36.8969 51.4751 36.824 51.239C36.824 51.239 38.5619 52.598 40.775 52.3142C42.9884 52.0283 44.363 50.753 44.363 50.753C44.363 50.753 44.357 51.6836 43.3922 52.4039C45.2468 51.8429 46.0142 51.6509 46.5392 51.6509C47.1182 51.6509 47.4041 51.8933 47.6543 52.1069C47.7023 52.1459 47.7509 52.1873 47.8064 52.2329L51.4484 55.1171L55.0313 55.502C55.7003 55.562 56.3048 55.6136 56.8964 55.6136C57.0875 55.6136 57.2663 55.6058 57.4355 55.5947C58.2029 54.1307 58.8926 52.4717 59.4779 50.5988C59.5574 50.3101 59.6318 50.0199 59.7008 49.7285L59.6984 49.721ZM55.1882 34.2431C55.1852 34.2413 55.1822 34.2395 55.1792 34.2395L52.2314 34.0445L48.1313 33.8441C47.9781 34.0695 47.8206 34.2921 47.6591 34.5116C46.9151 35.5181 45.4397 37.3616 43.5479 38.9306C46.2257 38.4506 50.8709 37.2626 54.8888 34.4591L55.1888 34.2437L55.1882 34.2431ZM46.2254 34.5209L46.5386 34.1189C45.5659 34.2175 44.598 34.3584 43.6376 34.5413C40.3934 35.1485 37.3976 36.1583 34.9076 37.1924C36.7602 37.102 38.6148 37.0565 40.4696 37.0559C41.642 37.0559 42.782 37.076 43.8908 37.1087C44.8448 36.1919 45.6488 35.2541 46.2284 34.5209H46.2254ZM47.3015 65.1464C45.9506 65.0468 44.7221 64.4849 43.7306 63.5033L43.58 63.3497C43.0962 63.4473 42.6073 63.5178 42.1157 63.5609C41.9063 63.5687 41.7077 63.587 41.4887 63.587L41.1638 63.59L41.0399 63.587C39.7211 65.549 36.7919 65.9309 36.6584 65.948C36.5375 65.9618 36.4382 65.9789 36.3014 66.0038C37.934 66.4508 39.6002 66.6452 41.2436 66.5348C42.8912 66.4247 45.0317 66.0674 47.3021 65.1464H47.3015ZM42.0815 62.9084C42.3983 62.8835 42.7166 62.843 43.0367 62.795C42.6726 62.4161 42.3158 62.0303 41.9663 61.6379L41.3903 62.9399H41.4632C41.6606 62.9402 41.8766 62.9189 42.0812 62.9087L42.0815 62.9084ZM41.0753 39.3188C41.6234 38.9879 42.1499 38.609 42.6503 38.2052L40.4669 38.1836C37.645 38.184 34.8241 38.2901 32.0102 38.5019C29.4302 39.7649 27.8477 40.8035 27.8108 40.8299L25.3304 42.4841L27.0344 40.0391C27.3155 39.6332 27.6134 39.2483 27.9212 38.882C25.0604 39.2018 22.6781 39.581 20.9012 39.9086L21.8126 47.2982L24.9485 49.4942L34.9037 47.2808L36.7673 41.1416C36.7985 41.0405 36.8663 40.9556 36.9554 40.9037C36.9846 40.8849 37.0164 40.8708 37.0499 40.8617C37.1075 40.8461 38.0999 40.5617 39.2507 40.4222L41.0789 39.3182L41.0753 39.3188ZM42.2201 33.6824L40.1387 33.6638L37.0817 33.6968L35.2007 34.5878C35.1992 34.5893 35.1887 34.5938 35.1743 34.6022C34.8917 34.7402 32.4221 35.9861 30.0983 38.2082C32.1812 37.1132 35.2421 35.6828 38.8442 34.5737C39.9233 34.2431 41.054 33.9383 42.2192 33.6821L42.2201 33.6824ZM29.075 37.628C30.05 36.6605 31.0565 35.8622 31.9451 35.2379C28.5206 36.0329 25.3682 37.2008 22.6067 38.4713C24.4037 38.1809 26.5793 37.8782 29.0747 37.6283L29.075 37.628ZM29.723 34.643C30.8705 34.3214 32.054 34.04 33.2669 33.8042L28.049 34.0466L25.0295 34.2467L23.5274 34.3802C23.3846 34.394 23.2448 34.4096 23.102 34.4282C21.791 35.2124 16.7639 38.3684 13.313 42.4952C16.667 40.1642 22.5092 36.6623 29.723 34.6433V34.643ZM20.468 50.903C20.4026 50.6938 20.3404 50.4836 20.2817 50.2724L18.7331 49.1888C18.685 49.1554 18.6445 49.1122 18.6143 49.0622C18.584 49.0121 18.5646 48.9562 18.5573 48.8981L17.8025 42.7631C17.2433 43.0631 16.5974 43.4306 16.4249 43.5752C16.2758 43.6982 16.1624 44.0132 16.3241 45.4748C16.5245 47.2748 17.4377 50.6747 17.9285 51.1688C18.5189 51.2729 19.8266 51.0914 20.468 50.903ZM19.3235 35.495L17.2085 35.936L17.4575 36.8741C18.0624 36.3914 18.685 35.9314 19.3241 35.495H19.3235Z" fill="#2D3136"/>
</svg>
