<svg width="68" height="68" viewBox="0 0 68 68" fill="none" xmlns="http://www.w3.org/2000/svg">
<path d="M25.8974 50.2499C25.8974 50.2499 23.6628 51.5502 27.4897 51.9889C32.1266 52.5186 34.4961 52.4427 39.6045 51.477C39.6045 51.477 40.9503 52.3184 42.8263 53.0478C31.3705 57.9556 16.9006 52.7633 25.8974 50.2499ZM24.4967 43.8444C24.4967 43.8444 21.9899 45.7002 25.82 46.0967C30.7733 46.6081 34.6841 46.6499 41.4547 45.3467C41.4547 45.3467 42.3889 46.296 43.8603 46.8144C30.0125 50.8644 14.5888 47.1331 24.4967 43.8444V43.8444Z" fill="#0074BD"/>
<path d="M36.2966 32.9769C39.1208 36.2277 35.5559 39.1503 35.5559 39.1503C35.5559 39.1503 42.7227 35.4514 39.432 30.8174C36.3575 26.4978 34.0006 24.3524 46.7609 16.9517C46.7609 16.9522 26.7308 21.9533 36.2966 32.9769V32.9769Z" fill="#EA2D2E"/>
<path d="M51.447 54.9884C51.447 54.9884 53.1013 56.3525 49.6245 57.4067C43.0142 59.4092 22.1061 60.013 16.2992 57.4869C14.2128 56.5784 18.1269 55.3189 19.3583 55.0531C20.6422 54.7752 21.3753 54.8258 21.3753 54.8258C19.0536 53.1913 6.36923 58.0367 14.9333 59.4266C38.2869 63.2122 57.5038 57.7217 51.447 54.9884V54.9884ZM26.9731 37.2064C26.9731 37.2064 16.3391 39.7325 23.2077 40.6508C26.1083 41.0389 31.888 40.9498 37.2753 40.498C41.6769 40.1281 46.0939 39.3383 46.0939 39.3383C46.0939 39.3383 44.5433 40.0034 43.4202 40.7694C32.6192 43.6105 11.7589 42.2872 17.765 39.3828C22.8425 36.927 26.9731 37.2064 26.9731 37.2064V37.2064ZM46.0499 47.8691C57.0284 42.1658 51.9519 36.6847 48.4086 37.423C47.5424 37.6034 47.1538 37.7605 47.1538 37.7605C47.1538 37.7605 47.4763 37.2547 48.0913 37.0372C55.1005 34.5739 60.4902 44.3042 45.8305 48.1583C45.8305 48.1573 45.9988 48.005 46.0499 47.8691V47.8691Z" fill="#0074BD"/>
<path d="M39.432 5C39.432 5 45.5108 11.0825 33.665 20.4327C24.1653 27.9355 31.4989 32.2124 33.6617 37.1009C28.1159 32.098 24.0481 27.6931 26.7767 23.5939C30.7836 17.578 41.884 14.66 39.432 5V5Z" fill="#EA2D2E"/>
<path d="M28.0522 63.3285C38.5878 64.0021 54.7709 62.9535 55.1539 57.9678C55.1539 57.9678 54.4175 59.8578 46.4459 61.3574C37.4525 63.0505 26.3581 62.8531 19.7802 61.7671C19.7802 61.7675 21.1278 62.8831 28.0522 63.3285V63.3285Z" fill="#0074BD"/>
</svg>
