<svg width="76" height="76" viewBox="0 0 76 76" fill="none" xmlns="http://www.w3.org/2000/svg">
<path d="M26.9969 66.0161C25.6119 66.0161 24.3039 65.4007 23.419 64.2849L9.95398 47.5495C9.06905 46.4337 8.7229 45.0104 9.06905 43.6252L13.8781 22.7348C14.1858 21.3497 15.1091 20.2339 16.3789 19.6185L35.8458 10.3079C36.4615 10.0005 37.154 9.8465 37.8465 9.8465C38.539 9.8465 39.2313 10.0002 39.847 10.3082L59.3141 19.5801C60.5836 20.1955 61.507 21.3113 61.8147 22.6963L66.6237 43.5867C66.9317 44.9718 66.6237 46.3953 65.739 47.511L52.2736 64.2465C51.3886 65.3236 50.0807 65.9777 48.6956 65.9777L26.9974 66.0161H26.9969Z" fill="#326DE6"/>
<path d="M37.8076 10.8083C38.3464 10.8083 38.8849 10.9236 39.3851 11.1544L58.8522 20.4263C59.8524 20.9265 60.6218 21.8498 60.8527 22.9272L65.6617 43.8176C65.931 44.9333 65.6617 46.0876 64.9307 46.9723L51.4655 63.708C50.773 64.5927 49.6956 65.0928 48.5801 65.0928H26.9969C25.8811 65.0928 24.804 64.5927 24.1115 63.708L10.6463 46.9723C9.95374 46.0876 9.68423 44.9333 9.9153 43.8176L14.7243 22.9272C14.9936 21.8114 15.7246 20.888 16.7248 20.4263L36.1922 11.1162C36.6923 10.9238 37.2693 10.8085 37.8078 10.8085L37.8076 10.8083ZM37.8076 9C36.9998 9 36.1919 9.19241 35.4223 9.53855L15.9554 18.8491C14.4164 19.5801 13.3393 20.9265 12.9545 22.5808L8.14543 43.4714C7.76085 45.1257 8.14543 46.8185 9.22278 48.1651L22.688 64.9006C23.7269 66.2086 25.3042 66.9395 26.9585 66.9395H48.5414C50.1957 66.9395 51.7732 66.2086 52.8119 64.9006L66.2774 48.1649C67.3545 46.8569 67.7393 45.1257 67.3545 43.4712L62.5454 22.5808C62.1609 20.9265 61.0835 19.5801 59.5447 18.8491L40.1545 9.53832C39.4235 9.19241 38.6157 9 37.8076 9V9Z" fill="white"/>
<path d="M57.3131 42.1633C57.2747 42.1633 57.2747 42.1633 57.3131 42.1633H57.2747C57.2363 42.1633 57.1978 42.1633 57.1978 42.1248C57.121 42.1248 57.0441 42.0864 56.967 42.0864C56.6977 42.0479 56.4669 42.0095 56.236 42.0095C56.1205 42.0095 56.0052 42.0095 55.8512 41.9708H55.8128C55.005 41.894 54.3509 41.8171 53.7352 41.6247C53.4659 41.5092 53.3891 41.3554 53.312 41.2014C53.312 41.163 53.2735 41.163 53.2735 41.1246L52.7734 40.9708C53.0097 39.161 52.9185 37.3235 52.5041 35.5459C52.0841 33.7536 51.355 32.0482 50.3497 30.5061L50.7345 30.1599V30.0831C50.7345 29.8907 50.7729 29.6982 50.9267 29.5058C51.3884 29.0826 51.9656 28.7364 52.6581 28.3132C52.7734 28.2363 52.8887 28.1979 53.0042 28.1208C53.2351 28.0055 53.4275 27.8902 53.6583 27.7362C53.6968 27.6978 53.7736 27.6593 53.8507 27.5825C53.8892 27.5438 53.9276 27.5438 53.9276 27.5054C54.4662 27.0437 54.5817 26.2743 54.1969 25.7739C54.0045 25.5047 53.6583 25.3509 53.312 25.3509C53.0045 25.3509 52.735 25.4662 52.4657 25.6586L52.3888 25.7355C52.312 25.7739 52.2733 25.851 52.1964 25.8895C52.004 26.0819 51.85 26.2356 51.6963 26.428C51.6194 26.5049 51.5426 26.6204 51.427 26.6973C50.8882 27.2745 50.3881 27.7362 49.888 28.0823C49.7727 28.1592 49.6574 28.1979 49.5418 28.1979C49.465 28.1979 49.3879 28.1979 49.311 28.1592H49.2341L48.7722 28.4672C48.2721 27.9286 47.7335 27.4669 47.195 27.0052C44.876 25.1925 42.085 24.0841 39.1542 23.8119L39.1158 23.3118L39.0389 23.2349C38.9233 23.1194 38.7696 23.0041 38.7309 22.7348C38.6925 22.1191 38.7696 21.4266 38.8465 20.6572V20.6188C38.8465 20.5032 38.8849 20.3495 38.9233 20.234C38.9618 20.0033 39.0002 19.7723 39.0389 19.503V19.1568C39.0389 18.4643 38.5001 17.8873 37.8462 17.8873C37.5383 17.8873 37.2306 18.0411 36.9997 18.2719C36.7691 18.5028 36.6536 18.8105 36.6536 19.1568V19.4646C36.6536 19.7338 36.692 19.9647 36.7689 20.1955C36.8073 20.3111 36.8073 20.4264 36.8458 20.5803V20.6188C36.9226 21.3882 37.0382 22.0807 36.9613 22.6963C36.9229 22.9656 36.7689 23.0809 36.6536 23.1965L36.5767 23.2733L36.5381 23.7735C35.8455 23.8503 35.153 23.9272 34.4605 24.0812C31.4982 24.7353 28.8821 26.2358 26.8432 28.3901L26.4583 28.1208H26.3815C26.3046 28.1208 26.2275 28.1592 26.1506 28.1592C26.0351 28.1592 25.9198 28.1208 25.8042 28.0439C25.3041 27.6978 24.804 27.1974 24.2655 26.6204C24.1886 26.5436 24.1117 26.428 23.9962 26.3512C23.8422 26.1587 23.6882 26.0048 23.4958 25.8126C23.4574 25.7739 23.3805 25.7357 23.3037 25.6586C23.2652 25.6202 23.2268 25.6202 23.2268 25.5818C22.9884 25.3848 22.6895 25.2761 22.3803 25.2738C22.0339 25.2738 21.6878 25.4278 21.4953 25.6971C21.1105 26.1972 21.2261 26.9666 21.7646 27.4283C21.8031 27.4283 21.8031 27.4669 21.8415 27.4669C21.9184 27.5054 21.957 27.5822 22.0339 27.6207C22.2647 27.7744 22.4572 27.8899 22.688 28.0055C22.8035 28.0439 22.9188 28.1208 23.0344 28.1979C23.7267 28.6209 24.3039 28.9673 24.7656 29.3905C24.958 29.5827 24.958 29.7751 24.958 29.9675V30.0444L25.3426 30.3908C25.2657 30.5061 25.1888 30.5832 25.1502 30.6985C23.2265 33.7379 22.4956 37.3158 22.9957 40.8553L22.4956 41.009C22.4956 41.0477 22.4572 41.0477 22.4572 41.0859C22.3803 41.2399 22.2647 41.3939 22.0339 41.5092C21.4569 41.7016 20.7644 41.7787 19.9566 41.8555H19.9179C19.8026 41.8555 19.6486 41.8555 19.5333 41.894C19.3025 41.894 19.0716 41.9324 18.8023 41.9708C18.7255 41.9708 18.6486 42.0095 18.5715 42.0095C18.5331 42.0095 18.4946 42.0095 18.456 42.0479C17.7634 42.2017 17.3402 42.8558 17.4557 43.4712C17.5713 44.01 18.0714 44.3564 18.6868 44.3564C18.8023 44.3564 18.8792 44.3564 18.9948 44.3177C19.0332 44.3177 19.0716 44.3177 19.0716 44.2793C19.1485 44.2793 19.2254 44.2408 19.3022 44.2408C19.5717 44.164 19.7641 44.0871 19.995 43.9716C20.1103 43.9331 20.2256 43.856 20.3411 43.8178H20.3796C21.1105 43.5483 21.7646 43.3175 22.3803 43.2406H22.4572C22.688 43.2406 22.842 43.3559 22.9573 43.433C22.9957 43.433 22.9957 43.4714 23.0341 43.4714L23.5729 43.3946C24.4963 46.2413 26.2659 48.7806 28.6128 50.6273C29.1513 51.0503 29.6899 51.3967 30.2671 51.7431L30.0363 52.243C30.0363 52.2816 30.0747 52.2816 30.0747 52.3198C30.1516 52.4738 30.2284 52.6662 30.1516 52.9355C29.921 53.5127 29.5746 54.0897 29.1513 54.7438V54.7822C29.0745 54.8978 28.9976 54.9746 28.9207 55.0899C28.7668 55.2823 28.6512 55.4748 28.4972 55.7056C28.4588 55.744 28.4204 55.8209 28.3819 55.898C28.3819 55.9364 28.3435 55.9749 28.3435 55.9749C28.0358 56.629 28.2666 57.3599 28.8436 57.6292C28.9974 57.7061 29.1513 57.7447 29.3053 57.7447C29.767 57.7447 30.2287 57.4368 30.4595 57.0135C30.4595 56.9751 30.498 56.9367 30.498 56.9367C30.5364 56.8598 30.5748 56.7829 30.6133 56.7443C30.7288 56.475 30.7672 56.2826 30.8441 56.0517L30.9596 55.7056C31.2289 54.9362 31.4213 54.3205 31.7675 53.782C31.9212 53.5512 32.1139 53.5127 32.2676 53.4356C32.306 53.4356 32.306 53.4356 32.3445 53.3972L32.614 52.8971C34.3067 53.5511 36.1535 53.8973 38 53.8973C39.1158 53.8973 40.27 53.782 41.3473 53.5127C42.0252 53.3611 42.6933 53.1684 43.3478 52.9355L43.5784 53.3587C43.6171 53.3587 43.6171 53.3587 43.6555 53.3972C43.8479 53.4356 44.0016 53.5127 44.1556 53.7436C44.4633 54.2821 44.6942 54.9362 44.9634 55.6672V55.7056L45.079 56.0517C45.1559 56.2826 45.1943 56.5134 45.3096 56.7443C45.3483 56.8211 45.3867 56.8598 45.4251 56.9367C45.4251 56.9751 45.4638 57.0135 45.4638 57.0135C45.6944 57.4752 46.1561 57.7447 46.6178 57.7447C46.7717 57.7447 46.9257 57.7061 47.0795 57.6292C47.3487 57.4755 47.5796 57.2444 47.6567 56.9367C47.7335 56.629 47.7336 56.2826 47.5798 55.9749C47.5798 55.9364 47.5411 55.9364 47.5411 55.898C47.5027 55.8211 47.4643 55.7443 47.4258 55.7056C47.3103 55.4748 47.1566 55.2823 47.0026 55.0899C46.9257 54.9746 46.8489 54.8978 46.772 54.7825V54.7438C46.3485 54.0897 45.9637 53.5127 45.7715 52.9355C45.6946 52.6662 45.7715 52.5125 45.8099 52.3201C45.8099 52.2816 45.8484 52.2816 45.8484 52.2432L45.656 51.7815C47.6951 50.5889 49.4263 48.8959 50.7345 46.8185C51.427 45.7412 51.9656 44.5485 52.3502 43.3559L52.8118 43.4328C52.8505 43.4328 52.8505 43.3943 52.8887 43.3943C53.0427 43.3175 53.1582 43.2022 53.3891 43.2022H53.4659C54.0816 43.279 54.7354 43.5096 55.4666 43.7791H55.5051C55.6204 43.8176 55.7357 43.8945 55.8512 43.9329C56.0821 44.0484 56.2745 44.1253 56.5438 44.2024C56.6206 44.2024 56.6975 44.2408 56.7746 44.2408C56.813 44.2408 56.8515 44.2408 56.8899 44.2793C57.0054 44.3177 57.0823 44.3177 57.1978 44.3177C57.7748 44.3177 58.275 43.9331 58.4289 43.433C58.4289 42.9713 58.0057 42.3557 57.3131 42.1635V42.1633ZM39.5003 40.2781L37.8076 41.0861L36.1148 40.2781L35.6918 38.47L36.8458 37.0081H38.7309L39.8852 38.47L39.5006 40.2781H39.5003ZM49.5418 36.2771C49.8403 37.5493 49.9312 38.8614 49.8111 40.1625L43.9248 38.47C43.3862 38.3163 43.0785 37.7775 43.1938 37.2389C43.2322 37.085 43.3093 36.931 43.4247 36.8157L48.0799 32.6221C48.7338 33.6994 49.2339 34.9305 49.5418 36.2769V36.2771ZM46.2332 30.3139L41.1933 33.8918C40.7701 34.1611 40.1929 34.084 39.8467 33.661C39.7314 33.5455 39.693 33.3915 39.6543 33.2377L39.3082 26.9666C41.9283 27.2683 44.3691 28.4481 46.2332 30.3139V30.3139ZM35.0761 27.1587C35.4994 27.0819 35.884 27.005 36.3072 26.9281L35.9611 33.0835C35.9226 33.6221 35.4994 34.0838 34.9222 34.0838C34.7684 34.0838 34.576 34.0453 34.4605 33.9685L29.3437 30.3139C30.9212 28.7364 32.8832 27.6591 35.0761 27.159V27.1587ZM27.497 32.6219L32.0752 36.6999C32.4984 37.0463 32.5369 37.7002 32.1907 38.1234C32.0752 38.2771 31.9214 38.3927 31.729 38.4313L25.7658 40.1625C25.535 37.5464 26.112 34.8918 27.497 32.6219V32.6219ZM26.4581 43.048L32.5755 42.009C33.0757 41.9706 33.5373 42.317 33.6526 42.8171C33.6911 43.0477 33.6911 43.2404 33.6142 43.4328L31.2674 49.088C29.1129 47.703 27.3817 45.587 26.4583 43.048H26.4581ZM40.5008 50.7039C39.6159 50.8964 38.7309 51.0117 37.8076 51.0117C36.4612 51.0117 35.153 50.781 33.9222 50.3962L36.9613 44.8947C37.269 44.5483 37.7691 44.3946 38.1924 44.6254C38.372 44.7355 38.5288 44.8791 38.6541 45.0484L41.6163 50.3962C41.2702 50.5115 40.8854 50.5886 40.5006 50.7039H40.5008ZM48.0028 45.3564C47.041 46.8952 45.7713 48.1262 44.3096 49.088L41.8859 43.2786C41.7703 42.8171 41.9627 42.317 42.4244 42.0859C42.5782 42.009 42.7706 41.9706 42.963 41.9706L49.1186 43.0095C48.8878 43.8558 48.5029 44.6254 48.0028 45.3564V45.3564Z" fill="white"/>
</svg>
