<svg width="800" height="800" viewBox="0 0 800 800" fill="none" xmlns="http://www.w3.org/2000/svg">
<path d="M257 44.9315C248.6 45.8281 242.2 48.6177 236.4 53.9975C230.1 59.7758 228 64.4583 228 73.5243C228 87.1731 233.3 93.3499 256.5 106.301C274.7 116.463 280 122.242 280 131.507C280 139.975 275 146.451 266.6 148.941C256.3 152.03 240.2 149.938 231.2 144.458C229.4 143.362 227.7 142.466 227.5 142.466C227.2 142.466 227 145.156 227 148.443V154.321L234.3 156.613C240.2 158.506 243.8 158.904 254.5 158.904C266.7 158.904 267.9 158.705 273.8 156.015C280.6 152.927 286 147.646 288.6 141.768C290.8 136.488 290.8 125.131 288.5 119.751C285.8 113.275 276.1 105.106 261.6 97.1357C246.5 88.8667 242.4 85.6787 239.9 80.2989C237.6 75.3175 237.5 70.8344 239.5 66.0523C241.7 60.8717 243.7 58.8792 249.5 56.1893C256.6 52.802 269.7 52.9016 279.3 56.1893L286.1 58.5803L285.8 53.0012L285.5 47.3225L280.9 46.2266C274.6 44.6326 264.7 44.1345 257 44.9315Z" fill="#323467"/>
<path d="M153.6 54.9937C151.7 60.0747 142.2 84.6824 132.7 109.589C123.1 134.496 114.9 155.716 114.5 156.613C113.9 158.107 114.5 158.306 119.7 158.207L125.6 158.007L131.7 141.569L137.7 125.031H162H186.3L192.4 141.469L198.5 157.908L204.3 158.007C207.5 158.107 210 157.808 209.8 157.41C209.6 156.912 200.1 131.706 188.5 101.22L167.5 45.8281H162.4H157.2L153.6 54.9937ZM166.4 70.8343C168.8 77.6089 173.3 90.2615 176.5 98.929C179.7 107.497 182.1 114.77 181.8 115.068C181.5 115.367 172.3 115.467 161.3 115.367L141.3 115.068L151.2 88.1693C156.6 73.4246 161 60.4732 161 59.3773C161 56.0896 161.9 58.0822 166.4 70.8343Z" fill="#323467"/>
<path d="M318 102.017V158.406H323H328V136.488V114.57H336.8C359.7 114.57 372.6 108.593 379.6 94.944C382.3 89.5642 382.5 88.3686 382.5 78.2067C382.5 67.8456 382.3 66.949 379.5 61.868C377.7 58.68 374.7 55.0934 372 53.2005C364.2 47.5218 359.7 46.6252 337.8 46.0274L318 45.6289V102.017ZM358.2 57.3848C364.9 59.5766 369.6 64.4583 371.6 71.3325C374.3 80.6974 372 90.9589 365.8 97.4346C360.6 102.715 353.9 104.608 340 104.608H328V79.9004V55.0934L340.6 55.3923C349 55.5915 354.9 56.2889 358.2 57.3848Z" fill="#323467"/>
<path d="M432.2 101.818L432.5 157.908H437.5H442.5V109.589V61.2702L450 72.3287C454.1 78.3063 469.2 100.125 483.5 120.747L509.5 158.207L514.8 158.306H520V102.117V45.8281H515H510L509.8 93.6488L509.5 141.469L505 134.794C502.5 131.009 487.7 109.489 472 86.8742L443.6 45.8281H437.8H432L432.2 101.818Z" fill="#323467"/>
<path d="M552 101.918V158.007H580.5L609 157.908V153.225V148.443H585.5H562V127.024V105.604H582.8H603.5V101.121V96.6376H582.7H562L562.2 75.9153L562.5 55.2927H584.8L607 55.3923V50.6102V45.8281H579.5H552V101.918Z" fill="#323467"/>
<path d="M623.2 50.5106L623.5 55.2926H639.5H655.5L655.8 106.799L656 158.406H661H666V106.799V55.2926H682.1H698.2L698.4 50.5106L698.6 45.8281H660.7H622.9L623.2 50.5106Z" fill="#323467"/>
<path d="M392.5 146.949C387.8 151.532 390.8 159.402 397.4 159.402C400.8 159.402 405 155.318 405 151.93C405 148.643 400.8 144.458 397.5 144.458C396.1 144.458 393.8 145.554 392.5 146.949Z" fill="#323467"/>
<path d="M227.8 233.624C182.1 239.303 138.9 256.737 102.2 284.134C89.9 293.3 69 313.524 59 325.878C25.7 367.123 4.59998 421.121 1.19998 473.724C-2.10002 525.031 6.89998 571.656 28.4 614.197C48.9 654.645 78 687.323 116 712.528C172.8 750.286 243.3 764.035 311 750.585C349.6 742.914 383 728.169 414.6 704.757C426.4 696.09 443 681.843 443 680.448C443 680.05 438.9 675.367 433.9 670.087L424.8 660.523L421 663.811C418.9 665.504 413.7 670.087 409.4 673.873C386.6 693.599 353.8 710.735 321.2 719.801C300.5 725.479 289.8 726.775 261 726.775C231.7 726.775 222.1 725.579 199.6 719.303C119.1 696.787 57.6 634.421 37.5 555.019C25.3 506.799 28.5 448.717 45.6 405.479C62.2 363.337 91.5 326.675 129.5 300.473C161.1 278.655 198.5 265.006 237.9 260.922C253.8 259.328 283.2 260.224 298.5 262.914C327.7 267.995 358 279.352 381.6 293.998C391.3 299.975 409.2 313.524 417.5 320.996L424.5 327.372L433.9 317.609L443.3 307.746L438.4 302.765C426.1 290.112 400.9 272.08 381 261.719C355.9 248.468 327.8 239.203 298.5 234.521C284.7 232.329 242.3 231.731 227.8 233.624Z" fill="#323467"/>
<path d="M683.5 373.699C649.9 380.374 623.4 400.697 607.2 432.08C594.6 456.389 589.8 482.59 592 513.674C596.4 576.139 625.9 614.994 676.3 624.757C687.4 626.949 708.3 627.347 722 625.554C740.9 623.263 761.2 616.488 775.5 607.821L783.5 602.939L784 587.895C784.3 579.626 784.4 572.852 784.3 572.852C784.2 572.852 780.3 575.342 775.8 578.531C764.5 586.202 747.6 594.072 735.5 597.36C726.4 599.851 723.8 600.149 707.5 600.149C686.6 600.249 681.7 599.352 667.5 592.379C648.1 582.914 634.7 565.579 627.6 540.971C625.1 532.204 623 518.057 623 509.788V505.106H711.3H799.6L799.3 488.369C798.9 460.772 795.2 442.042 786.5 423.711C781.3 412.752 777.4 406.874 770.1 399.103C759.5 387.945 747.5 380.772 731.4 375.99C723.6 373.699 720.4 373.3 705.5 373.001C696.2 372.802 686.3 373.201 683.5 373.699ZM717.3 400C738.5 404.483 754.8 419.726 762.5 442.341C765.6 451.308 768 464.757 768 472.727V478.705H695.9H623.8L624.4 474.122C628 447.223 643.6 420.722 662.6 409.166C678.3 399.701 699.3 396.214 717.3 400Z" fill="#323467"/>
<path d="M529.5 374.595C514 377.684 498 388.842 488.6 402.989C484.6 408.966 478.7 420.523 477.1 425.604C476.4 427.696 475.4 429.39 474.9 429.39C474.4 429.39 474 418.63 474 403.487V377.584H459H444V499.626V621.669H458.9H473.8L474.3 552.628C474.7 487.671 474.8 483.088 476.8 472.727C484.5 432.976 500.7 409.166 524.4 402.889C535.7 399.9 556 401.992 562.5 406.874C563.6 407.771 564.7 408.468 565 408.468C565.3 408.468 565.4 401.295 565.2 392.628L564.9 376.687L558 375.193C550.8 373.499 536.3 373.2 529.5 374.595Z" fill="#323467"/>
<path d="M264 404.483H250C206.922 404.483 172 439.274 172 482.192V509.091C172 552.008 206.922 586.799 250 586.799H264C307.078 586.799 342 552.008 342 509.091V482.192C342 439.274 307.078 404.483 264 404.483Z" fill="#01BFE2"/>
</svg>
