<svg width="76" height="76" fill="none" xmlns="http://www.w3.org/2000/svg">
  <path d="M59 20l-3.917 43.195L37.473 68l-17.56-4.798L16 20h43z" fill="#E44D26"/>
  <path d="M37 64l14.572-3.902L55 23H37v41z" fill="#F16529"/>
  <path d="M29.666 34.291H37V29H24l.124 1.42L25.398 45H37v-5.291h-6.86l-.474-5.418zM31.035 47H26l.703 8.81L36.977 59l.023-.007v-5.837l-.022.006-5.586-1.687L31.035 47z" fill="#EBEBEB"/>
  <path d="M20 8h2.745v2.642h2.51V8H28v8h-2.745v-2.679h-2.51V16H20V8zm11.232 2.653H29V8h7v2.653h-2.233V16h-2.535v-5.347zM38 8h2.786l1.714 2.811L44.213 8H47v8h-2.661v-3.965L42.5 14.879h-.046l-1.84-2.844V16H38V8zm10 0h2.91v5.356H55V16h-7V8z" fill="#8B8B8B"/>
  <path d="M37 44.497h6.887l-.65 7.13L37 53.28V59l11.465-3.123.084-.929 1.315-14.472L50 39H37v5.497zm0-10.509V34h13.5l.112-1.124.255-2.535L51 29H37v4.988z" fill="#fff"/>
</svg>
