<svg width="68" height="68" viewBox="0 0 68 68" fill="none" xmlns="http://www.w3.org/2000/svg">
<path d="M40.4494 25.6707L34.4437 31.2582L28.8712 20.0176L31.755 13.5526C32.505 12.2401 33.675 12.2551 34.4062 13.5526L40.4494 25.6707Z" fill="#FFA000"/>
<path d="M28.8712 20.0176L34.4437 31.2582L12 52.1363L28.8712 20.0176Z" fill="#F57F17"/>
<path d="M47.0175 17.1301C48.09 16.0988 49.2 16.4513 49.4831 17.912L55.3256 51.8588L35.9606 63.4838C35.2856 63.8588 33.4856 64.0201 33.4856 64.0201C33.4856 64.0201 31.8469 63.8251 31.2225 63.4576L12 52.1363L47.0175 17.1301Z" fill="#FFCA28"/>
<path d="M28.8713 20.0176L12.0019 52.1364L19.515 5.19575C19.7925 3.73326 20.625 3.59263 21.3675 4.88263L28.8713 20.0176Z" fill="#FFA000"/>
</svg>
