<svg width="68" height="68" viewBox="0 0 68 68" fill="none" xmlns="http://www.w3.org/2000/svg">
<path d="M51.5761 21.6318L47.22 25.9879C54.4802 33.2481 54.4802 45.0718 47.22 52.3319C39.9598 59.5921 28.1362 59.5921 20.876 52.3319C13.6158 45.0718 13.6158 33.2481 20.876 25.9879L32.4922 14.3717L33.9443 12.7122V4L16.3125 21.6318C13.9957 23.9252 12.1566 26.6552 10.9014 29.6638C9.64626 32.6724 9 35.9 9 39.1599C9 42.4198 9.64626 45.6474 10.9014 48.656C12.1566 51.6647 13.9957 54.3946 16.3125 56.688C18.6059 59.0048 21.3358 60.8439 24.3444 62.0991C27.353 63.3542 30.5806 64.0005 33.8406 64.0005C37.1005 64.0005 40.3281 63.3542 43.3367 62.0991C46.3453 60.8439 49.0753 59.0048 51.3687 56.688C61.3255 46.9387 61.3254 31.1737 51.5761 21.6318Z" fill="#EE4C2C"/>
<path d="M42.8639 20.3872C44.6969 20.3872 46.1828 18.9013 46.1828 17.0683C46.1828 15.2353 44.6969 13.7494 42.8639 13.7494C41.0309 13.7494 39.545 15.2353 39.545 17.0683C39.545 18.9013 41.0309 20.3872 42.8639 20.3872Z" fill="#EE4C2C"/>
</svg>
