<svg width="76" height="76" viewBox="0 0 76 76" fill="none" xmlns="http://www.w3.org/2000/svg">
<path d="M64.2435 25.5941C64.2431 24.5879 64.0279 23.6987 63.5927 22.9358C63.1652 22.1852 62.525 21.5562 61.6662 21.0589C54.5777 16.9716 47.4823 12.8969 40.396 8.80539C38.4856 7.70248 36.6333 7.74289 34.7371 8.86164C31.9156 10.5254 17.7896 18.6185 13.5802 21.0566C11.8467 22.0604 11.0031 23.5962 11.0027 25.5923C11 33.8121 11.0027 42.0319 11 50.2516C11 51.2358 11.2065 52.1079 11.6225 52.8594C12.0502 53.6325 12.6994 54.2787 13.5779 54.7873C17.7875 57.2254 31.9154 65.3179 34.7362 66.9823C36.6333 68.1016 38.4856 68.1416 40.3967 67.0385C47.4831 62.9469 54.579 58.8721 61.6685 54.7848C62.5471 54.2764 63.1962 53.6298 63.624 52.8573C64.0394 52.1056 64.2462 51.2337 64.2462 50.2494C64.2462 50.2494 64.2462 33.8141 64.2435 25.5941Z" fill="#A179DC"/>
<path d="M37.705 37.8418L11.6229 52.8593C12.0506 53.6325 12.6998 54.2787 13.5783 54.7872C17.7879 57.2254 31.9158 65.3179 34.7367 66.9822C36.6338 68.1016 38.486 68.1416 40.3971 67.0385C47.4835 62.9468 54.5794 58.872 61.669 54.7847C62.5475 54.2764 63.1967 53.6297 63.6244 52.8572L37.705 37.8418" fill="#280068"/>
<path d="M64.244 25.5941C64.2435 24.5879 64.0283 23.6987 63.5931 22.9358L37.705 37.842L63.6244 52.8573C64.0398 52.1056 64.2463 51.2337 64.2467 50.2493C64.2467 50.2493 64.2467 33.8141 64.244 25.5941" fill="#390091"/>
<path d="M53.0613 32.2279V35.035H55.8683V32.2279H57.2719V35.035H60.079V36.4385H57.2719V39.2454H60.079V40.6489H57.2719V43.456H55.8683V40.6489H53.0613V43.456H51.6577V40.6489H48.8508V39.2454H51.6577V36.4385H48.8508V35.035H51.6577V32.2279H53.0613ZM55.8683 36.4383H53.0613V39.2454H55.8683V36.4385V36.4383Z" fill="white"/>
<path d="M37.7623 18.1304C45.084 18.1304 51.4762 22.1066 54.9002 28.0171L54.8669 27.9602L46.2523 32.9202C44.5552 30.0466 41.444 28.1073 37.8746 28.0673L37.7621 28.0666C32.3194 28.0666 27.9069 32.4791 27.9069 37.9219C27.9051 39.6373 28.3533 41.3233 29.2067 42.8114C30.9054 45.7771 34.099 47.7773 37.7623 47.7773C41.4483 47.7773 44.66 45.7516 46.35 42.7544L46.309 42.8262L54.9104 47.8091C51.524 53.6696 45.2192 57.6335 37.9827 57.7125L37.7623 57.7137C30.4175 57.7137 24.0071 53.7129 20.5917 47.7712C18.9244 44.8706 17.9704 41.5079 17.9704 37.9219C17.9704 26.9914 26.8312 18.1302 37.7621 18.1302L37.7623 18.1304Z" fill="white"/>
</svg>
