<svg width="76" height="76" fill="none" xmlns="http://www.w3.org/2000/svg">
  <path d="M22.062 22.932c.221-.376.508-.737.921-.914.17-.03.339-.014.508-.014h8.338c-.243.206-.479.42-.64.7-.428.7-.715 1.48-.98 2.26-.752 2.358-1.275 4.78-1.783 7.204-.23 1.098-.448 2.198-.655 3.3-.634 3.594-1.29 7.18-2.107 10.738-.39 1.643-.788 3.285-1.392 4.869-.28.655-.552 1.355-1.09 1.84-.125.111-.25.251-.427.23h-7.366c-.5-.015-.994.029-1.495-.023.332-.257.626-.567.818-.935.552-1.053.898-2.195 1.23-3.33.515-1.826.928-3.675 1.318-5.523.243-1.216.53-2.424.707-3.646.2-1.363.501-2.71.744-4.066.383-1.996.788-3.992 1.238-5.973.36-1.547.729-3.086 1.222-4.596.243-.73.508-1.451.891-2.121v0z" fill="#EB7077" stroke="#EB7077" stroke-width=".034"/>
  <path d="M31.829 22.004c.213 0 .427-.008.64 0 .472.25.87.648 1.09 1.141.295.56.538 1.15.759 1.753.737 2.276 1.238 4.618 1.739 6.953.426 2.092.832 4.191 1.215 6.297.03.11-.007.266.14.295-.53 2.77-1.053 5.546-1.716 8.294-.361 1.48-.744 2.953-1.29 4.382-.294.714-.596 1.495-1.222 2.003-.398.089-.685-.213-.928-.486-.42-.538-.678-1.171-.928-1.805-.833-2.268-1.34-4.632-1.856-6.989-.39-1.834-.737-3.683-1.098-5.524-.162-.936-.383-1.856-.508-2.791-.022-.015-.074-.045-.096-.06.208-1.101.427-2.201.656-3.3.508-2.422 1.031-4.846 1.783-7.202.265-.781.552-1.562.98-2.262.161-.28.397-.493.64-.7h0z" fill="#F6A2AD" stroke="#F6A2AD" stroke-width=".034"/>
  <path d="M41.043 23.278c.265-.508.589-1.075 1.163-1.267 2.925-.015 5.849-.007 8.773-.007-.273.272-.56.545-.745.89-.566 1.017-.898 2.144-1.237 3.257-.869 3.063-1.48 6.194-2.062 9.324a249.2 249.2 0 01-1.768 9.243c-.338 1.547-.692 3.086-1.141 4.61-.288.944-.59 1.894-1.06 2.77-.23.398-.495.833-.929 1.039-2.791.022-5.59 0-8.381.007-.155 0-.317 0-.472-.022.626-.508.928-1.289 1.223-2.003.545-1.429.928-2.902 1.289-4.383.663-2.747 1.185-5.523 1.716-8.293.64-3.572 1.31-7.144 2.165-10.672.398-1.525.78-3.072 1.466-4.493h0z" fill="#EB7077" stroke="#EB7077" stroke-width=".034"/>
  <path d="M50.979 22.004c.235 0 .478-.008.714 0 .383.199.656.537.899.883.397.634.648 1.348.906 2.048.61 1.878 1.068 3.808 1.487 5.738.56 2.6 1.046 5.214 1.525 7.829.118.626.236 1.26.31 1.893l.11.11c-.265.369-.368.81-.516 1.23-.464 1.496-.766 3.042-1.024 4.582a24.677 24.677 0 01-.846 3.572c-.28.862-.62 1.716-1.179 2.438a2.628 2.628 0 01-1.024.788c-.611.066-.972-.523-1.267-.958-.611-1.068-.942-2.26-1.296-3.425-1.164-4.308-1.922-8.72-2.74-13.102a.194.194 0 00-.103-.155c.582-3.13 1.193-6.26 2.062-9.325.34-1.112.67-2.239 1.238-3.255.184-.346.471-.619.744-.891v0zM7 38.76c.192-.015.383-.044.582-.044h8.028c.339.044.693.014 1.017.162a2.9 2.9 0 011.2.92c.037-.022.103-.08.14-.11-.176 1.222-.464 2.43-.707 3.646-.39 1.848-.803 3.697-1.318 5.524-.332 1.134-.678 2.276-1.23 3.329-.192.368-.486.677-.818.935-.125.022-.22-.066-.324-.132-.346-.221-.545-.604-.758-.95-1.01-2.298-1.12-4.84-1.746-7.24-.317-1.201-.707-2.394-1.282-3.5-.353-.662-.788-1.295-1.355-1.804-.42-.338-.906-.611-1.429-.736h0z" fill="#F6A2AD" stroke="#F6A2AD" stroke-width=".034"/>
  <path d="M57.578 39.526c.464-.523 1.156-.854 1.856-.825h6.04c.84.015 1.686-.03 2.526.022-.25.17-.552.236-.818.376a4.88 4.88 0 00-2.21 1.996c-.802 1.4-1.082 3.005-1.318 4.58-.235 1.548-.228 3.146-.729 4.649-.338 1.053-.854 2.113-1.745 2.806-2.77.03-5.54.007-8.301.014-.184 0-.36.008-.538-.03a2.624 2.624 0 001.024-.787c.56-.722.899-1.576 1.178-2.438a24.67 24.67 0 00.847-3.572c.258-1.54.56-3.087 1.024-4.581.148-.42.25-.862.516-1.23.22-.325.368-.7.648-.98v0z" fill="#EB7077" stroke="#EB7077" stroke-width=".034"/>
</svg>
