<svg width="68" height="68" viewBox="0 0 68 68" fill="none" xmlns="http://www.w3.org/2000/svg">
<path d="M34.0344 8.0225C20.7219 8.0225 21.5638 13.7788 21.5638 13.7788V19.76H34.2238V21.635H16.5219C16.5219 21.635 8 20.585 8 34.0944C8 47.6038 15.5244 47.0544 15.5244 47.0544H19.8687V40.7525C19.8687 40.7525 19.625 33.2281 27.1812 33.2281H39.86C39.86 33.2281 46.9325 33.3406 46.9325 26.3806V14.96C46.9325 14.96 48.005 8 34.1037 8L34.0344 8.0225ZM27.0369 12.0294C27.4869 12.018 27.9303 12.1404 28.3108 12.381C28.6913 12.6216 28.992 12.9697 29.1747 13.3812C29.3574 13.7926 29.414 14.2491 29.3373 14.6927C29.2606 15.1363 29.054 15.5473 28.7438 15.8735C28.4335 16.1998 28.0335 16.4267 27.5943 16.5256C27.155 16.6245 26.6964 16.5909 26.2762 16.4291C25.8561 16.2673 25.4934 15.9845 25.2339 15.6165C24.9745 15.2486 24.83 14.812 24.8188 14.3619V14.3244C24.8188 13.7207 25.0586 13.1417 25.4854 12.7148C25.9123 12.2879 26.4913 12.0481 27.095 12.0481L27.0369 12.0294Z" fill="url(#paint0_linear)"/>
<path d="M34.4094 60.1662C47.7219 60.1662 46.88 54.3912 46.88 54.3912V48.4287H34.2219V46.5537H51.9781C51.9781 46.5537 60.5 47.5062 60.5 34.0756C60.5 20.645 52.9756 21.1156 52.9756 21.1156H48.575V27.335C48.575 27.335 48.8188 34.8594 41.2625 34.8594H28.5781C28.5781 34.8594 21.5 34.7525 21.5 41.7125V53.21C21.5 53.21 20.4275 60.17 34.3287 60.17H34.4038L34.4094 60.1662ZM41.4069 56.1406C40.9568 56.152 40.5135 56.0296 40.1329 55.789C39.7524 55.5484 39.4518 55.2003 39.2691 54.7888C39.0864 54.3774 39.0298 53.9209 39.1065 53.4773C39.1832 53.0337 39.3897 52.6227 39.7 52.2965C40.0102 51.9702 40.4103 51.7433 40.8495 51.6444C41.2887 51.5455 41.7474 51.5791 42.1675 51.7409C42.5877 51.9027 42.9504 52.1855 43.2098 52.5535C43.4692 52.9214 43.6137 53.358 43.625 53.8081V53.8644C43.625 54.4681 43.3852 55.047 42.9583 55.4739C42.5314 55.9008 41.9524 56.1406 41.3487 56.1406H41.405H41.4069Z" fill="url(#paint1_linear)"/>
<defs>
<linearGradient id="paint0_linear" x1="13.1884" y1="13.1279" x2="38.1009" y2="37.984" gradientUnits="userSpaceOnUse">
<stop stop-color="#387EB8"/>
<stop offset="1" stop-color="#366994"/>
</linearGradient>
<linearGradient id="paint1_linear" x1="27.9266" y1="29.3198" x2="56.3894" y2="54.1684" gradientUnits="userSpaceOnUse">
<stop stop-color="#FFE052"/>
<stop offset="1" stop-color="#FFC331"/>
</linearGradient>
</defs>
</svg>
