<svg width="76" height="76" fill="none" xmlns="http://www.w3.org/2000/svg">
  <path d="M59.75 15.91a19.054 19.054 0 00-11.526-7.506 18.92 18.92 0 00-13.536 2.243l-14.276 8.91a15.916 15.916 0 00-4.836 4.574 16.085 16.085 0 00-2.562 6.17 16.62 16.62 0 001.7 10.849 15.863 15.863 0 00-2.446 6.006 16.857 16.857 0 00.161 6.775 16.778 16.778 0 002.815 6.154 19.063 19.063 0 0011.526 7.51c4.632.974 9.457.177 13.539-2.238l14.277-8.907a15.93 15.93 0 004.835-4.575 16.098 16.098 0 002.563-6.17 16.591 16.591 0 00-1.7-10.857 15.84 15.84 0 002.448-6.006c.406-2.246.35-4.553-.163-6.777a16.768 16.768 0 00-2.819-6.154" fill="#FF3E00"/>
  <path d="M32.642 60.631a12.083 12.083 0 01-7.001-.326 11.912 11.912 0 01-5.607-4.149 10.104 10.104 0 01-1.763-3.748 10.032 10.032 0 01-.105-4.13c.083-.45.2-.893.35-1.326l.28-.815.758.517a19.416 19.416 0 005.79 2.77l.54.158-.055.515a3.1 3.1 0 00.597 2.104 3.585 3.585 0 001.701 1.282 3.639 3.639 0 002.14.1c.319-.082.624-.21.905-.38l14.763-9.028c.36-.215.67-.502.91-.842a2.95 2.95 0 00.465-2.374 3.037 3.037 0 00-.518-1.131 3.596 3.596 0 00-1.691-1.252 3.647 3.647 0 00-2.112-.1 3.331 3.331 0 00-.91.383L36.412 42.3a10.95 10.95 0 01-3.006 1.265 12.088 12.088 0 01-7.007-.324 11.918 11.918 0 01-5.611-4.153 10.102 10.102 0 01-1.745-3.755 10.03 10.03 0 01-.087-4.13 9.724 9.724 0 011.598-3.753 9.876 9.876 0 013.005-2.789l14.78-9.028a10.95 10.95 0 013.006-1.262 12.084 12.084 0 017.009.322 11.914 11.914 0 015.612 4.152 10.108 10.108 0 011.763 3.748c.321 1.356.357 2.761.106 4.13-.084.45-.201.894-.35 1.327l-.28.815-.758-.515a19.308 19.308 0 00-5.791-2.77l-.54-.16.055-.515a3.094 3.094 0 00-.6-2.104 3.585 3.585 0 00-1.688-1.253 3.636 3.636 0 00-2.112-.099c-.32.082-.625.21-.906.383l-14.81 8.997c-.36.214-.67.5-.91.84a2.92 2.92 0 00-.481 1.134 2.987 2.987 0 00.538 2.373 3.596 3.596 0 001.691 1.25 3.64 3.64 0 002.112.1c.32-.083.627-.21.91-.38l5.645-3.445a10.877 10.877 0 013.005-1.263 12.093 12.093 0 017.008.323 11.922 11.922 0 015.613 4.152 10.11 10.11 0 011.757 3.75c.32 1.354.354 2.76.1 4.128a9.708 9.708 0 01-1.594 3.758 9.86 9.86 0 01-3.008 2.79l-14.778 9.028a10.84 10.84 0 01-3.006 1.263" fill="#fff"/>
</svg>
