<svg width="76" height="76" viewBox="0 0 76 76" fill="none" xmlns="http://www.w3.org/2000/svg">
<path d="M28 68C30.6522 68 33.1957 66.9464 35.0711 65.0711C36.9464 63.1957 38 60.6522 38 58V48H28C25.3478 48 22.8043 49.0536 20.9289 50.9289C19.0536 52.8043 18 55.3478 18 58C18 60.6522 19.0536 63.1957 20.9289 65.0711C22.8043 66.9464 25.3478 68 28 68V68Z" fill="#0ACF83"/>
<path d="M18 38C18 35.3478 19.0536 32.8043 20.9289 30.9289C22.8043 29.0536 25.3478 28 28 28H38V48H28C25.3478 48 22.8043 46.9464 20.9289 45.0711C19.0536 43.1957 18 40.6522 18 38V38Z" fill="#A259FF"/>
<path d="M18 18C18 15.3492 19.0525 12.8068 20.9262 10.9317C22.7998 9.05655 25.3414 8.00207 27.9922 8H37.9922V28H28C25.3478 28 22.8043 26.9464 20.9289 25.0711C19.0536 23.1957 18 20.6522 18 18V18Z" fill="#F24E1E"/>
<path d="M38 8H48C50.6522 8 53.1957 9.05357 55.0711 10.9289C56.9464 12.8043 58 15.3478 58 18C58 20.6522 56.9464 23.1957 55.0711 25.0711C53.1957 26.9464 50.6522 28 48 28H38V8Z" fill="#FF7262"/>
<path d="M58 38C58 40.6522 56.9464 43.1957 55.0711 45.0711C53.1957 46.9464 50.6522 48 48 48C45.3478 48 42.8043 46.9464 40.9289 45.0711C39.0536 43.1957 38 40.6522 38 38C38 35.3478 39.0536 32.8043 40.9289 30.9289C42.8043 29.0536 45.3478 28 48 28C50.6522 28 53.1957 29.0536 55.0711 30.9289C56.9464 32.8043 58 35.3478 58 38V38Z" fill="#1ABCFE"/>
</svg>
