<svg width="76" height="76" fill="none" xmlns="http://www.w3.org/2000/svg">
  <path d="M21.336 8H54.57c1.617 0 3.188.258 4.711.797a13.239 13.239 0 015.696 4.031 13.142 13.142 0 012.882 6.422c.141.867.164 1.734.164 2.602v32.414c0 1.03-.046 2.086-.257 3.093a13.28 13.28 0 01-3.164 6.258 13.269 13.269 0 01-5.86 3.774c-1.36.421-2.765.609-4.195.609-.633 0-33.305 0-33.797-.023A13.375 13.375 0 0114 65.75a13.545 13.545 0 01-4.57-5.25c-.89-1.805-1.336-3.82-1.336-5.836V21.336a12.441 12.441 0 011.242-5.742 13.308 13.308 0 014.523-5.274 13.128 13.128 0 016.727-2.273C20.82 8 21.078 8 21.336 8z" fill="url(#Swift__paint0_linear)"/>
  <path d="M58.625 57.078a9.156 9.156 0 00-.703-.96 9.957 9.957 0 00-2.016-1.829c-.937-.633-2.039-1.031-3.164-1.078a5.73 5.73 0 00-2.344.375c-.75.258-1.476.633-2.18 1.008-.82.422-1.64.843-2.507 1.195-1.031.422-2.11.75-3.211.984-1.383.258-2.79.352-4.172.329a28.197 28.197 0 01-7.406-1.125 28.015 28.015 0 01-6.024-2.602 31.055 31.055 0 01-4.664-3.305 34.083 34.083 0 01-3.328-3.304 36.192 36.192 0 01-2.015-2.578 10.932 10.932 0 01-.704-1.102L8 36.406V21.29C8 13.953 13.93 8 21.266 8h11.836l8.765 8.906C61.648 30.36 55.25 45.196 55.25 45.196s5.625 6.327 3.375 11.882z" fill="url(#Swift__paint1_linear)"/>
  <path d="M41.914 16.906c19.781 13.453 13.383 28.29 13.383 28.29s5.625 6.35 3.351 11.906c0 0-2.32-3.891-6.21-3.891-3.75 0-5.954 3.89-13.5 3.89-16.805 0-24.75-14.038-24.75-14.038 15.14 9.96 25.476 2.906 25.476 2.906-6.82-3.961-21.328-22.899-21.328-22.899C30.969 33.828 36.43 36.664 36.43 36.664c-3.258-2.694-12.4-15.867-12.4-15.867 7.313 7.406 21.844 17.742 21.844 17.742 4.125-11.437-3.96-21.633-3.96-21.633z" fill="#fff"/>
  <defs>
    <linearGradient id="Swift__paint0_linear" x1="43.693" y1="5.859" x2="32.357" y2="70.148" gradientUnits="userSpaceOnUse">
      <stop stop-color="#FAAE42"/>
      <stop offset="1" stop-color="#EF3E31"/>
    </linearGradient>
    <linearGradient id="Swift__paint1_linear" x1="38.612" y1="8.969" x2="30.316" y2="56.022" gradientUnits="userSpaceOnUse">
      <stop stop-color="#E39F3A"/>
      <stop offset="1" stop-color="#D33929"/>
    </linearGradient>
  </defs>
</svg>
