<svg width="76" height="76" fill="none" xmlns="http://www.w3.org/2000/svg">
  <path d="M32.575 13.34a3.575 3.575 0 00-5.118 0h-.017a3.7 3.7 0 00-1.053 2.605 3.66 3.66 0 001.055 2.598l.018.017a3.529 3.529 0 002.547 1.065 3.59 3.59 0 002.568-1.065l.008-.017a3.658 3.658 0 001.052-2.598 3.69 3.69 0 00-1.052-2.605h-.008zm-2.568 50.397c1.01 0 1.915-.417 2.568-1.072l.008-.02a3.657 3.657 0 001.052-2.59 3.695 3.695 0 00-1.052-2.61h-.008a3.55 3.55 0 00-2.568-1.08 3.5 3.5 0 00-2.55 1.08h-.017a3.718 3.718 0 00-1.055 2.61c0 1.015.402 1.938 1.055 2.59l.017.02a3.565 3.565 0 002.55 1.072zm19.726-11.154a3.578 3.578 0 002.205-1.71l.067-.13c.428-.822.53-1.775.285-2.668a3.634 3.634 0 00-1.688-2.24l-.052-.035a3.562 3.562 0 00-2.695-.33 3.54 3.54 0 00-2.202 1.715 3.734 3.734 0 00-.365 2.797 3.733 3.733 0 001.687 2.24h.005c.865.508 1.843.598 2.753.36zM33.72 34.228a5.206 5.206 0 00-3.712-1.568c-1.45 0-2.758.605-3.706 1.568a5.352 5.352 0 00-1.53 3.767 5.41 5.41 0 001.53 3.785 5.2 5.2 0 007.418 0 5.406 5.406 0 001.53-3.785 5.342 5.342 0 00-1.53-3.767zm-2.087-6.276c2.107.353 4 1.38 5.445 2.86h.01c.23.233.454.49.662.748l3.615-2.127a7.94 7.94 0 01-.117-4.52 7.871 7.871 0 013.64-4.816l.062-.04a7.655 7.655 0 015.862-.764 7.828 7.828 0 014.745 3.704v.006a8.046 8.046 0 01.783 6.02 7.862 7.862 0 01-3.64 4.82l-.495.294h-.05a7.738 7.738 0 01-5.385.503 7.818 7.818 0 01-3.785-2.36l-3.61 2.12a10.405 10.405 0 010 7.197l3.61 2.115a7.68 7.68 0 013.785-2.36 7.603 7.603 0 015.927.798l.12.058v.005a7.925 7.925 0 013.52 4.764 8.037 8.037 0 01-.782 6.013l-.065.133-.008-.013a7.868 7.868 0 01-4.667 3.59 7.74 7.74 0 01-5.927-.795v-.015a7.89 7.89 0 01-3.64-4.818 7.937 7.937 0 01.117-4.512l-3.615-2.12c-.208.256-.43.501-.663.735l-.01.013a9.846 9.846 0 01-5.444 2.844v4.248a7.725 7.725 0 013.9 2.155l.005.01a7.964 7.964 0 012.285 5.608c0 2.182-.876 4.16-2.285 5.597l-.005.022A7.75 7.75 0 0130.006 68a7.75 7.75 0 01-5.515-2.325h-.005v-.022a7.965 7.965 0 01-2.29-5.598c0-2.188.876-4.18 2.29-5.608v-.01h.006a7.75 7.75 0 013.895-2.154v-4.248a9.815 9.815 0 01-5.44-2.845l-.015-.012A10.245 10.245 0 0120 37.992c0-2.806 1.13-5.34 2.933-7.18h.015a9.867 9.867 0 015.44-2.86v-4.23a7.843 7.843 0 01-3.896-2.16h-.005v-.01a7.98 7.98 0 01-2.29-5.608c0-2.178.876-4.172 2.29-5.607l.006-.005A7.71 7.71 0 0130.008 8c2.152 0 4.102.887 5.524 2.33v.005h.006a7.99 7.99 0 012.285 5.607c0 2.19-.876 4.168-2.285 5.608l-.005.012a7.855 7.855 0 01-3.9 2.16v4.23zm20.302-2.822l-.03-.047a3.63 3.63 0 00-2.175-1.67 3.575 3.575 0 00-2.758.364h.005a3.642 3.642 0 00-1.692 2.24 3.743 3.743 0 00.365 2.798l.017.022a3.574 3.574 0 002.185 1.683 3.49 3.49 0 002.745-.36l.048-.023a3.675 3.675 0 001.642-2.212 3.732 3.732 0 00-.352-2.795" fill="#000"/>
</svg>
