<svg width="68" height="68" viewBox="0 0 68 68" fill="none" xmlns="http://www.w3.org/2000/svg">
<path d="M4 4H64V64H4V4Z" fill="#F7DF1E"/>
<path d="M19.7762 54.1403L24.3676 51.3616C25.2536 52.9321 26.0594 54.261 27.9923 54.261C29.845 54.261 31.0133 53.5363 31.0133 50.7173V31.5459H36.6517V50.7969C36.6517 56.6369 33.2284 59.2951 28.2339 59.2951C23.7233 59.2951 21.1051 56.9591 19.776 54.1398" fill="black"/>
<path d="M39.7143 53.5361L44.3052 50.878C45.5139 52.8517 47.0847 54.3016 49.8634 54.3016C52.1999 54.3016 53.6896 53.1334 53.6896 51.5223C53.6896 49.5892 52.1591 48.9044 49.5815 47.777L48.1722 47.1723C44.1041 45.441 41.4058 43.266 41.4058 38.6746C41.4058 34.4455 44.6277 31.2234 49.6623 31.2234C53.2469 31.2234 55.8245 32.4721 57.677 35.7344L53.2867 38.5539C52.3199 36.8221 51.2732 36.1375 49.6621 36.1375C48.0107 36.1375 46.9635 37.1847 46.9635 38.5539C46.9635 40.2454 48.0107 40.9305 50.4271 41.9777L51.8366 42.5816C56.6296 44.6359 59.328 46.7301 59.328 51.442C59.328 56.5171 55.3408 59.2959 49.9841 59.2959C44.7484 59.2959 41.3652 56.7988 39.7141 53.5363" fill="black"/>
</svg>
