<svg width="68" height="68" viewBox="0 0 68 68" fill="none" xmlns="http://www.w3.org/2000/svg">
<path d="M13.6429 41.475C13.6429 42.3559 13.2929 43.2007 12.67 43.8236C12.0471 44.4465 11.2023 44.7964 10.3214 44.7964C9.44053 44.7964 8.59571 44.4465 7.97282 43.8236C7.34994 43.2007 7 42.3559 7 41.475V26.5286C7 25.6477 7.34994 24.8029 7.97282 24.18C8.59571 23.5571 9.44053 23.2071 10.3214 23.2071C11.2023 23.2071 12.0471 23.5571 12.67 24.18C13.2929 24.8029 13.6429 25.6477 13.6429 26.5286V41.475Z" fill="#7CB342"/>
<path d="M60.1429 41.475C60.1429 42.3559 59.7929 43.2007 59.17 43.8236C58.5471 44.4465 57.7023 44.7964 56.8214 44.7964C55.9405 44.7964 55.0957 44.4465 54.4728 43.8236C53.8499 43.2007 53.5 42.3559 53.5 41.475V26.5286C53.5 25.6477 53.8499 24.8029 54.4728 24.18C55.0957 23.5571 55.9405 23.2071 56.8214 23.2071C57.7023 23.2071 58.5471 23.5571 59.17 24.18C59.7929 24.8029 60.1429 25.6477 60.1429 26.5286V41.475Z" fill="#7CB342"/>
<path d="M30.25 59.7412C30.25 60.6221 29.9 61.4669 29.2772 62.0898C28.6543 62.7127 27.8094 63.0626 26.9285 63.0626C26.0476 63.0626 25.2028 62.7127 24.5799 62.0898C23.9571 61.4669 23.6071 60.6221 23.6071 59.7412V44.7948C23.6071 43.9139 23.9571 43.069 24.5799 42.4462C25.2028 41.8233 26.0476 41.4733 26.9285 41.4733C27.8094 41.4733 28.6543 41.8233 29.2772 42.4462C29.9 43.069 30.25 43.9139 30.25 44.7948V59.7412Z" fill="#7CB342"/>
<path d="M43.5357 59.7412C43.5357 60.6221 43.1858 61.4669 42.5629 62.0898C41.94 62.7127 41.0952 63.0626 40.2143 63.0626C39.3334 63.0626 38.4886 62.7127 37.8657 62.0898C37.2428 61.4669 36.8929 60.6221 36.8929 59.7412V44.7948C36.8929 43.9139 37.2428 43.069 37.8657 42.4462C38.4886 41.8233 39.3334 41.4733 40.2143 41.4733C41.0952 41.4733 41.94 41.8233 42.5629 42.4462C43.1858 43.069 43.5357 43.9139 43.5357 44.7948V59.7412Z" fill="#7CB342"/>
<path d="M16.9643 23.2071V48.1162C16.9643 48.9971 17.3142 49.8419 17.9371 50.4648C18.56 51.0877 19.4048 51.4376 20.2857 51.4376H46.8572C47.738 51.4376 48.5829 51.0877 49.2058 50.4648C49.8286 49.8419 50.1786 48.9971 50.1786 48.1162V23.2071H16.9643Z" fill="#7CB342"/>
<path d="M33.5714 6.59834C23.6072 6.59834 17.5372 12.6516 16.9643 19.8841H50.1786C49.604 12.6516 43.5357 6.59834 33.5714 6.59834ZM26.9286 15.895C26.4881 15.895 26.0657 15.7201 25.7543 15.4086C25.4428 15.0972 25.2679 14.6748 25.2679 14.2343C25.2679 13.7939 25.4428 13.3714 25.7543 13.06C26.0657 12.7486 26.4881 12.5736 26.9286 12.5736C27.369 12.5736 27.7914 12.7486 28.1029 13.06C28.4143 13.3714 28.5893 13.7939 28.5893 14.2343C28.5893 14.6748 28.4143 15.0972 28.1029 15.4086C27.7914 15.7201 27.369 15.895 26.9286 15.895ZM40.2143 15.895C39.7738 15.895 39.3514 15.7201 39.04 15.4086C38.7285 15.0972 38.5536 14.6748 38.5536 14.2343C38.5536 13.7939 38.7285 13.3714 39.04 13.06C39.3514 12.7486 39.7738 12.5736 40.2143 12.5736C40.6547 12.5736 41.0772 12.7486 41.3886 13.06C41.7 13.3714 41.875 13.7939 41.875 14.2343C41.875 14.6748 41.7 15.0972 41.3886 15.4086C41.0772 15.7201 40.6547 15.895 40.2143 15.895Z" fill="#7CB342"/>
<path fill-rule="evenodd" clip-rule="evenodd" d="M44.0557 4.15757C44.4865 4.44477 44.603 5.02684 44.3158 5.45765L41.549 9.60777C41.2618 10.0386 40.6797 10.155 40.2489 9.86779C39.8181 9.58058 39.7017 8.99852 39.9889 8.56771L42.7557 4.41758C43.0429 3.98678 43.6249 3.87036 44.0557 4.15757Z" fill="#7CB342"/>
<path fill-rule="evenodd" clip-rule="evenodd" d="M23.1016 4.14808C23.5377 3.86889 24.1175 3.99606 24.3967 4.43211L26.6104 7.88972C26.8896 8.32577 26.7624 8.90558 26.3263 9.18476C25.8903 9.46394 25.3105 9.33678 25.0313 8.90073L22.8176 5.44312C22.5384 5.00707 22.6656 4.42726 23.1016 4.14808Z" fill="#7CB342"/>
</svg>
