<svg width="76" height="76" fill="none" xmlns="http://www.w3.org/2000/svg">
  <path d="M25.31 11c-1.62.004-3.206.923-4.021 2.326L8.602 35.364c-.803 1.407-.803 3.246 0 4.653L21.29 62.053c.815 1.403 2.401 2.323 4.022 2.327h25.373c1.62-.004 3.206-.924 4.022-2.327l12.686-22.038c.803-1.406.803-3.245 0-4.652L54.706 13.326c-.816-1.403-2.402-2.323-4.023-2.326H25.312zm.231 12.892a.54.54 0 01.107 0h4.376a.578.578 0 01.478.284l7.424 13.23a.564.564 0 01.07.213.572.572 0 01.071-.213l7.407-13.23a.578.578 0 01.496-.284h4.376c.388.004.678.492.496.835L43.596 37.69l7.246 12.946c.2.345-.098.856-.496.852H45.97a.579.579 0 01-.496-.301l-7.407-13.23a.567.567 0 01-.07-.213.57.57 0 01-.07.213l-7.425 13.23a.58.58 0 01-.478.301h-4.377c-.397.004-.695-.507-.496-.852l7.247-12.946-7.247-12.963c-.174-.313.039-.768.39-.835z" fill="#3498DB"/>
</svg>
