<svg width="68" height="68" viewBox="0 0 68 68" fill="none" xmlns="http://www.w3.org/2000/svg">
<mask id="mask0" mask-type="alpha" maskUnits="userSpaceOnUse" x="9" y="6" width="50" height="57">
<path d="M35.0708 6.35403C34.6632 6.12201 34.2023 6 33.7333 6C33.2643 6 32.8033 6.12201 32.3957 6.35403L10.3117 19.1001C9.47203 19.5721 9 20.464 9 21.4081V46.9547C9 47.8987 9.52468 48.7906 10.3117 49.2626L32.3957 62.0096C32.8033 62.2416 33.2643 62.3636 33.7333 62.3636C34.2023 62.3636 34.6632 62.2416 35.0708 62.0096L57.1553 49.2626C57.9945 48.7906 58.467 47.8987 58.467 46.9547V21.4085C58.467 20.4645 57.9419 19.5726 57.1553 19.1006L35.0708 6.35403Z" fill="white"/>
</mask>
<g mask="url(#mask0)">
<path d="M35.0708 6.35403C34.6632 6.12201 34.2023 6 33.7333 6C33.2643 6 32.8033 6.12201 32.3957 6.35403L10.3117 19.1001C9.47203 19.5721 9 20.464 9 21.4081V46.9547C9 47.8987 9.52468 48.7906 10.3117 49.2626L32.3957 62.0096C32.8033 62.2416 33.2643 62.3636 33.7333 62.3636C34.2023 62.3636 34.6632 62.2416 35.0708 62.0096L57.1553 49.2626C57.9945 48.7906 58.467 47.8987 58.467 46.9547V21.4085C58.467 20.4645 57.9419 19.5726 57.1553 19.1006L35.0708 6.35403Z" fill="url(#paint0_linear)"/>
<path d="M57.2076 19.1006L35.0187 6.35404C34.8007 6.24394 34.5721 6.15605 34.3365 6.0917L9.47207 48.6867C9.67803 48.9381 9.92679 49.1512 10.2069 49.3162L32.3958 62.0632C33.0253 62.4303 33.7597 62.5352 34.4414 62.325L57.7849 19.6257C57.6274 19.416 57.4173 19.2581 57.2076 19.101V19.1006Z" fill="url(#paint1_linear)"/>
<path fill-rule="evenodd" clip-rule="evenodd" d="M57.2602 49.2631C57.8898 48.8959 58.3618 48.2664 58.5719 47.5846L34.2312 6.03904C33.6017 5.9342 32.9195 5.9864 32.3431 6.35358L10.3113 19.0484L34.0737 62.3772C34.4193 62.3207 34.755 62.2147 35.0704 62.0627L57.2598 49.2635L57.2602 49.2631Z" fill="url(#paint2_linear)"/>
<path fill-rule="evenodd" clip-rule="evenodd" d="M57.2602 49.2631L35.1235 62.01C34.811 62.1694 34.4742 62.2757 34.1268 62.3246L34.5466 63.1116L59.0961 48.8963V48.5814L58.4666 47.532C58.3617 48.2664 57.8897 48.8959 57.2602 49.2631V49.2631Z" fill="url(#paint3_linear)"/>
<path fill-rule="evenodd" clip-rule="evenodd" d="M57.2602 49.2631L35.1235 62.01C34.811 62.1694 34.4742 62.2757 34.1268 62.3246L34.5466 63.1116L59.0961 48.8963V48.5814L58.4666 47.532C58.3617 48.2664 57.8897 48.8959 57.2602 49.2631V49.2631Z" fill="url(#paint4_linear)"/>
</g>
<defs>
<linearGradient id="paint0_linear" x1="42.7306" y1="15.8563" x2="18.5243" y2="53.8915" gradientUnits="userSpaceOnUse">
<stop stop-color="#41873F"/>
<stop offset="0.3288" stop-color="#418B3D"/>
<stop offset="0.6352" stop-color="#419637"/>
<stop offset="0.9319" stop-color="#3FA92D"/>
<stop offset="1" stop-color="#3FAE2A"/>
</linearGradient>
<linearGradient id="paint1_linear" x1="30.3804" y1="37.1742" x2="91.0038" y2="4.23729" gradientUnits="userSpaceOnUse">
<stop offset="0.1376" stop-color="#41873F"/>
<stop offset="0.4032" stop-color="#54A044"/>
<stop offset="0.7136" stop-color="#66B848"/>
<stop offset="0.9081" stop-color="#6CC04A"/>
</linearGradient>
<linearGradient id="paint2_linear" x1="8.19313" y1="34.1826" x2="59.2953" y2="34.1826" gradientUnits="userSpaceOnUse">
<stop offset="0.09192" stop-color="#6CC04A"/>
<stop offset="0.2864" stop-color="#66B848"/>
<stop offset="0.5968" stop-color="#54A044"/>
<stop offset="0.8624" stop-color="#41873F"/>
</linearGradient>
<linearGradient id="paint3_linear" x1="8.19343" y1="55.3646" x2="59.2951" y2="55.3646" gradientUnits="userSpaceOnUse">
<stop offset="0.09192" stop-color="#6CC04A"/>
<stop offset="0.2864" stop-color="#66B848"/>
<stop offset="0.5968" stop-color="#54A044"/>
<stop offset="0.8624" stop-color="#41873F"/>
</linearGradient>
<linearGradient id="paint4_linear" x1="66.7399" y1="14.6483" x2="53.7939" y2="82.4852" gradientUnits="userSpaceOnUse">
<stop stop-color="#41873F"/>
<stop offset="0.3288" stop-color="#418B3D"/>
<stop offset="0.6352" stop-color="#419637"/>
<stop offset="0.9319" stop-color="#3FA92D"/>
<stop offset="1" stop-color="#3FAE2A"/>
</linearGradient>
</defs>
</svg>
