<svg width="76" height="76" fill="none" xmlns="http://www.w3.org/2000/svg">
  <path fill-rule="evenodd" clip-rule="evenodd" d="M42.787 14.867l12.322 7.115a5.38 5.38 0 011.212-.96 5.352 5.352 0 017.3 1.96 5.352 5.352 0 01-1.96 7.299 5.35 5.35 0 01-1.423.567v14.234c.494.12.968.31 1.408.563a5.326 5.326 0 011.96 7.3c-1.47 2.555-4.745 3.427-7.3 1.958a5.305 5.305 0 01-1.321-1.072L42.738 60.9a5.348 5.348 0 01-5.071 7.025 5.336 5.336 0 01-5.34-5.341c0-.525.075-1.032.215-1.511l-12.319-7.112a5.382 5.382 0 01-1.195.941c-2.57 1.47-5.83.597-7.3-1.959a5.353 5.353 0 011.96-7.3c.44-.253.913-.442 1.407-.562V30.847a5.37 5.37 0 01-1.423-.566c-2.556-1.47-3.428-4.744-1.959-7.3 1.47-2.555 4.744-3.428 7.3-1.958.445.258.851.579 1.206.953l12.325-7.117a5.356 5.356 0 01-.218-1.518A5.336 5.336 0 0137.666 8a5.336 5.336 0 015.341 5.34c0 .531-.077 1.044-.22 1.527zm-1.284 2.192l12.351 7.132a5.333 5.333 0 00.508 4.131 5.312 5.312 0 003.336 2.513v14.252c-.07.017-.138.035-.207.055L41.36 17.202c.05-.047.097-.094.144-.142zm-7.526.146l-16.131 27.94a5.48 5.48 0 00-.21-.056V30.835a5.312 5.312 0 003.335-2.513 5.334 5.334 0 00.506-4.14l12.348-7.128c.05.051.1.102.152.151zm5.182 1.266l16.128 27.933a5.354 5.354 0 00-1.503 2.607H21.55a5.359 5.359 0 00-.563-1.408 5.382 5.382 0 00-.939-1.192l16.131-27.939a5.358 5.358 0 002.98-.001zm2.457 40.516l12.272-7.085a5.387 5.387 0 01-.099-.35H21.543a4.801 4.801 0 01-.055.206l12.331 7.12a5.324 5.324 0 013.848-1.634 5.327 5.327 0 013.95 1.743z" fill="#E535AB"/>
</svg>
